<svg xmlns="http://www.w3.org/2000/svg" xmlns:xlink="http://www.w3.org/1999/xlink" width="600" height="400" viewBox="0 0 2400 1600">
<defs>
  <clipPath id="clip820">
    <rect x="0" y="0" width="2400" height="1600"></rect>
  </clipPath>
</defs>
<path clip-path="url(#clip820)" d="M0 1600 L2400 1600 L2400 0 L0 0  Z" fill="#ffffff" fill-rule="evenodd" fill-opacity="1"></path>
<defs>
  <clipPath id="clip821">
    <rect x="480" y="0" width="1681" height="1600"></rect>
  </clipPath>
</defs>
<path clip-path="url(#clip820)" d="M224.098 1486.45 L2352.76 1486.45 L2352.76 123.472 L224.098 123.472  Z" fill="#ffffff" fill-rule="evenodd" fill-opacity="1"></path>
<defs>
  <clipPath id="clip822">
    <rect x="224" y="123" width="2130" height="1364"></rect>
  </clipPath>
</defs>
<polyline clip-path="url(#clip822)" style="stroke:#000000; stroke-linecap:round; stroke-linejoin:round; stroke-width:2; stroke-opacity:0.1; fill:none" points="561.332,1486.45 561.332,123.472 "></polyline>
<polyline clip-path="url(#clip822)" style="stroke:#000000; stroke-linecap:round; stroke-linejoin:round; stroke-width:2; stroke-opacity:0.1; fill:none" points="907.567,1486.45 907.567,123.472 "></polyline>
<polyline clip-path="url(#clip822)" style="stroke:#000000; stroke-linecap:round; stroke-linejoin:round; stroke-width:2; stroke-opacity:0.1; fill:none" points="1253.8,1486.45 1253.8,123.472 "></polyline>
<polyline clip-path="url(#clip822)" style="stroke:#000000; stroke-linecap:round; stroke-linejoin:round; stroke-width:2; stroke-opacity:0.1; fill:none" points="1600.04,1486.45 1600.04,123.472 "></polyline>
<polyline clip-path="url(#clip822)" style="stroke:#000000; stroke-linecap:round; stroke-linejoin:round; stroke-width:2; stroke-opacity:0.1; fill:none" points="1946.28,1486.45 1946.28,123.472 "></polyline>
<polyline clip-path="url(#clip822)" style="stroke:#000000; stroke-linecap:round; stroke-linejoin:round; stroke-width:2; stroke-opacity:0.1; fill:none" points="2292.51,1486.45 2292.51,123.472 "></polyline>
<polyline clip-path="url(#clip820)" style="stroke:#000000; stroke-linecap:round; stroke-linejoin:round; stroke-width:4; stroke-opacity:1; fill:none" points="224.098,1486.45 2352.76,1486.45 "></polyline>
<polyline clip-path="url(#clip820)" style="stroke:#000000; stroke-linecap:round; stroke-linejoin:round; stroke-width:4; stroke-opacity:1; fill:none" points="561.332,1486.45 561.332,1467.55 "></polyline>
<polyline clip-path="url(#clip820)" style="stroke:#000000; stroke-linecap:round; stroke-linejoin:round; stroke-width:4; stroke-opacity:1; fill:none" points="907.567,1486.45 907.567,1467.55 "></polyline>
<polyline clip-path="url(#clip820)" style="stroke:#000000; stroke-linecap:round; stroke-linejoin:round; stroke-width:4; stroke-opacity:1; fill:none" points="1253.8,1486.45 1253.8,1467.55 "></polyline>
<polyline clip-path="url(#clip820)" style="stroke:#000000; stroke-linecap:round; stroke-linejoin:round; stroke-width:4; stroke-opacity:1; fill:none" points="1600.04,1486.45 1600.04,1467.55 "></polyline>
<polyline clip-path="url(#clip820)" style="stroke:#000000; stroke-linecap:round; stroke-linejoin:round; stroke-width:4; stroke-opacity:1; fill:none" points="1946.28,1486.45 1946.28,1467.55 "></polyline>
<polyline clip-path="url(#clip820)" style="stroke:#000000; stroke-linecap:round; stroke-linejoin:round; stroke-width:4; stroke-opacity:1; fill:none" points="2292.51,1486.45 2292.51,1467.55 "></polyline>
<path clip-path="url(#clip820)" d="M551.609 1514.29 L569.966 1514.29 L569.966 1518.22 L555.892 1518.22 L555.892 1526.7 Q556.91 1526.35 557.929 1526.19 Q558.947 1526 559.966 1526 Q565.753 1526 569.132 1529.17 Q572.512 1532.34 572.512 1537.76 Q572.512 1543.34 569.04 1546.44 Q565.568 1549.52 559.248 1549.52 Q557.072 1549.52 554.804 1549.15 Q552.558 1548.78 550.151 1548.04 L550.151 1543.34 Q552.234 1544.47 554.457 1545.03 Q556.679 1545.58 559.156 1545.58 Q563.16 1545.58 565.498 1543.48 Q567.836 1541.37 567.836 1537.76 Q567.836 1534.15 565.498 1532.04 Q563.16 1529.94 559.156 1529.94 Q557.281 1529.94 555.406 1530.35 Q553.554 1530.77 551.609 1531.65 L551.609 1514.29 Z" fill="#000000" fill-rule="nonzero" fill-opacity="1"></path><path clip-path="url(#clip820)" d="M882.255 1544.91 L889.894 1544.91 L889.894 1518.55 L881.584 1520.21 L881.584 1515.95 L889.848 1514.29 L894.524 1514.29 L894.524 1544.91 L902.162 1544.91 L902.162 1548.85 L882.255 1548.85 L882.255 1544.91 Z" fill="#000000" fill-rule="nonzero" fill-opacity="1"></path><path clip-path="url(#clip820)" d="M921.607 1517.37 Q917.996 1517.37 916.167 1520.93 Q914.361 1524.47 914.361 1531.6 Q914.361 1538.71 916.167 1542.27 Q917.996 1545.82 921.607 1545.82 Q925.241 1545.82 927.047 1542.27 Q928.875 1538.71 928.875 1531.6 Q928.875 1524.47 927.047 1520.93 Q925.241 1517.37 921.607 1517.37 M921.607 1513.66 Q927.417 1513.66 930.472 1518.27 Q933.551 1522.85 933.551 1531.6 Q933.551 1540.33 930.472 1544.94 Q927.417 1549.52 921.607 1549.52 Q915.797 1549.52 912.718 1544.94 Q909.662 1540.33 909.662 1531.6 Q909.662 1522.85 912.718 1518.27 Q915.797 1513.66 921.607 1513.66 Z" fill="#000000" fill-rule="nonzero" fill-opacity="1"></path><path clip-path="url(#clip820)" d="M1228.99 1544.91 L1236.63 1544.91 L1236.63 1518.55 L1228.32 1520.21 L1228.32 1515.95 L1236.58 1514.29 L1241.26 1514.29 L1241.26 1544.91 L1248.9 1544.91 L1248.9 1548.85 L1228.99 1548.85 L1228.99 1544.91 Z" fill="#000000" fill-rule="nonzero" fill-opacity="1"></path><path clip-path="url(#clip820)" d="M1258.39 1514.29 L1276.74 1514.29 L1276.74 1518.22 L1262.67 1518.22 L1262.67 1526.7 Q1263.69 1526.35 1264.71 1526.19 Q1265.72 1526 1266.74 1526 Q1272.53 1526 1275.91 1529.17 Q1279.29 1532.34 1279.29 1537.76 Q1279.29 1543.34 1275.82 1546.44 Q1272.34 1549.52 1266.03 1549.52 Q1263.85 1549.52 1261.58 1549.15 Q1259.34 1548.78 1256.93 1548.04 L1256.93 1543.34 Q1259.01 1544.47 1261.23 1545.03 Q1263.46 1545.58 1265.93 1545.58 Q1269.94 1545.58 1272.28 1543.48 Q1274.61 1541.37 1274.61 1537.76 Q1274.61 1534.15 1272.28 1532.04 Q1269.94 1529.94 1265.93 1529.94 Q1264.06 1529.94 1262.18 1530.35 Q1260.33 1530.77 1258.39 1531.65 L1258.39 1514.29 Z" fill="#000000" fill-rule="nonzero" fill-opacity="1"></path><path clip-path="url(#clip820)" d="M1578.81 1544.91 L1595.13 1544.91 L1595.13 1548.85 L1573.19 1548.85 L1573.19 1544.91 Q1575.85 1542.16 1580.43 1537.53 Q1585.04 1532.88 1586.22 1531.53 Q1588.47 1529.01 1589.34 1527.27 Q1590.25 1525.51 1590.25 1523.82 Q1590.25 1521.07 1588.3 1519.33 Q1586.38 1517.6 1583.28 1517.6 Q1581.08 1517.6 1578.63 1518.36 Q1576.2 1519.13 1573.42 1520.68 L1573.42 1515.95 Q1576.24 1514.82 1578.7 1514.24 Q1581.15 1513.66 1583.19 1513.66 Q1588.56 1513.66 1591.75 1516.35 Q1594.95 1519.03 1594.95 1523.52 Q1594.95 1525.65 1594.14 1527.57 Q1593.35 1529.47 1591.24 1532.07 Q1590.66 1532.74 1587.56 1535.95 Q1584.46 1539.15 1578.81 1544.91 Z" fill="#000000" fill-rule="nonzero" fill-opacity="1"></path><path clip-path="url(#clip820)" d="M1614.95 1517.37 Q1611.34 1517.37 1609.51 1520.93 Q1607.7 1524.47 1607.7 1531.6 Q1607.7 1538.71 1609.51 1542.27 Q1611.34 1545.82 1614.95 1545.82 Q1618.58 1545.82 1620.39 1542.27 Q1622.21 1538.71 1622.21 1531.6 Q1622.21 1524.47 1620.39 1520.93 Q1618.58 1517.37 1614.95 1517.37 M1614.95 1513.66 Q1620.76 1513.66 1623.81 1518.27 Q1626.89 1522.85 1626.89 1531.6 Q1626.89 1540.33 1623.81 1544.94 Q1620.76 1549.52 1614.95 1549.52 Q1609.14 1549.52 1606.06 1544.94 Q1603 1540.33 1603 1531.6 Q1603 1522.85 1606.06 1518.27 Q1609.14 1513.66 1614.95 1513.66 Z" fill="#000000" fill-rule="nonzero" fill-opacity="1"></path><path clip-path="url(#clip820)" d="M1925.55 1544.91 L1941.87 1544.91 L1941.87 1548.85 L1919.92 1548.85 L1919.92 1544.91 Q1922.58 1542.16 1927.17 1537.53 Q1931.77 1532.88 1932.95 1531.53 Q1935.2 1529.01 1936.08 1527.27 Q1936.98 1525.51 1936.98 1523.82 Q1936.98 1521.07 1935.04 1519.33 Q1933.12 1517.6 1930.01 1517.6 Q1927.81 1517.6 1925.36 1518.36 Q1922.93 1519.13 1920.15 1520.68 L1920.15 1515.95 Q1922.98 1514.82 1925.43 1514.24 Q1927.88 1513.66 1929.92 1513.66 Q1935.29 1513.66 1938.49 1516.35 Q1941.68 1519.03 1941.68 1523.52 Q1941.68 1525.65 1940.87 1527.57 Q1940.08 1529.47 1937.98 1532.07 Q1937.4 1532.74 1934.3 1535.95 Q1931.19 1539.15 1925.55 1544.91 Z" fill="#000000" fill-rule="nonzero" fill-opacity="1"></path><path clip-path="url(#clip820)" d="M1951.73 1514.29 L1970.08 1514.29 L1970.08 1518.22 L1956.01 1518.22 L1956.01 1526.7 Q1957.03 1526.35 1958.05 1526.19 Q1959.06 1526 1960.08 1526 Q1965.87 1526 1969.25 1529.17 Q1972.63 1532.34 1972.63 1537.76 Q1972.63 1543.34 1969.16 1546.44 Q1965.68 1549.52 1959.37 1549.52 Q1957.19 1549.52 1954.92 1549.15 Q1952.68 1548.78 1950.27 1548.04 L1950.27 1543.34 Q1952.35 1544.47 1954.57 1545.03 Q1956.8 1545.58 1959.27 1545.58 Q1963.28 1545.58 1965.62 1543.48 Q1967.95 1541.37 1967.95 1537.76 Q1967.95 1534.15 1965.62 1532.04 Q1963.28 1529.94 1959.27 1529.94 Q1957.4 1529.94 1955.52 1530.35 Q1953.67 1530.77 1951.73 1531.65 L1951.73 1514.29 Z" fill="#000000" fill-rule="nonzero" fill-opacity="1"></path><path clip-path="url(#clip820)" d="M2281.35 1530.21 Q2284.71 1530.93 2286.58 1533.2 Q2288.48 1535.47 2288.48 1538.8 Q2288.48 1543.92 2284.96 1546.72 Q2281.45 1549.52 2274.96 1549.52 Q2272.79 1549.52 2270.47 1549.08 Q2268.18 1548.66 2265.73 1547.81 L2265.73 1543.29 Q2267.67 1544.43 2269.99 1545.01 Q2272.3 1545.58 2274.83 1545.58 Q2279.22 1545.58 2281.52 1543.85 Q2283.83 1542.11 2283.83 1538.8 Q2283.83 1535.75 2281.68 1534.03 Q2279.55 1532.3 2275.73 1532.3 L2271.7 1532.3 L2271.7 1528.45 L2275.91 1528.45 Q2279.36 1528.45 2281.19 1527.09 Q2283.02 1525.7 2283.02 1523.11 Q2283.02 1520.45 2281.12 1519.03 Q2279.25 1517.6 2275.73 1517.6 Q2273.81 1517.6 2271.61 1518.01 Q2269.41 1518.43 2266.77 1519.31 L2266.77 1515.14 Q2269.43 1514.4 2271.75 1514.03 Q2274.09 1513.66 2276.15 1513.66 Q2281.47 1513.66 2284.57 1516.09 Q2287.67 1518.5 2287.67 1522.62 Q2287.67 1525.49 2286.03 1527.48 Q2284.39 1529.45 2281.35 1530.21 Z" fill="#000000" fill-rule="nonzero" fill-opacity="1"></path><path clip-path="url(#clip820)" d="M2307.35 1517.37 Q2303.74 1517.37 2301.91 1520.93 Q2300.1 1524.47 2300.1 1531.6 Q2300.1 1538.71 2301.91 1542.27 Q2303.74 1545.82 2307.35 1545.82 Q2310.98 1545.82 2312.79 1542.27 Q2314.62 1538.71 2314.62 1531.6 Q2314.62 1524.47 2312.79 1520.93 Q2310.98 1517.37 2307.35 1517.37 M2307.35 1513.66 Q2313.16 1513.66 2316.21 1518.27 Q2319.29 1522.85 2319.29 1531.6 Q2319.29 1540.33 2316.21 1544.94 Q2313.16 1549.52 2307.35 1549.52 Q2301.54 1549.52 2298.46 1544.94 Q2295.4 1540.33 2295.4 1531.6 Q2295.4 1522.85 2298.46 1518.27 Q2301.54 1513.66 2307.35 1513.66 Z" fill="#000000" fill-rule="nonzero" fill-opacity="1"></path><polyline clip-path="url(#clip822)" style="stroke:#000000; stroke-linecap:round; stroke-linejoin:round; stroke-width:2; stroke-opacity:0.1; fill:none" points="224.098,1486.45 2352.76,1486.45 "></polyline>
<polyline clip-path="url(#clip822)" style="stroke:#000000; stroke-linecap:round; stroke-linejoin:round; stroke-width:2; stroke-opacity:0.1; fill:none" points="224.098,1145.7 2352.76,1145.7 "></polyline>
<polyline clip-path="url(#clip822)" style="stroke:#000000; stroke-linecap:round; stroke-linejoin:round; stroke-width:2; stroke-opacity:0.1; fill:none" points="224.098,804.96 2352.76,804.96 "></polyline>
<polyline clip-path="url(#clip822)" style="stroke:#000000; stroke-linecap:round; stroke-linejoin:round; stroke-width:2; stroke-opacity:0.1; fill:none" points="224.098,464.216 2352.76,464.216 "></polyline>
<polyline clip-path="url(#clip822)" style="stroke:#000000; stroke-linecap:round; stroke-linejoin:round; stroke-width:2; stroke-opacity:0.1; fill:none" points="224.098,123.472 2352.76,123.472 "></polyline>
<polyline clip-path="url(#clip820)" style="stroke:#000000; stroke-linecap:round; stroke-linejoin:round; stroke-width:4; stroke-opacity:1; fill:none" points="224.098,1486.45 224.098,123.472 "></polyline>
<polyline clip-path="url(#clip820)" style="stroke:#000000; stroke-linecap:round; stroke-linejoin:round; stroke-width:4; stroke-opacity:1; fill:none" points="224.098,1486.45 242.996,1486.45 "></polyline>
<polyline clip-path="url(#clip820)" style="stroke:#000000; stroke-linecap:round; stroke-linejoin:round; stroke-width:4; stroke-opacity:1; fill:none" points="224.098,1145.7 242.996,1145.7 "></polyline>
<polyline clip-path="url(#clip820)" style="stroke:#000000; stroke-linecap:round; stroke-linejoin:round; stroke-width:4; stroke-opacity:1; fill:none" points="224.098,804.96 242.996,804.96 "></polyline>
<polyline clip-path="url(#clip820)" style="stroke:#000000; stroke-linecap:round; stroke-linejoin:round; stroke-width:4; stroke-opacity:1; fill:none" points="224.098,464.216 242.996,464.216 "></polyline>
<polyline clip-path="url(#clip820)" style="stroke:#000000; stroke-linecap:round; stroke-linejoin:round; stroke-width:4; stroke-opacity:1; fill:none" points="224.098,123.472 242.996,123.472 "></polyline>
<path clip-path="url(#clip820)" d="M50.9921 1486.9 L80.6679 1486.9 L80.6679 1490.83 L50.9921 1490.83 L50.9921 1486.9 Z" fill="#000000" fill-rule="nonzero" fill-opacity="1"></path><path clip-path="url(#clip820)" d="M100.76 1472.25 Q97.1493 1472.25 95.3206 1475.81 Q93.515 1479.35 93.515 1486.48 Q93.515 1493.59 95.3206 1497.15 Q97.1493 1500.7 100.76 1500.7 Q104.395 1500.7 106.2 1497.15 Q108.029 1493.59 108.029 1486.48 Q108.029 1479.35 106.2 1475.81 Q104.395 1472.25 100.76 1472.25 M100.76 1468.54 Q106.571 1468.54 109.626 1473.15 Q112.705 1477.73 112.705 1486.48 Q112.705 1495.21 109.626 1499.82 Q106.571 1504.4 100.76 1504.4 Q94.9502 1504.4 91.8715 1499.82 Q88.816 1495.21 88.816 1486.48 Q88.816 1477.73 91.8715 1473.15 Q94.9502 1468.54 100.76 1468.54 Z" fill="#000000" fill-rule="nonzero" fill-opacity="1"></path><path clip-path="url(#clip820)" d="M120.922 1497.85 L125.807 1497.85 L125.807 1503.73 L120.922 1503.73 L120.922 1497.85 Z" fill="#000000" fill-rule="nonzero" fill-opacity="1"></path><path clip-path="url(#clip820)" d="M136.038 1469.17 L154.394 1469.17 L154.394 1473.1 L140.32 1473.1 L140.32 1481.58 Q141.339 1481.23 142.357 1481.07 Q143.376 1480.88 144.394 1480.88 Q150.181 1480.88 153.561 1484.05 Q156.941 1487.22 156.941 1492.64 Q156.941 1498.22 153.468 1501.32 Q149.996 1504.4 143.677 1504.4 Q141.501 1504.4 139.232 1504.03 Q136.987 1503.66 134.58 1502.92 L134.58 1498.22 Q136.663 1499.35 138.885 1499.91 Q141.107 1500.46 143.584 1500.46 Q147.589 1500.46 149.927 1498.36 Q152.265 1496.25 152.265 1492.64 Q152.265 1489.03 149.927 1486.92 Q147.589 1484.82 143.584 1484.82 Q141.709 1484.82 139.834 1485.23 Q137.982 1485.65 136.038 1486.53 L136.038 1469.17 Z" fill="#000000" fill-rule="nonzero" fill-opacity="1"></path><path clip-path="url(#clip820)" d="M176.153 1472.25 Q172.542 1472.25 170.714 1475.81 Q168.908 1479.35 168.908 1486.48 Q168.908 1493.59 170.714 1497.15 Q172.542 1500.7 176.153 1500.7 Q179.788 1500.7 181.593 1497.15 Q183.422 1493.59 183.422 1486.48 Q183.422 1479.35 181.593 1475.81 Q179.788 1472.25 176.153 1472.25 M176.153 1468.54 Q181.964 1468.54 185.019 1473.15 Q188.098 1477.73 188.098 1486.48 Q188.098 1495.21 185.019 1499.82 Q181.964 1504.4 176.153 1504.4 Q170.343 1504.4 167.265 1499.82 Q164.209 1495.21 164.209 1486.48 Q164.209 1477.73 167.265 1473.15 Q170.343 1468.54 176.153 1468.54 Z" fill="#000000" fill-rule="nonzero" fill-opacity="1"></path><path clip-path="url(#clip820)" d="M51.9875 1146.16 L81.6633 1146.16 L81.6633 1150.09 L51.9875 1150.09 L51.9875 1146.16 Z" fill="#000000" fill-rule="nonzero" fill-opacity="1"></path><path clip-path="url(#clip820)" d="M101.756 1131.5 Q98.1447 1131.5 96.316 1135.07 Q94.5104 1138.61 94.5104 1145.74 Q94.5104 1152.85 96.316 1156.41 Q98.1447 1159.95 101.756 1159.95 Q105.39 1159.95 107.196 1156.41 Q109.024 1152.85 109.024 1145.74 Q109.024 1138.61 107.196 1135.07 Q105.39 1131.5 101.756 1131.5 M101.756 1127.8 Q107.566 1127.8 110.621 1132.41 Q113.7 1136.99 113.7 1145.74 Q113.7 1154.47 110.621 1159.07 Q107.566 1163.66 101.756 1163.66 Q95.9456 1163.66 92.8669 1159.07 Q89.8114 1154.47 89.8114 1145.74 Q89.8114 1136.99 92.8669 1132.41 Q95.9456 1127.8 101.756 1127.8 Z" fill="#000000" fill-rule="nonzero" fill-opacity="1"></path><path clip-path="url(#clip820)" d="M121.918 1157.1 L126.802 1157.1 L126.802 1162.98 L121.918 1162.98 L121.918 1157.1 Z" fill="#000000" fill-rule="nonzero" fill-opacity="1"></path><path clip-path="url(#clip820)" d="M141.015 1159.05 L157.334 1159.05 L157.334 1162.98 L135.39 1162.98 L135.39 1159.05 Q138.052 1156.29 142.635 1151.66 Q147.242 1147.01 148.422 1145.67 Q150.668 1143.15 151.547 1141.41 Q152.45 1139.65 152.45 1137.96 Q152.45 1135.21 150.505 1133.47 Q148.584 1131.73 145.482 1131.73 Q143.283 1131.73 140.83 1132.5 Q138.399 1133.26 135.621 1134.81 L135.621 1130.09 Q138.445 1128.96 140.899 1128.38 Q143.353 1127.8 145.39 1127.8 Q150.76 1127.8 153.955 1130.48 Q157.149 1133.17 157.149 1137.66 Q157.149 1139.79 156.339 1141.71 Q155.552 1143.61 153.445 1146.2 Q152.867 1146.87 149.765 1150.09 Q146.663 1153.28 141.015 1159.05 Z" fill="#000000" fill-rule="nonzero" fill-opacity="1"></path><path clip-path="url(#clip820)" d="M167.195 1128.42 L185.552 1128.42 L185.552 1132.36 L171.478 1132.36 L171.478 1140.83 Q172.496 1140.48 173.515 1140.32 Q174.533 1140.14 175.552 1140.14 Q181.339 1140.14 184.718 1143.31 Q188.098 1146.48 188.098 1151.9 Q188.098 1157.47 184.626 1160.58 Q181.153 1163.66 174.834 1163.66 Q172.658 1163.66 170.39 1163.28 Q168.144 1162.91 165.737 1162.17 L165.737 1157.47 Q167.82 1158.61 170.042 1159.16 Q172.265 1159.72 174.741 1159.72 Q178.746 1159.72 181.084 1157.61 Q183.422 1155.51 183.422 1151.9 Q183.422 1148.28 181.084 1146.18 Q178.746 1144.07 174.741 1144.07 Q172.866 1144.07 170.991 1144.49 Q169.14 1144.91 167.195 1145.78 L167.195 1128.42 Z" fill="#000000" fill-rule="nonzero" fill-opacity="1"></path><path clip-path="url(#clip820)" d="M100.76 790.759 Q97.1493 790.759 95.3206 794.323 Q93.515 797.865 93.515 804.995 Q93.515 812.101 95.3206 815.666 Q97.1493 819.208 100.76 819.208 Q104.395 819.208 106.2 815.666 Q108.029 812.101 108.029 804.995 Q108.029 797.865 106.2 794.323 Q104.395 790.759 100.76 790.759 M100.76 787.055 Q106.571 787.055 109.626 791.661 Q112.705 796.245 112.705 804.995 Q112.705 813.722 109.626 818.328 Q106.571 822.911 100.76 822.911 Q94.9502 822.911 91.8715 818.328 Q88.816 813.722 88.816 804.995 Q88.816 796.245 91.8715 791.661 Q94.9502 787.055 100.76 787.055 Z" fill="#000000" fill-rule="nonzero" fill-opacity="1"></path><path clip-path="url(#clip820)" d="M120.922 816.36 L125.807 816.36 L125.807 822.24 L120.922 822.24 L120.922 816.36 Z" fill="#000000" fill-rule="nonzero" fill-opacity="1"></path><path clip-path="url(#clip820)" d="M145.992 790.759 Q142.381 790.759 140.552 794.323 Q138.746 797.865 138.746 804.995 Q138.746 812.101 140.552 815.666 Q142.381 819.208 145.992 819.208 Q149.626 819.208 151.431 815.666 Q153.26 812.101 153.26 804.995 Q153.26 797.865 151.431 794.323 Q149.626 790.759 145.992 790.759 M145.992 787.055 Q151.802 787.055 154.857 791.661 Q157.936 796.245 157.936 804.995 Q157.936 813.722 154.857 818.328 Q151.802 822.911 145.992 822.911 Q140.181 822.911 137.103 818.328 Q134.047 813.722 134.047 804.995 Q134.047 796.245 137.103 791.661 Q140.181 787.055 145.992 787.055 Z" fill="#000000" fill-rule="nonzero" fill-opacity="1"></path><path clip-path="url(#clip820)" d="M176.153 790.759 Q172.542 790.759 170.714 794.323 Q168.908 797.865 168.908 804.995 Q168.908 812.101 170.714 815.666 Q172.542 819.208 176.153 819.208 Q179.788 819.208 181.593 815.666 Q183.422 812.101 183.422 804.995 Q183.422 797.865 181.593 794.323 Q179.788 790.759 176.153 790.759 M176.153 787.055 Q181.964 787.055 185.019 791.661 Q188.098 796.245 188.098 804.995 Q188.098 813.722 185.019 818.328 Q181.964 822.911 176.153 822.911 Q170.343 822.911 167.265 818.328 Q164.209 813.722 164.209 804.995 Q164.209 796.245 167.265 791.661 Q170.343 787.055 176.153 787.055 Z" fill="#000000" fill-rule="nonzero" fill-opacity="1"></path><path clip-path="url(#clip820)" d="M101.756 450.015 Q98.1447 450.015 96.316 453.58 Q94.5104 457.121 94.5104 464.251 Q94.5104 471.357 96.316 474.922 Q98.1447 478.464 101.756 478.464 Q105.39 478.464 107.196 474.922 Q109.024 471.357 109.024 464.251 Q109.024 457.121 107.196 453.58 Q105.39 450.015 101.756 450.015 M101.756 446.311 Q107.566 446.311 110.621 450.918 Q113.7 455.501 113.7 464.251 Q113.7 472.978 110.621 477.584 Q107.566 482.167 101.756 482.167 Q95.9456 482.167 92.8669 477.584 Q89.8114 472.978 89.8114 464.251 Q89.8114 455.501 92.8669 450.918 Q95.9456 446.311 101.756 446.311 Z" fill="#000000" fill-rule="nonzero" fill-opacity="1"></path><path clip-path="url(#clip820)" d="M121.918 475.616 L126.802 475.616 L126.802 481.496 L121.918 481.496 L121.918 475.616 Z" fill="#000000" fill-rule="nonzero" fill-opacity="1"></path><path clip-path="url(#clip820)" d="M141.015 477.561 L157.334 477.561 L157.334 481.496 L135.39 481.496 L135.39 477.561 Q138.052 474.806 142.635 470.177 Q147.242 465.524 148.422 464.181 Q150.668 461.658 151.547 459.922 Q152.45 458.163 152.45 456.473 Q152.45 453.718 150.505 451.982 Q148.584 450.246 145.482 450.246 Q143.283 450.246 140.83 451.01 Q138.399 451.774 135.621 453.325 L135.621 448.603 Q138.445 447.468 140.899 446.89 Q143.353 446.311 145.39 446.311 Q150.76 446.311 153.955 448.996 Q157.149 451.681 157.149 456.172 Q157.149 458.302 156.339 460.223 Q155.552 462.121 153.445 464.714 Q152.867 465.385 149.765 468.603 Q146.663 471.797 141.015 477.561 Z" fill="#000000" fill-rule="nonzero" fill-opacity="1"></path><path clip-path="url(#clip820)" d="M167.195 446.936 L185.552 446.936 L185.552 450.871 L171.478 450.871 L171.478 459.343 Q172.496 458.996 173.515 458.834 Q174.533 458.649 175.552 458.649 Q181.339 458.649 184.718 461.82 Q188.098 464.992 188.098 470.408 Q188.098 475.987 184.626 479.089 Q181.153 482.167 174.834 482.167 Q172.658 482.167 170.39 481.797 Q168.144 481.427 165.737 480.686 L165.737 475.987 Q167.82 477.121 170.042 477.677 Q172.265 478.232 174.741 478.232 Q178.746 478.232 181.084 476.126 Q183.422 474.019 183.422 470.408 Q183.422 466.797 181.084 464.691 Q178.746 462.584 174.741 462.584 Q172.866 462.584 170.991 463.001 Q169.14 463.417 167.195 464.297 L167.195 446.936 Z" fill="#000000" fill-rule="nonzero" fill-opacity="1"></path><path clip-path="url(#clip820)" d="M100.76 109.271 Q97.1493 109.271 95.3206 112.836 Q93.515 116.377 93.515 123.507 Q93.515 130.613 95.3206 134.178 Q97.1493 137.72 100.76 137.72 Q104.395 137.72 106.2 134.178 Q108.029 130.613 108.029 123.507 Q108.029 116.377 106.2 112.836 Q104.395 109.271 100.76 109.271 M100.76 105.567 Q106.571 105.567 109.626 110.174 Q112.705 114.757 112.705 123.507 Q112.705 132.234 109.626 136.84 Q106.571 141.423 100.76 141.423 Q94.9502 141.423 91.8715 136.84 Q88.816 132.234 88.816 123.507 Q88.816 114.757 91.8715 110.174 Q94.9502 105.567 100.76 105.567 Z" fill="#000000" fill-rule="nonzero" fill-opacity="1"></path><path clip-path="url(#clip820)" d="M120.922 134.873 L125.807 134.873 L125.807 140.752 L120.922 140.752 L120.922 134.873 Z" fill="#000000" fill-rule="nonzero" fill-opacity="1"></path><path clip-path="url(#clip820)" d="M136.038 106.192 L154.394 106.192 L154.394 110.127 L140.32 110.127 L140.32 118.599 Q141.339 118.252 142.357 118.09 Q143.376 117.905 144.394 117.905 Q150.181 117.905 153.561 121.076 Q156.941 124.248 156.941 129.664 Q156.941 135.243 153.468 138.345 Q149.996 141.423 143.677 141.423 Q141.501 141.423 139.232 141.053 Q136.987 140.683 134.58 139.942 L134.58 135.243 Q136.663 136.377 138.885 136.933 Q141.107 137.488 143.584 137.488 Q147.589 137.488 149.927 135.382 Q152.265 133.275 152.265 129.664 Q152.265 126.053 149.927 123.947 Q147.589 121.84 143.584 121.84 Q141.709 121.84 139.834 122.257 Q137.982 122.674 136.038 123.553 L136.038 106.192 Z" fill="#000000" fill-rule="nonzero" fill-opacity="1"></path><path clip-path="url(#clip820)" d="M176.153 109.271 Q172.542 109.271 170.714 112.836 Q168.908 116.377 168.908 123.507 Q168.908 130.613 170.714 134.178 Q172.542 137.72 176.153 137.72 Q179.788 137.72 181.593 134.178 Q183.422 130.613 183.422 123.507 Q183.422 116.377 181.593 112.836 Q179.788 109.271 176.153 109.271 M176.153 105.567 Q181.964 105.567 185.019 110.174 Q188.098 114.757 188.098 123.507 Q188.098 132.234 185.019 136.84 Q181.964 141.423 176.153 141.423 Q170.343 141.423 167.265 136.84 Q164.209 132.234 164.209 123.507 Q164.209 114.757 167.265 110.174 Q170.343 105.567 176.153 105.567 Z" fill="#000000" fill-rule="nonzero" fill-opacity="1"></path><path clip-path="url(#clip820)" d="M957.346 18.8205 L957.346 41.5461 L967.636 41.5461 Q973.348 41.5461 976.467 38.5889 Q979.586 35.6318 979.586 30.163 Q979.586 24.7348 976.467 21.7777 Q973.348 18.8205 967.636 18.8205 L957.346 18.8205 M949.164 12.096 L967.636 12.096 Q977.804 12.096 982.989 16.714 Q988.214 21.2916 988.214 30.163 Q988.214 39.1155 982.989 43.6931 Q977.804 48.2706 967.636 48.2706 L957.346 48.2706 L957.346 72.576 L949.164 72.576 L949.164 12.096 Z" fill="#000000" fill-rule="nonzero" fill-opacity="1"></path><path clip-path="url(#clip820)" d="M1023.7 34.1734 Q1022.44 33.4443 1020.95 33.1202 Q1019.49 32.7556 1017.7 32.7556 Q1011.39 32.7556 1007.98 36.8875 Q1004.62 40.9789 1004.62 48.6757 L1004.62 72.576 L997.126 72.576 L997.126 27.2059 L1004.62 27.2059 L1004.62 34.2544 Q1006.97 30.1225 1010.74 28.1376 Q1014.5 26.1121 1019.89 26.1121 Q1020.66 26.1121 1021.59 26.2337 Q1022.53 26.3147 1023.66 26.5172 L1023.7 34.1734 Z" fill="#000000" fill-rule="nonzero" fill-opacity="1"></path><path clip-path="url(#clip820)" d="M1031.52 27.2059 L1038.97 27.2059 L1038.97 72.576 L1031.52 72.576 L1031.52 27.2059 M1031.52 9.54393 L1038.97 9.54393 L1038.97 18.9825 L1031.52 18.9825 L1031.52 9.54393 Z" fill="#000000" fill-rule="nonzero" fill-opacity="1"></path><path clip-path="url(#clip820)" d="M1092.28 45.1919 L1092.28 72.576 L1084.83 72.576 L1084.83 45.4349 Q1084.83 38.994 1082.32 35.7938 Q1079.81 32.5936 1074.78 32.5936 Q1068.75 32.5936 1065.26 36.4419 Q1061.78 40.2903 1061.78 46.9338 L1061.78 72.576 L1054.28 72.576 L1054.28 27.2059 L1061.78 27.2059 L1061.78 34.2544 Q1064.45 30.163 1068.06 28.1376 Q1071.7 26.1121 1076.44 26.1121 Q1084.26 26.1121 1088.27 30.9732 Q1092.28 35.7938 1092.28 45.1919 Z" fill="#000000" fill-rule="nonzero" fill-opacity="1"></path><path clip-path="url(#clip820)" d="M1139.8 28.9478 L1139.8 35.9153 Q1136.64 34.1734 1133.44 33.3227 Q1130.28 32.4315 1127.04 32.4315 Q1119.79 32.4315 1115.78 37.0496 Q1111.77 41.6271 1111.77 49.9314 Q1111.77 58.2358 1115.78 62.8538 Q1119.79 67.4314 1127.04 67.4314 Q1130.28 67.4314 1133.44 66.5807 Q1136.64 65.6895 1139.8 63.9476 L1139.8 70.8341 Q1136.68 72.2924 1133.32 73.0216 Q1130 73.7508 1126.23 73.7508 Q1115.98 73.7508 1109.94 67.3098 Q1103.91 60.8689 1103.91 49.9314 Q1103.91 38.832 1109.98 32.472 Q1116.1 26.1121 1126.71 26.1121 Q1130.16 26.1121 1133.44 26.8413 Q1136.72 27.5299 1139.8 28.9478 Z" fill="#000000" fill-rule="nonzero" fill-opacity="1"></path><path clip-path="url(#clip820)" d="M1152.76 27.2059 L1160.22 27.2059 L1160.22 72.576 L1152.76 72.576 L1152.76 27.2059 M1152.76 9.54393 L1160.22 9.54393 L1160.22 18.9825 L1152.76 18.9825 L1152.76 9.54393 Z" fill="#000000" fill-rule="nonzero" fill-opacity="1"></path><path clip-path="url(#clip820)" d="M1183.02 65.7705 L1183.02 89.8329 L1175.53 89.8329 L1175.53 27.2059 L1183.02 27.2059 L1183.02 34.0924 Q1185.37 30.0415 1188.94 28.0971 Q1192.54 26.1121 1197.52 26.1121 Q1205.79 26.1121 1210.93 32.6746 Q1216.12 39.2371 1216.12 49.9314 Q1216.12 60.6258 1210.93 67.1883 Q1205.79 73.7508 1197.52 73.7508 Q1192.54 73.7508 1188.94 71.8063 Q1185.37 69.8214 1183.02 65.7705 M1208.38 49.9314 Q1208.38 41.7081 1204.98 37.0496 Q1201.62 32.3505 1195.7 32.3505 Q1189.79 32.3505 1186.38 37.0496 Q1183.02 41.7081 1183.02 49.9314 Q1183.02 58.1548 1186.38 62.8538 Q1189.79 67.5124 1195.7 67.5124 Q1201.62 67.5124 1204.98 62.8538 Q1208.38 58.1548 1208.38 49.9314 Z" fill="#000000" fill-rule="nonzero" fill-opacity="1"></path><path clip-path="url(#clip820)" d="M1249.09 49.7694 Q1240.06 49.7694 1236.58 51.8354 Q1233.09 53.9013 1233.09 58.8839 Q1233.09 62.8538 1235.68 65.2034 Q1238.32 67.5124 1242.81 67.5124 Q1249.01 67.5124 1252.74 63.1374 Q1256.51 58.7219 1256.51 51.4303 L1256.51 49.7694 L1249.09 49.7694 M1263.96 46.6907 L1263.96 72.576 L1256.51 72.576 L1256.51 65.6895 Q1253.95 69.8214 1250.15 71.8063 Q1246.34 73.7508 1240.83 73.7508 Q1233.86 73.7508 1229.73 69.8619 Q1225.64 65.9325 1225.64 59.3701 Q1225.64 51.7138 1230.74 47.825 Q1235.89 43.9361 1246.05 43.9361 L1256.51 43.9361 L1256.51 43.2069 Q1256.51 38.0623 1253.1 35.2672 Q1249.74 32.4315 1243.62 32.4315 Q1239.74 32.4315 1236.05 33.3632 Q1232.36 34.295 1228.96 36.1584 L1228.96 29.2718 Q1233.05 27.692 1236.9 26.9223 Q1240.75 26.1121 1244.39 26.1121 Q1254.24 26.1121 1259.1 31.2163 Q1263.96 36.3204 1263.96 46.6907 Z" fill="#000000" fill-rule="nonzero" fill-opacity="1"></path><path clip-path="url(#clip820)" d="M1279.31 9.54393 L1286.77 9.54393 L1286.77 72.576 L1279.31 72.576 L1279.31 9.54393 Z" fill="#000000" fill-rule="nonzero" fill-opacity="1"></path><path clip-path="url(#clip820)" d="M1364.06 35.9153 Q1366.85 30.8922 1370.74 28.5022 Q1374.63 26.1121 1379.9 26.1121 Q1386.99 26.1121 1390.83 31.0947 Q1394.68 36.0368 1394.68 45.1919 L1394.68 72.576 L1387.19 72.576 L1387.19 45.4349 Q1387.19 38.913 1384.88 35.7533 Q1382.57 32.5936 1377.83 32.5936 Q1372.04 32.5936 1368.68 36.4419 Q1365.31 40.2903 1365.31 46.9338 L1365.31 72.576 L1357.82 72.576 L1357.82 45.4349 Q1357.82 38.8725 1355.51 35.7533 Q1353.2 32.5936 1348.38 32.5936 Q1342.67 32.5936 1339.31 36.4824 Q1335.94 40.3308 1335.94 46.9338 L1335.94 72.576 L1328.45 72.576 L1328.45 27.2059 L1335.94 27.2059 L1335.94 34.2544 Q1338.5 30.082 1342.06 28.0971 Q1345.63 26.1121 1350.53 26.1121 Q1355.47 26.1121 1358.91 28.6237 Q1362.4 31.1352 1364.06 35.9153 Z" fill="#000000" fill-rule="nonzero" fill-opacity="1"></path><path clip-path="url(#clip820)" d="M1427.13 32.4315 Q1421.13 32.4315 1417.65 37.1306 Q1414.17 41.7891 1414.17 49.9314 Q1414.17 58.0738 1417.61 62.7728 Q1421.09 67.4314 1427.13 67.4314 Q1433.08 67.4314 1436.57 62.7323 Q1440.05 58.0333 1440.05 49.9314 Q1440.05 41.8701 1436.57 37.1711 Q1433.08 32.4315 1427.13 32.4315 M1427.13 26.1121 Q1436.85 26.1121 1442.4 32.4315 Q1447.95 38.7509 1447.95 49.9314 Q1447.95 61.0714 1442.4 67.4314 Q1436.85 73.7508 1427.13 73.7508 Q1417.37 73.7508 1411.82 67.4314 Q1406.31 61.0714 1406.31 49.9314 Q1406.31 38.7509 1411.82 32.4315 Q1417.37 26.1121 1427.13 26.1121 Z" fill="#000000" fill-rule="nonzero" fill-opacity="1"></path><path clip-path="url(#clip820)" d="M1490.16 34.0924 L1490.16 9.54393 L1497.62 9.54393 L1497.62 72.576 L1490.16 72.576 L1490.16 65.7705 Q1487.81 69.8214 1484.21 71.8063 Q1480.64 73.7508 1475.62 73.7508 Q1467.4 73.7508 1462.21 67.1883 Q1457.07 60.6258 1457.07 49.9314 Q1457.07 39.2371 1462.21 32.6746 Q1467.4 26.1121 1475.62 26.1121 Q1480.64 26.1121 1484.21 28.0971 Q1487.81 30.0415 1490.16 34.0924 M1464.76 49.9314 Q1464.76 58.1548 1468.13 62.8538 Q1471.53 67.5124 1477.44 67.5124 Q1483.36 67.5124 1486.76 62.8538 Q1490.16 58.1548 1490.16 49.9314 Q1490.16 41.7081 1486.76 37.0496 Q1483.36 32.3505 1477.44 32.3505 Q1471.53 32.3505 1468.13 37.0496 Q1464.76 41.7081 1464.76 49.9314 Z" fill="#000000" fill-rule="nonzero" fill-opacity="1"></path><path clip-path="url(#clip820)" d="M1551.78 48.0275 L1551.78 51.6733 L1517.51 51.6733 Q1517.99 59.3701 1522.12 63.421 Q1526.3 67.4314 1533.71 67.4314 Q1538 67.4314 1542.01 66.3781 Q1546.06 65.3249 1550.03 63.2184 L1550.03 70.267 Q1546.02 71.9684 1541.81 72.8596 Q1537.6 73.7508 1533.26 73.7508 Q1522.41 73.7508 1516.05 67.4314 Q1509.73 61.1119 1509.73 50.3365 Q1509.73 39.1965 1515.72 32.6746 Q1521.76 26.1121 1531.97 26.1121 Q1541.12 26.1121 1546.43 32.0264 Q1551.78 37.9003 1551.78 48.0275 M1544.32 45.84 Q1544.24 39.7232 1540.88 36.0774 Q1537.56 32.4315 1532.05 32.4315 Q1525.81 32.4315 1522.04 35.9558 Q1518.32 39.4801 1517.75 45.8805 L1544.32 45.84 Z" fill="#000000" fill-rule="nonzero" fill-opacity="1"></path><path clip-path="url(#clip820)" d="M1592.85 65.6895 L1606.22 65.6895 L1606.22 19.5497 L1591.68 22.4663 L1591.68 15.0127 L1606.14 12.096 L1614.32 12.096 L1614.32 65.6895 L1627.69 65.6895 L1627.69 72.576 L1592.85 72.576 L1592.85 65.6895 Z" fill="#000000" fill-rule="nonzero" fill-opacity="1"></path><polyline clip-path="url(#clip822)" style="stroke:#009af9; stroke-linecap:round; stroke-linejoin:round; stroke-width:4; stroke-opacity:1; fill:none" points="284.343,1368.65 353.59,1239.66 422.837,1133.6 492.084,1049.48 561.332,984.97 630.579,937.073 699.826,902.7 769.073,879.045 838.32,863.782 907.567,855.102 976.815,851.659 1046.06,852.364 1115.31,855.857 1184.56,860.076 1253.8,863.436 1323.05,866.413 1392.3,870.272 1461.54,875.517 1530.79,882.453 1600.04,891.618 1669.29,903.836 1738.53,920.306 1807.78,942.59 1877.03,972.57 1946.28,1012.28 2015.52,1063.64 2084.77,1128.4 2154.02,1208.18 2223.26,1304.34 2292.51,1417.92 "></polyline>
<polyline clip-path="url(#clip822)" style="stroke:#e26f46; stroke-linecap:round; stroke-linejoin:round; stroke-width:4; stroke-opacity:1; fill:none" points="284.343,1017.76 353.59,989.94 422.837,963.473 492.084,938.94 561.332,916.797 630.579,897.363 699.826,880.823 769.073,867.247 838.32,856.623 907.567,848.898 976.815,844.017 1046.06,841.943 1115.31,842.643 1184.56,846.054 1253.8,852.069 1323.05,860.594 1392.3,871.594 1461.54,885.137 1530.79,901.522 1600.04,921.406 1669.29,945.686 1738.53,975.222 1807.78,1010.9 1877.03,1053.86 1946.28,1105.54 2015.52,1167.15 2084.77,1238.79 2154.02,1318.97 2223.26,1404.37 2292.51,1489.35 "></polyline>
<path clip-path="url(#clip820)" d="M1893.4 324.425 L2281.8 324.425 L2281.8 168.905 L1893.4 168.905  Z" fill="#ffffff" fill-rule="evenodd" fill-opacity="1"></path>
<polyline clip-path="url(#clip820)" style="stroke:#000000; stroke-linecap:round; stroke-linejoin:round; stroke-width:4; stroke-opacity:1; fill:none" points="1893.4,324.425 2281.8,324.425 2281.8,168.905 1893.4,168.905 1893.4,324.425 "></polyline>
<polyline clip-path="url(#clip820)" style="stroke:#009af9; stroke-linecap:round; stroke-linejoin:round; stroke-width:4; stroke-opacity:1; fill:none" points="1917.06,220.745 2058.97,220.745 "></polyline>
<path clip-path="url(#clip820)" d="M2097.8 216.08 Q2097.08 215.664 2096.23 215.478 Q2095.4 215.27 2094.38 215.27 Q2090.77 215.27 2088.82 217.631 Q2086.9 219.969 2086.9 224.367 L2086.9 238.025 L2082.62 238.025 L2082.62 212.099 L2086.9 212.099 L2086.9 216.127 Q2088.24 213.766 2090.4 212.631 Q2092.55 211.474 2095.63 211.474 Q2096.07 211.474 2096.6 211.543 Q2097.13 211.59 2097.78 211.705 L2097.8 216.08 Z" fill="#000000" fill-rule="nonzero" fill-opacity="1"></path><path clip-path="url(#clip820)" d="M2114.05 224.992 Q2108.89 224.992 2106.9 226.173 Q2104.91 227.353 2104.91 230.201 Q2104.91 232.469 2106.39 233.812 Q2107.9 235.131 2110.46 235.131 Q2114.01 235.131 2116.14 232.631 Q2118.29 230.108 2118.29 225.941 L2118.29 224.992 L2114.05 224.992 M2122.55 223.233 L2122.55 238.025 L2118.29 238.025 L2118.29 234.089 Q2116.83 236.451 2114.65 237.585 Q2112.48 238.696 2109.33 238.696 Q2105.35 238.696 2102.99 236.474 Q2100.65 234.228 2100.65 230.478 Q2100.65 226.103 2103.57 223.881 Q2106.51 221.659 2112.32 221.659 L2118.29 221.659 L2118.29 221.242 Q2118.29 218.303 2116.34 216.705 Q2114.42 215.085 2110.93 215.085 Q2108.71 215.085 2106.6 215.617 Q2104.49 216.15 2102.55 217.215 L2102.55 213.279 Q2104.89 212.377 2107.08 211.937 Q2109.28 211.474 2111.37 211.474 Q2116.99 211.474 2119.77 214.391 Q2122.55 217.307 2122.55 223.233 Z" fill="#000000" fill-rule="nonzero" fill-opacity="1"></path><path clip-path="url(#clip820)" d="M2152.87 222.377 L2152.87 238.025 L2148.61 238.025 L2148.61 222.515 Q2148.61 218.835 2147.18 217.006 Q2145.74 215.178 2142.87 215.178 Q2139.42 215.178 2137.43 217.377 Q2135.44 219.576 2135.44 223.372 L2135.44 238.025 L2131.16 238.025 L2131.16 212.099 L2135.44 212.099 L2135.44 216.127 Q2136.97 213.789 2139.03 212.631 Q2141.11 211.474 2143.82 211.474 Q2148.29 211.474 2150.58 214.252 Q2152.87 217.006 2152.87 222.377 Z" fill="#000000" fill-rule="nonzero" fill-opacity="1"></path><path clip-path="url(#clip820)" d="M2178.43 216.034 L2178.43 202.006 L2182.69 202.006 L2182.69 238.025 L2178.43 238.025 L2178.43 234.136 Q2177.08 236.451 2175.02 237.585 Q2172.99 238.696 2170.12 238.696 Q2165.42 238.696 2162.45 234.946 Q2159.52 231.196 2159.52 225.085 Q2159.52 218.974 2162.45 215.224 Q2165.42 211.474 2170.12 211.474 Q2172.99 211.474 2175.02 212.608 Q2177.08 213.719 2178.43 216.034 M2163.91 225.085 Q2163.91 229.784 2165.83 232.469 Q2167.78 235.131 2171.16 235.131 Q2174.54 235.131 2176.48 232.469 Q2178.43 229.784 2178.43 225.085 Q2178.43 220.386 2176.48 217.724 Q2174.54 215.039 2171.16 215.039 Q2167.78 215.039 2165.83 217.724 Q2163.91 220.386 2163.91 225.085 Z" fill="#000000" fill-rule="nonzero" fill-opacity="1"></path><path clip-path="url(#clip820)" d="M2201.51 215.085 Q2198.08 215.085 2196.09 217.77 Q2194.1 220.432 2194.1 225.085 Q2194.1 229.738 2196.07 232.423 Q2198.06 235.085 2201.51 235.085 Q2204.91 235.085 2206.9 232.4 Q2208.89 229.715 2208.89 225.085 Q2208.89 220.478 2206.9 217.793 Q2204.91 215.085 2201.51 215.085 M2201.51 211.474 Q2207.06 211.474 2210.23 215.085 Q2213.4 218.696 2213.4 225.085 Q2213.4 231.451 2210.23 235.085 Q2207.06 238.696 2201.51 238.696 Q2195.93 238.696 2192.76 235.085 Q2189.61 231.451 2189.61 225.085 Q2189.61 218.696 2192.76 215.085 Q2195.93 211.474 2201.51 211.474 Z" fill="#000000" fill-rule="nonzero" fill-opacity="1"></path><path clip-path="url(#clip820)" d="M2240.65 217.076 Q2242.25 214.205 2244.47 212.84 Q2246.69 211.474 2249.7 211.474 Q2253.75 211.474 2255.95 214.321 Q2258.15 217.145 2258.15 222.377 L2258.15 238.025 L2253.87 238.025 L2253.87 222.515 Q2253.87 218.789 2252.55 216.983 Q2251.23 215.178 2248.52 215.178 Q2245.21 215.178 2243.29 217.377 Q2241.37 219.576 2241.37 223.372 L2241.37 238.025 L2237.08 238.025 L2237.08 222.515 Q2237.08 218.765 2235.76 216.983 Q2234.45 215.178 2231.69 215.178 Q2228.43 215.178 2226.51 217.4 Q2224.58 219.599 2224.58 223.372 L2224.58 238.025 L2220.3 238.025 L2220.3 212.099 L2224.58 212.099 L2224.58 216.127 Q2226.04 213.742 2228.08 212.608 Q2230.12 211.474 2232.92 211.474 Q2235.74 211.474 2237.71 212.909 Q2239.7 214.344 2240.65 217.076 Z" fill="#000000" fill-rule="nonzero" fill-opacity="1"></path><polyline clip-path="url(#clip820)" style="stroke:#e26f46; stroke-linecap:round; stroke-linejoin:round; stroke-width:4; stroke-opacity:1; fill:none" points="1917.06,272.585 2058.97,272.585 "></polyline>
<path clip-path="url(#clip820)" d="M2101.04 264.703 L2101.04 268.731 Q2099.24 267.805 2097.29 267.342 Q2095.35 266.879 2093.27 266.879 Q2090.09 266.879 2088.5 267.851 Q2086.92 268.823 2086.92 270.768 Q2086.92 272.249 2088.06 273.105 Q2089.19 273.939 2092.62 274.703 L2094.08 275.027 Q2098.61 275.999 2100.51 277.781 Q2102.43 279.541 2102.43 282.712 Q2102.43 286.323 2099.56 288.429 Q2096.71 290.536 2091.71 290.536 Q2089.63 290.536 2087.36 290.119 Q2085.12 289.726 2082.62 288.916 L2082.62 284.517 Q2084.98 285.744 2087.27 286.369 Q2089.56 286.971 2091.81 286.971 Q2094.82 286.971 2096.44 285.953 Q2098.06 284.911 2098.06 283.036 Q2098.06 281.3 2096.88 280.374 Q2095.72 279.448 2091.76 278.592 L2090.28 278.244 Q2086.32 277.411 2084.56 275.698 Q2082.8 273.962 2082.8 270.953 Q2082.8 267.295 2085.4 265.305 Q2087.99 263.314 2092.76 263.314 Q2095.12 263.314 2097.2 263.661 Q2099.28 264.008 2101.04 264.703 Z" fill="#000000" fill-rule="nonzero" fill-opacity="1"></path><path clip-path="url(#clip820)" d="M2129.4 268.916 Q2131 266.045 2133.22 264.68 Q2135.44 263.314 2138.45 263.314 Q2142.5 263.314 2144.7 266.161 Q2146.9 268.985 2146.9 274.217 L2146.9 289.865 L2142.62 289.865 L2142.62 274.355 Q2142.62 270.629 2141.3 268.823 Q2139.98 267.018 2137.27 267.018 Q2133.96 267.018 2132.04 269.217 Q2130.12 271.416 2130.12 275.212 L2130.12 289.865 L2125.83 289.865 L2125.83 274.355 Q2125.83 270.605 2124.52 268.823 Q2123.2 267.018 2120.44 267.018 Q2117.18 267.018 2115.26 269.24 Q2113.33 271.439 2113.33 275.212 L2113.33 289.865 L2109.05 289.865 L2109.05 263.939 L2113.33 263.939 L2113.33 267.967 Q2114.79 265.582 2116.83 264.448 Q2118.87 263.314 2121.67 263.314 Q2124.49 263.314 2126.46 264.749 Q2128.45 266.184 2129.4 268.916 Z" fill="#000000" fill-rule="nonzero" fill-opacity="1"></path><path clip-path="url(#clip820)" d="M2165.44 266.925 Q2162.02 266.925 2160.02 269.61 Q2158.03 272.272 2158.03 276.925 Q2158.03 281.578 2160 284.263 Q2161.99 286.925 2165.44 286.925 Q2168.84 286.925 2170.83 284.24 Q2172.83 281.555 2172.83 276.925 Q2172.83 272.318 2170.83 269.633 Q2168.84 266.925 2165.44 266.925 M2165.44 263.314 Q2171 263.314 2174.17 266.925 Q2177.34 270.536 2177.34 276.925 Q2177.34 283.291 2174.17 286.925 Q2171 290.536 2165.44 290.536 Q2159.86 290.536 2156.69 286.925 Q2153.54 283.291 2153.54 276.925 Q2153.54 270.536 2156.69 266.925 Q2159.86 263.314 2165.44 263.314 Z" fill="#000000" fill-rule="nonzero" fill-opacity="1"></path><path clip-path="url(#clip820)" d="M2194.45 266.925 Q2191.02 266.925 2189.03 269.61 Q2187.04 272.272 2187.04 276.925 Q2187.04 281.578 2189.01 284.263 Q2191 286.925 2194.45 286.925 Q2197.85 286.925 2199.84 284.24 Q2201.83 281.555 2201.83 276.925 Q2201.83 272.318 2199.84 269.633 Q2197.85 266.925 2194.45 266.925 M2194.45 263.314 Q2200 263.314 2203.17 266.925 Q2206.34 270.536 2206.34 276.925 Q2206.34 283.291 2203.17 286.925 Q2200 290.536 2194.45 290.536 Q2188.87 290.536 2185.7 286.925 Q2182.55 283.291 2182.55 276.925 Q2182.55 270.536 2185.7 266.925 Q2188.87 263.314 2194.45 263.314 Z" fill="#000000" fill-rule="nonzero" fill-opacity="1"></path><path clip-path="url(#clip820)" d="M2217.62 256.578 L2217.62 263.939 L2226.39 263.939 L2226.39 267.249 L2217.62 267.249 L2217.62 281.323 Q2217.62 284.494 2218.47 285.397 Q2219.35 286.3 2222.01 286.3 L2226.39 286.3 L2226.39 289.865 L2222.01 289.865 Q2217.08 289.865 2215.21 288.036 Q2213.33 286.184 2213.33 281.323 L2213.33 267.249 L2210.21 267.249 L2210.21 263.939 L2213.33 263.939 L2213.33 256.578 L2217.62 256.578 Z" fill="#000000" fill-rule="nonzero" fill-opacity="1"></path><path clip-path="url(#clip820)" d="M2253.54 274.217 L2253.54 289.865 L2249.28 289.865 L2249.28 274.355 Q2249.28 270.675 2247.85 268.846 Q2246.41 267.018 2243.54 267.018 Q2240.09 267.018 2238.1 269.217 Q2236.11 271.416 2236.11 275.212 L2236.11 289.865 L2231.83 289.865 L2231.83 253.846 L2236.11 253.846 L2236.11 267.967 Q2237.64 265.629 2239.7 264.471 Q2241.78 263.314 2244.49 263.314 Q2248.96 263.314 2251.25 266.092 Q2253.54 268.846 2253.54 274.217 Z" fill="#000000" fill-rule="nonzero" fill-opacity="1"></path></svg>