<svg xmlns="http://www.w3.org/2000/svg" xmlns:xlink="http://www.w3.org/1999/xlink" width="600" height="400" viewBox="0 0 2400 1600">
<defs>
  <clipPath id="clip060">
    <rect x="0" y="0" width="2400" height="1600"></rect>
  </clipPath>
</defs>
<path clip-path="url(#clip060)" d="M0 1600 L2400 1600 L2400 0 L0 0  Z" fill="#ffffff" fill-rule="evenodd" fill-opacity="1"></path>
<defs>
  <clipPath id="clip061">
    <rect x="480" y="0" width="1681" height="1600"></rect>
  </clipPath>
</defs>
<path clip-path="url(#clip060)" d="M224.098 1486.45 L2352.76 1486.45 L2352.76 123.472 L224.098 123.472  Z" fill="#ffffff" fill-rule="evenodd" fill-opacity="1"></path>
<defs>
  <clipPath id="clip062">
    <rect x="224" y="123" width="2130" height="1364"></rect>
  </clipPath>
</defs>
<polyline clip-path="url(#clip062)" style="stroke:#000000; stroke-linecap:round; stroke-linejoin:round; stroke-width:2; stroke-opacity:0.1; fill:none" points="561.332,1486.45 561.332,123.472 "></polyline>
<polyline clip-path="url(#clip062)" style="stroke:#000000; stroke-linecap:round; stroke-linejoin:round; stroke-width:2; stroke-opacity:0.1; fill:none" points="907.567,1486.45 907.567,123.472 "></polyline>
<polyline clip-path="url(#clip062)" style="stroke:#000000; stroke-linecap:round; stroke-linejoin:round; stroke-width:2; stroke-opacity:0.1; fill:none" points="1253.8,1486.45 1253.8,123.472 "></polyline>
<polyline clip-path="url(#clip062)" style="stroke:#000000; stroke-linecap:round; stroke-linejoin:round; stroke-width:2; stroke-opacity:0.1; fill:none" points="1600.04,1486.45 1600.04,123.472 "></polyline>
<polyline clip-path="url(#clip062)" style="stroke:#000000; stroke-linecap:round; stroke-linejoin:round; stroke-width:2; stroke-opacity:0.1; fill:none" points="1946.28,1486.45 1946.28,123.472 "></polyline>
<polyline clip-path="url(#clip062)" style="stroke:#000000; stroke-linecap:round; stroke-linejoin:round; stroke-width:2; stroke-opacity:0.1; fill:none" points="2292.51,1486.45 2292.51,123.472 "></polyline>
<polyline clip-path="url(#clip060)" style="stroke:#000000; stroke-linecap:round; stroke-linejoin:round; stroke-width:4; stroke-opacity:1; fill:none" points="224.098,1486.45 2352.76,1486.45 "></polyline>
<polyline clip-path="url(#clip060)" style="stroke:#000000; stroke-linecap:round; stroke-linejoin:round; stroke-width:4; stroke-opacity:1; fill:none" points="561.332,1486.45 561.332,1467.55 "></polyline>
<polyline clip-path="url(#clip060)" style="stroke:#000000; stroke-linecap:round; stroke-linejoin:round; stroke-width:4; stroke-opacity:1; fill:none" points="907.567,1486.45 907.567,1467.55 "></polyline>
<polyline clip-path="url(#clip060)" style="stroke:#000000; stroke-linecap:round; stroke-linejoin:round; stroke-width:4; stroke-opacity:1; fill:none" points="1253.8,1486.45 1253.8,1467.55 "></polyline>
<polyline clip-path="url(#clip060)" style="stroke:#000000; stroke-linecap:round; stroke-linejoin:round; stroke-width:4; stroke-opacity:1; fill:none" points="1600.04,1486.45 1600.04,1467.55 "></polyline>
<polyline clip-path="url(#clip060)" style="stroke:#000000; stroke-linecap:round; stroke-linejoin:round; stroke-width:4; stroke-opacity:1; fill:none" points="1946.28,1486.45 1946.28,1467.55 "></polyline>
<polyline clip-path="url(#clip060)" style="stroke:#000000; stroke-linecap:round; stroke-linejoin:round; stroke-width:4; stroke-opacity:1; fill:none" points="2292.51,1486.45 2292.51,1467.55 "></polyline>
<path clip-path="url(#clip060)" d="M551.609 1514.29 L569.966 1514.29 L569.966 1518.22 L555.892 1518.22 L555.892 1526.7 Q556.91 1526.35 557.929 1526.19 Q558.947 1526 559.966 1526 Q565.753 1526 569.132 1529.17 Q572.512 1532.34 572.512 1537.76 Q572.512 1543.34 569.04 1546.44 Q565.568 1549.52 559.248 1549.52 Q557.072 1549.52 554.804 1549.15 Q552.558 1548.78 550.151 1548.04 L550.151 1543.34 Q552.234 1544.47 554.457 1545.03 Q556.679 1545.58 559.156 1545.58 Q563.16 1545.58 565.498 1543.48 Q567.836 1541.37 567.836 1537.76 Q567.836 1534.15 565.498 1532.04 Q563.16 1529.94 559.156 1529.94 Q557.281 1529.94 555.406 1530.35 Q553.554 1530.77 551.609 1531.65 L551.609 1514.29 Z" fill="#000000" fill-rule="nonzero" fill-opacity="1"></path><path clip-path="url(#clip060)" d="M882.255 1544.91 L889.894 1544.91 L889.894 1518.55 L881.584 1520.21 L881.584 1515.95 L889.848 1514.29 L894.524 1514.29 L894.524 1544.91 L902.162 1544.91 L902.162 1548.85 L882.255 1548.85 L882.255 1544.91 Z" fill="#000000" fill-rule="nonzero" fill-opacity="1"></path><path clip-path="url(#clip060)" d="M921.607 1517.37 Q917.996 1517.37 916.167 1520.93 Q914.361 1524.47 914.361 1531.6 Q914.361 1538.71 916.167 1542.27 Q917.996 1545.82 921.607 1545.82 Q925.241 1545.82 927.047 1542.27 Q928.875 1538.71 928.875 1531.6 Q928.875 1524.47 927.047 1520.93 Q925.241 1517.37 921.607 1517.37 M921.607 1513.66 Q927.417 1513.66 930.472 1518.27 Q933.551 1522.85 933.551 1531.6 Q933.551 1540.33 930.472 1544.94 Q927.417 1549.52 921.607 1549.52 Q915.797 1549.52 912.718 1544.94 Q909.662 1540.33 909.662 1531.6 Q909.662 1522.85 912.718 1518.27 Q915.797 1513.66 921.607 1513.66 Z" fill="#000000" fill-rule="nonzero" fill-opacity="1"></path><path clip-path="url(#clip060)" d="M1228.99 1544.91 L1236.63 1544.91 L1236.63 1518.55 L1228.32 1520.21 L1228.32 1515.95 L1236.58 1514.29 L1241.26 1514.29 L1241.26 1544.91 L1248.9 1544.91 L1248.9 1548.85 L1228.99 1548.85 L1228.99 1544.91 Z" fill="#000000" fill-rule="nonzero" fill-opacity="1"></path><path clip-path="url(#clip060)" d="M1258.39 1514.29 L1276.74 1514.29 L1276.74 1518.22 L1262.67 1518.22 L1262.67 1526.7 Q1263.69 1526.35 1264.71 1526.19 Q1265.72 1526 1266.74 1526 Q1272.53 1526 1275.91 1529.17 Q1279.29 1532.34 1279.29 1537.76 Q1279.29 1543.34 1275.82 1546.44 Q1272.34 1549.52 1266.03 1549.52 Q1263.85 1549.52 1261.58 1549.15 Q1259.34 1548.78 1256.93 1548.04 L1256.93 1543.34 Q1259.01 1544.47 1261.23 1545.03 Q1263.46 1545.58 1265.93 1545.58 Q1269.94 1545.58 1272.28 1543.48 Q1274.61 1541.37 1274.61 1537.76 Q1274.61 1534.15 1272.28 1532.04 Q1269.94 1529.94 1265.93 1529.94 Q1264.06 1529.94 1262.18 1530.35 Q1260.33 1530.77 1258.39 1531.65 L1258.39 1514.29 Z" fill="#000000" fill-rule="nonzero" fill-opacity="1"></path><path clip-path="url(#clip060)" d="M1578.81 1544.91 L1595.13 1544.91 L1595.13 1548.85 L1573.19 1548.85 L1573.19 1544.91 Q1575.85 1542.16 1580.43 1537.53 Q1585.04 1532.88 1586.22 1531.53 Q1588.47 1529.01 1589.34 1527.27 Q1590.25 1525.51 1590.25 1523.82 Q1590.25 1521.07 1588.3 1519.33 Q1586.38 1517.6 1583.28 1517.6 Q1581.08 1517.6 1578.63 1518.36 Q1576.2 1519.13 1573.42 1520.68 L1573.42 1515.95 Q1576.24 1514.82 1578.7 1514.24 Q1581.15 1513.66 1583.19 1513.66 Q1588.56 1513.66 1591.75 1516.35 Q1594.95 1519.03 1594.95 1523.52 Q1594.95 1525.65 1594.14 1527.57 Q1593.35 1529.47 1591.24 1532.07 Q1590.66 1532.74 1587.56 1535.95 Q1584.46 1539.15 1578.81 1544.91 Z" fill="#000000" fill-rule="nonzero" fill-opacity="1"></path><path clip-path="url(#clip060)" d="M1614.95 1517.37 Q1611.34 1517.37 1609.51 1520.93 Q1607.7 1524.47 1607.7 1531.6 Q1607.7 1538.71 1609.51 1542.27 Q1611.34 1545.82 1614.95 1545.82 Q1618.58 1545.82 1620.39 1542.27 Q1622.21 1538.71 1622.21 1531.6 Q1622.21 1524.47 1620.39 1520.93 Q1618.58 1517.37 1614.95 1517.37 M1614.95 1513.66 Q1620.76 1513.66 1623.81 1518.27 Q1626.89 1522.85 1626.89 1531.6 Q1626.89 1540.33 1623.81 1544.94 Q1620.76 1549.52 1614.95 1549.52 Q1609.14 1549.52 1606.06 1544.94 Q1603 1540.33 1603 1531.6 Q1603 1522.85 1606.06 1518.27 Q1609.14 1513.66 1614.95 1513.66 Z" fill="#000000" fill-rule="nonzero" fill-opacity="1"></path><path clip-path="url(#clip060)" d="M1925.55 1544.91 L1941.87 1544.91 L1941.87 1548.85 L1919.92 1548.85 L1919.92 1544.91 Q1922.58 1542.16 1927.17 1537.53 Q1931.77 1532.88 1932.95 1531.53 Q1935.2 1529.01 1936.08 1527.27 Q1936.98 1525.51 1936.98 1523.82 Q1936.98 1521.07 1935.04 1519.33 Q1933.12 1517.6 1930.01 1517.6 Q1927.81 1517.6 1925.36 1518.36 Q1922.93 1519.13 1920.15 1520.68 L1920.15 1515.95 Q1922.98 1514.82 1925.43 1514.24 Q1927.88 1513.66 1929.92 1513.66 Q1935.29 1513.66 1938.49 1516.35 Q1941.68 1519.03 1941.68 1523.52 Q1941.68 1525.65 1940.87 1527.57 Q1940.08 1529.47 1937.98 1532.07 Q1937.4 1532.74 1934.3 1535.95 Q1931.19 1539.15 1925.55 1544.91 Z" fill="#000000" fill-rule="nonzero" fill-opacity="1"></path><path clip-path="url(#clip060)" d="M1951.73 1514.29 L1970.08 1514.29 L1970.08 1518.22 L1956.01 1518.22 L1956.01 1526.7 Q1957.03 1526.35 1958.05 1526.19 Q1959.06 1526 1960.08 1526 Q1965.87 1526 1969.25 1529.17 Q1972.63 1532.34 1972.63 1537.76 Q1972.63 1543.34 1969.16 1546.44 Q1965.68 1549.52 1959.37 1549.52 Q1957.19 1549.52 1954.92 1549.15 Q1952.68 1548.78 1950.27 1548.04 L1950.27 1543.34 Q1952.35 1544.47 1954.57 1545.03 Q1956.8 1545.58 1959.27 1545.58 Q1963.28 1545.58 1965.62 1543.48 Q1967.95 1541.37 1967.95 1537.76 Q1967.95 1534.15 1965.62 1532.04 Q1963.28 1529.94 1959.27 1529.94 Q1957.4 1529.94 1955.52 1530.35 Q1953.67 1530.77 1951.73 1531.65 L1951.73 1514.29 Z" fill="#000000" fill-rule="nonzero" fill-opacity="1"></path><path clip-path="url(#clip060)" d="M2281.35 1530.21 Q2284.71 1530.93 2286.58 1533.2 Q2288.48 1535.47 2288.48 1538.8 Q2288.48 1543.92 2284.96 1546.72 Q2281.45 1549.52 2274.96 1549.52 Q2272.79 1549.52 2270.47 1549.08 Q2268.18 1548.66 2265.73 1547.81 L2265.73 1543.29 Q2267.67 1544.43 2269.99 1545.01 Q2272.3 1545.58 2274.83 1545.58 Q2279.22 1545.58 2281.52 1543.85 Q2283.83 1542.11 2283.83 1538.8 Q2283.83 1535.75 2281.68 1534.03 Q2279.55 1532.3 2275.73 1532.3 L2271.7 1532.3 L2271.7 1528.45 L2275.91 1528.45 Q2279.36 1528.45 2281.19 1527.09 Q2283.02 1525.7 2283.02 1523.11 Q2283.02 1520.45 2281.12 1519.03 Q2279.25 1517.6 2275.73 1517.6 Q2273.81 1517.6 2271.61 1518.01 Q2269.41 1518.43 2266.77 1519.31 L2266.77 1515.14 Q2269.43 1514.4 2271.75 1514.03 Q2274.09 1513.66 2276.15 1513.66 Q2281.47 1513.66 2284.57 1516.09 Q2287.67 1518.5 2287.67 1522.62 Q2287.67 1525.49 2286.03 1527.48 Q2284.39 1529.45 2281.35 1530.21 Z" fill="#000000" fill-rule="nonzero" fill-opacity="1"></path><path clip-path="url(#clip060)" d="M2307.35 1517.37 Q2303.74 1517.37 2301.91 1520.93 Q2300.1 1524.47 2300.1 1531.6 Q2300.1 1538.71 2301.91 1542.27 Q2303.74 1545.82 2307.35 1545.82 Q2310.98 1545.82 2312.79 1542.27 Q2314.62 1538.71 2314.62 1531.6 Q2314.62 1524.47 2312.79 1520.93 Q2310.98 1517.37 2307.35 1517.37 M2307.35 1513.66 Q2313.16 1513.66 2316.21 1518.27 Q2319.29 1522.85 2319.29 1531.6 Q2319.29 1540.33 2316.21 1544.94 Q2313.16 1549.52 2307.35 1549.52 Q2301.54 1549.52 2298.46 1544.94 Q2295.4 1540.33 2295.4 1531.6 Q2295.4 1522.85 2298.46 1518.27 Q2301.54 1513.66 2307.35 1513.66 Z" fill="#000000" fill-rule="nonzero" fill-opacity="1"></path><polyline clip-path="url(#clip062)" style="stroke:#000000; stroke-linecap:round; stroke-linejoin:round; stroke-width:2; stroke-opacity:0.1; fill:none" points="224.098,1486.45 2352.76,1486.45 "></polyline>
<polyline clip-path="url(#clip062)" style="stroke:#000000; stroke-linecap:round; stroke-linejoin:round; stroke-width:2; stroke-opacity:0.1; fill:none" points="224.098,1145.7 2352.76,1145.7 "></polyline>
<polyline clip-path="url(#clip062)" style="stroke:#000000; stroke-linecap:round; stroke-linejoin:round; stroke-width:2; stroke-opacity:0.1; fill:none" points="224.098,804.96 2352.76,804.96 "></polyline>
<polyline clip-path="url(#clip062)" style="stroke:#000000; stroke-linecap:round; stroke-linejoin:round; stroke-width:2; stroke-opacity:0.1; fill:none" points="224.098,464.216 2352.76,464.216 "></polyline>
<polyline clip-path="url(#clip062)" style="stroke:#000000; stroke-linecap:round; stroke-linejoin:round; stroke-width:2; stroke-opacity:0.1; fill:none" points="224.098,123.472 2352.76,123.472 "></polyline>
<polyline clip-path="url(#clip060)" style="stroke:#000000; stroke-linecap:round; stroke-linejoin:round; stroke-width:4; stroke-opacity:1; fill:none" points="224.098,1486.45 224.098,123.472 "></polyline>
<polyline clip-path="url(#clip060)" style="stroke:#000000; stroke-linecap:round; stroke-linejoin:round; stroke-width:4; stroke-opacity:1; fill:none" points="224.098,1486.45 242.996,1486.45 "></polyline>
<polyline clip-path="url(#clip060)" style="stroke:#000000; stroke-linecap:round; stroke-linejoin:round; stroke-width:4; stroke-opacity:1; fill:none" points="224.098,1145.7 242.996,1145.7 "></polyline>
<polyline clip-path="url(#clip060)" style="stroke:#000000; stroke-linecap:round; stroke-linejoin:round; stroke-width:4; stroke-opacity:1; fill:none" points="224.098,804.96 242.996,804.96 "></polyline>
<polyline clip-path="url(#clip060)" style="stroke:#000000; stroke-linecap:round; stroke-linejoin:round; stroke-width:4; stroke-opacity:1; fill:none" points="224.098,464.216 242.996,464.216 "></polyline>
<polyline clip-path="url(#clip060)" style="stroke:#000000; stroke-linecap:round; stroke-linejoin:round; stroke-width:4; stroke-opacity:1; fill:none" points="224.098,123.472 242.996,123.472 "></polyline>
<path clip-path="url(#clip060)" d="M50.9921 1486.9 L80.6679 1486.9 L80.6679 1490.83 L50.9921 1490.83 L50.9921 1486.9 Z" fill="#000000" fill-rule="nonzero" fill-opacity="1"></path><path clip-path="url(#clip060)" d="M100.76 1472.25 Q97.1493 1472.25 95.3206 1475.81 Q93.515 1479.35 93.515 1486.48 Q93.515 1493.59 95.3206 1497.15 Q97.1493 1500.7 100.76 1500.7 Q104.395 1500.7 106.2 1497.15 Q108.029 1493.59 108.029 1486.48 Q108.029 1479.35 106.2 1475.81 Q104.395 1472.25 100.76 1472.25 M100.76 1468.54 Q106.571 1468.54 109.626 1473.15 Q112.705 1477.73 112.705 1486.48 Q112.705 1495.21 109.626 1499.82 Q106.571 1504.4 100.76 1504.4 Q94.9502 1504.4 91.8715 1499.82 Q88.816 1495.21 88.816 1486.48 Q88.816 1477.73 91.8715 1473.15 Q94.9502 1468.54 100.76 1468.54 Z" fill="#000000" fill-rule="nonzero" fill-opacity="1"></path><path clip-path="url(#clip060)" d="M120.922 1497.85 L125.807 1497.85 L125.807 1503.73 L120.922 1503.73 L120.922 1497.85 Z" fill="#000000" fill-rule="nonzero" fill-opacity="1"></path><path clip-path="url(#clip060)" d="M136.038 1469.17 L154.394 1469.17 L154.394 1473.1 L140.32 1473.1 L140.32 1481.58 Q141.339 1481.23 142.357 1481.07 Q143.376 1480.88 144.394 1480.88 Q150.181 1480.88 153.561 1484.05 Q156.941 1487.22 156.941 1492.64 Q156.941 1498.22 153.468 1501.32 Q149.996 1504.4 143.677 1504.4 Q141.501 1504.4 139.232 1504.03 Q136.987 1503.66 134.58 1502.92 L134.58 1498.22 Q136.663 1499.35 138.885 1499.91 Q141.107 1500.46 143.584 1500.46 Q147.589 1500.46 149.927 1498.36 Q152.265 1496.25 152.265 1492.64 Q152.265 1489.03 149.927 1486.92 Q147.589 1484.82 143.584 1484.82 Q141.709 1484.82 139.834 1485.23 Q137.982 1485.65 136.038 1486.53 L136.038 1469.17 Z" fill="#000000" fill-rule="nonzero" fill-opacity="1"></path><path clip-path="url(#clip060)" d="M176.153 1472.25 Q172.542 1472.25 170.714 1475.81 Q168.908 1479.35 168.908 1486.48 Q168.908 1493.59 170.714 1497.15 Q172.542 1500.7 176.153 1500.7 Q179.788 1500.7 181.593 1497.15 Q183.422 1493.59 183.422 1486.48 Q183.422 1479.35 181.593 1475.81 Q179.788 1472.25 176.153 1472.25 M176.153 1468.54 Q181.964 1468.54 185.019 1473.15 Q188.098 1477.73 188.098 1486.48 Q188.098 1495.21 185.019 1499.82 Q181.964 1504.4 176.153 1504.4 Q170.343 1504.4 167.265 1499.82 Q164.209 1495.21 164.209 1486.48 Q164.209 1477.73 167.265 1473.15 Q170.343 1468.54 176.153 1468.54 Z" fill="#000000" fill-rule="nonzero" fill-opacity="1"></path><path clip-path="url(#clip060)" d="M51.9875 1146.16 L81.6633 1146.16 L81.6633 1150.09 L51.9875 1150.09 L51.9875 1146.16 Z" fill="#000000" fill-rule="nonzero" fill-opacity="1"></path><path clip-path="url(#clip060)" d="M101.756 1131.5 Q98.1447 1131.5 96.316 1135.07 Q94.5104 1138.61 94.5104 1145.74 Q94.5104 1152.85 96.316 1156.41 Q98.1447 1159.95 101.756 1159.95 Q105.39 1159.95 107.196 1156.41 Q109.024 1152.85 109.024 1145.74 Q109.024 1138.61 107.196 1135.07 Q105.39 1131.5 101.756 1131.5 M101.756 1127.8 Q107.566 1127.8 110.621 1132.41 Q113.7 1136.99 113.7 1145.74 Q113.7 1154.47 110.621 1159.07 Q107.566 1163.66 101.756 1163.66 Q95.9456 1163.66 92.8669 1159.07 Q89.8114 1154.47 89.8114 1145.74 Q89.8114 1136.99 92.8669 1132.41 Q95.9456 1127.8 101.756 1127.8 Z" fill="#000000" fill-rule="nonzero" fill-opacity="1"></path><path clip-path="url(#clip060)" d="M121.918 1157.1 L126.802 1157.1 L126.802 1162.98 L121.918 1162.98 L121.918 1157.1 Z" fill="#000000" fill-rule="nonzero" fill-opacity="1"></path><path clip-path="url(#clip060)" d="M141.015 1159.05 L157.334 1159.05 L157.334 1162.98 L135.39 1162.98 L135.39 1159.05 Q138.052 1156.29 142.635 1151.66 Q147.242 1147.01 148.422 1145.67 Q150.668 1143.15 151.547 1141.41 Q152.45 1139.65 152.45 1137.96 Q152.45 1135.21 150.505 1133.47 Q148.584 1131.73 145.482 1131.73 Q143.283 1131.73 140.83 1132.5 Q138.399 1133.26 135.621 1134.81 L135.621 1130.09 Q138.445 1128.96 140.899 1128.38 Q143.353 1127.8 145.39 1127.8 Q150.76 1127.8 153.955 1130.48 Q157.149 1133.17 157.149 1137.66 Q157.149 1139.79 156.339 1141.71 Q155.552 1143.61 153.445 1146.2 Q152.867 1146.87 149.765 1150.09 Q146.663 1153.28 141.015 1159.05 Z" fill="#000000" fill-rule="nonzero" fill-opacity="1"></path><path clip-path="url(#clip060)" d="M167.195 1128.42 L185.552 1128.42 L185.552 1132.36 L171.478 1132.36 L171.478 1140.83 Q172.496 1140.48 173.515 1140.32 Q174.533 1140.14 175.552 1140.14 Q181.339 1140.14 184.718 1143.31 Q188.098 1146.48 188.098 1151.9 Q188.098 1157.47 184.626 1160.58 Q181.153 1163.66 174.834 1163.66 Q172.658 1163.66 170.39 1163.28 Q168.144 1162.91 165.737 1162.17 L165.737 1157.47 Q167.82 1158.61 170.042 1159.16 Q172.265 1159.72 174.741 1159.72 Q178.746 1159.72 181.084 1157.61 Q183.422 1155.51 183.422 1151.9 Q183.422 1148.28 181.084 1146.18 Q178.746 1144.07 174.741 1144.07 Q172.866 1144.07 170.991 1144.49 Q169.14 1144.91 167.195 1145.78 L167.195 1128.42 Z" fill="#000000" fill-rule="nonzero" fill-opacity="1"></path><path clip-path="url(#clip060)" d="M100.76 790.759 Q97.1493 790.759 95.3206 794.323 Q93.515 797.865 93.515 804.995 Q93.515 812.101 95.3206 815.666 Q97.1493 819.208 100.76 819.208 Q104.395 819.208 106.2 815.666 Q108.029 812.101 108.029 804.995 Q108.029 797.865 106.2 794.323 Q104.395 790.759 100.76 790.759 M100.76 787.055 Q106.571 787.055 109.626 791.661 Q112.705 796.245 112.705 804.995 Q112.705 813.722 109.626 818.328 Q106.571 822.911 100.76 822.911 Q94.9502 822.911 91.8715 818.328 Q88.816 813.722 88.816 804.995 Q88.816 796.245 91.8715 791.661 Q94.9502 787.055 100.76 787.055 Z" fill="#000000" fill-rule="nonzero" fill-opacity="1"></path><path clip-path="url(#clip060)" d="M120.922 816.36 L125.807 816.36 L125.807 822.24 L120.922 822.24 L120.922 816.36 Z" fill="#000000" fill-rule="nonzero" fill-opacity="1"></path><path clip-path="url(#clip060)" d="M145.992 790.759 Q142.381 790.759 140.552 794.323 Q138.746 797.865 138.746 804.995 Q138.746 812.101 140.552 815.666 Q142.381 819.208 145.992 819.208 Q149.626 819.208 151.431 815.666 Q153.26 812.101 153.26 804.995 Q153.26 797.865 151.431 794.323 Q149.626 790.759 145.992 790.759 M145.992 787.055 Q151.802 787.055 154.857 791.661 Q157.936 796.245 157.936 804.995 Q157.936 813.722 154.857 818.328 Q151.802 822.911 145.992 822.911 Q140.181 822.911 137.103 818.328 Q134.047 813.722 134.047 804.995 Q134.047 796.245 137.103 791.661 Q140.181 787.055 145.992 787.055 Z" fill="#000000" fill-rule="nonzero" fill-opacity="1"></path><path clip-path="url(#clip060)" d="M176.153 790.759 Q172.542 790.759 170.714 794.323 Q168.908 797.865 168.908 804.995 Q168.908 812.101 170.714 815.666 Q172.542 819.208 176.153 819.208 Q179.788 819.208 181.593 815.666 Q183.422 812.101 183.422 804.995 Q183.422 797.865 181.593 794.323 Q179.788 790.759 176.153 790.759 M176.153 787.055 Q181.964 787.055 185.019 791.661 Q188.098 796.245 188.098 804.995 Q188.098 813.722 185.019 818.328 Q181.964 822.911 176.153 822.911 Q170.343 822.911 167.265 818.328 Q164.209 813.722 164.209 804.995 Q164.209 796.245 167.265 791.661 Q170.343 787.055 176.153 787.055 Z" fill="#000000" fill-rule="nonzero" fill-opacity="1"></path><path clip-path="url(#clip060)" d="M101.756 450.015 Q98.1447 450.015 96.316 453.58 Q94.5104 457.121 94.5104 464.251 Q94.5104 471.357 96.316 474.922 Q98.1447 478.464 101.756 478.464 Q105.39 478.464 107.196 474.922 Q109.024 471.357 109.024 464.251 Q109.024 457.121 107.196 453.58 Q105.39 450.015 101.756 450.015 M101.756 446.311 Q107.566 446.311 110.621 450.918 Q113.7 455.501 113.7 464.251 Q113.7 472.978 110.621 477.584 Q107.566 482.167 101.756 482.167 Q95.9456 482.167 92.8669 477.584 Q89.8114 472.978 89.8114 464.251 Q89.8114 455.501 92.8669 450.918 Q95.9456 446.311 101.756 446.311 Z" fill="#000000" fill-rule="nonzero" fill-opacity="1"></path><path clip-path="url(#clip060)" d="M121.918 475.616 L126.802 475.616 L126.802 481.496 L121.918 481.496 L121.918 475.616 Z" fill="#000000" fill-rule="nonzero" fill-opacity="1"></path><path clip-path="url(#clip060)" d="M141.015 477.561 L157.334 477.561 L157.334 481.496 L135.39 481.496 L135.39 477.561 Q138.052 474.806 142.635 470.177 Q147.242 465.524 148.422 464.181 Q150.668 461.658 151.547 459.922 Q152.45 458.163 152.45 456.473 Q152.45 453.718 150.505 451.982 Q148.584 450.246 145.482 450.246 Q143.283 450.246 140.83 451.01 Q138.399 451.774 135.621 453.325 L135.621 448.603 Q138.445 447.468 140.899 446.89 Q143.353 446.311 145.39 446.311 Q150.76 446.311 153.955 448.996 Q157.149 451.681 157.149 456.172 Q157.149 458.302 156.339 460.223 Q155.552 462.121 153.445 464.714 Q152.867 465.385 149.765 468.603 Q146.663 471.797 141.015 477.561 Z" fill="#000000" fill-rule="nonzero" fill-opacity="1"></path><path clip-path="url(#clip060)" d="M167.195 446.936 L185.552 446.936 L185.552 450.871 L171.478 450.871 L171.478 459.343 Q172.496 458.996 173.515 458.834 Q174.533 458.649 175.552 458.649 Q181.339 458.649 184.718 461.82 Q188.098 464.992 188.098 470.408 Q188.098 475.987 184.626 479.089 Q181.153 482.167 174.834 482.167 Q172.658 482.167 170.39 481.797 Q168.144 481.427 165.737 480.686 L165.737 475.987 Q167.82 477.121 170.042 477.677 Q172.265 478.232 174.741 478.232 Q178.746 478.232 181.084 476.126 Q183.422 474.019 183.422 470.408 Q183.422 466.797 181.084 464.691 Q178.746 462.584 174.741 462.584 Q172.866 462.584 170.991 463.001 Q169.14 463.417 167.195 464.297 L167.195 446.936 Z" fill="#000000" fill-rule="nonzero" fill-opacity="1"></path><path clip-path="url(#clip060)" d="M100.76 109.271 Q97.1493 109.271 95.3206 112.836 Q93.515 116.377 93.515 123.507 Q93.515 130.613 95.3206 134.178 Q97.1493 137.72 100.76 137.72 Q104.395 137.72 106.2 134.178 Q108.029 130.613 108.029 123.507 Q108.029 116.377 106.2 112.836 Q104.395 109.271 100.76 109.271 M100.76 105.567 Q106.571 105.567 109.626 110.174 Q112.705 114.757 112.705 123.507 Q112.705 132.234 109.626 136.84 Q106.571 141.423 100.76 141.423 Q94.9502 141.423 91.8715 136.84 Q88.816 132.234 88.816 123.507 Q88.816 114.757 91.8715 110.174 Q94.9502 105.567 100.76 105.567 Z" fill="#000000" fill-rule="nonzero" fill-opacity="1"></path><path clip-path="url(#clip060)" d="M120.922 134.873 L125.807 134.873 L125.807 140.752 L120.922 140.752 L120.922 134.873 Z" fill="#000000" fill-rule="nonzero" fill-opacity="1"></path><path clip-path="url(#clip060)" d="M136.038 106.192 L154.394 106.192 L154.394 110.127 L140.32 110.127 L140.32 118.599 Q141.339 118.252 142.357 118.09 Q143.376 117.905 144.394 117.905 Q150.181 117.905 153.561 121.076 Q156.941 124.248 156.941 129.664 Q156.941 135.243 153.468 138.345 Q149.996 141.423 143.677 141.423 Q141.501 141.423 139.232 141.053 Q136.987 140.683 134.58 139.942 L134.58 135.243 Q136.663 136.377 138.885 136.933 Q141.107 137.488 143.584 137.488 Q147.589 137.488 149.927 135.382 Q152.265 133.275 152.265 129.664 Q152.265 126.053 149.927 123.947 Q147.589 121.84 143.584 121.84 Q141.709 121.84 139.834 122.257 Q137.982 122.674 136.038 123.553 L136.038 106.192 Z" fill="#000000" fill-rule="nonzero" fill-opacity="1"></path><path clip-path="url(#clip060)" d="M176.153 109.271 Q172.542 109.271 170.714 112.836 Q168.908 116.377 168.908 123.507 Q168.908 130.613 170.714 134.178 Q172.542 137.72 176.153 137.72 Q179.788 137.72 181.593 134.178 Q183.422 130.613 183.422 123.507 Q183.422 116.377 181.593 112.836 Q179.788 109.271 176.153 109.271 M176.153 105.567 Q181.964 105.567 185.019 110.174 Q188.098 114.757 188.098 123.507 Q188.098 132.234 185.019 136.84 Q181.964 141.423 176.153 141.423 Q170.343 141.423 167.265 136.84 Q164.209 132.234 164.209 123.507 Q164.209 114.757 167.265 110.174 Q170.343 105.567 176.153 105.567 Z" fill="#000000" fill-rule="nonzero" fill-opacity="1"></path><path clip-path="url(#clip060)" d="M929.881 18.8205 L929.881 41.5461 L940.171 41.5461 Q945.882 41.5461 949.002 38.5889 Q952.121 35.6318 952.121 30.163 Q952.121 24.7348 949.002 21.7777 Q945.882 18.8205 940.171 18.8205 L929.881 18.8205 M921.699 12.096 L940.171 12.096 Q950.338 12.096 955.524 16.714 Q960.749 21.2916 960.749 30.163 Q960.749 39.1155 955.524 43.6931 Q950.338 48.2706 940.171 48.2706 L929.881 48.2706 L929.881 72.576 L921.699 72.576 L921.699 12.096 Z" fill="#000000" fill-rule="nonzero" fill-opacity="1"></path><path clip-path="url(#clip060)" d="M996.235 34.1734 Q994.979 33.4443 993.481 33.1202 Q992.022 32.7556 990.24 32.7556 Q983.92 32.7556 980.518 36.8875 Q977.155 40.9789 977.155 48.6757 L977.155 72.576 L969.661 72.576 L969.661 27.2059 L977.155 27.2059 L977.155 34.2544 Q979.505 30.1225 983.272 28.1376 Q987.04 26.1121 992.427 26.1121 Q993.197 26.1121 994.129 26.2337 Q995.06 26.3147 996.195 26.5172 L996.235 34.1734 Z" fill="#000000" fill-rule="nonzero" fill-opacity="1"></path><path clip-path="url(#clip060)" d="M1004.05 27.2059 L1011.51 27.2059 L1011.51 72.576 L1004.05 72.576 L1004.05 27.2059 M1004.05 9.54393 L1011.51 9.54393 L1011.51 18.9825 L1004.05 18.9825 L1004.05 9.54393 Z" fill="#000000" fill-rule="nonzero" fill-opacity="1"></path><path clip-path="url(#clip060)" d="M1064.82 45.1919 L1064.82 72.576 L1057.36 72.576 L1057.36 45.4349 Q1057.36 38.994 1054.85 35.7938 Q1052.34 32.5936 1047.32 32.5936 Q1041.28 32.5936 1037.8 36.4419 Q1034.31 40.2903 1034.31 46.9338 L1034.31 72.576 L1026.82 72.576 L1026.82 27.2059 L1034.31 27.2059 L1034.31 34.2544 Q1036.99 30.163 1040.59 28.1376 Q1044.24 26.1121 1048.98 26.1121 Q1056.8 26.1121 1060.81 30.9732 Q1064.82 35.7938 1064.82 45.1919 Z" fill="#000000" fill-rule="nonzero" fill-opacity="1"></path><path clip-path="url(#clip060)" d="M1112.33 28.9478 L1112.33 35.9153 Q1109.17 34.1734 1105.97 33.3227 Q1102.81 32.4315 1099.57 32.4315 Q1092.32 32.4315 1088.31 37.0496 Q1084.3 41.6271 1084.3 49.9314 Q1084.3 58.2358 1088.31 62.8538 Q1092.32 67.4314 1099.57 67.4314 Q1102.81 67.4314 1105.97 66.5807 Q1109.17 65.6895 1112.33 63.9476 L1112.33 70.8341 Q1109.21 72.2924 1105.85 73.0216 Q1102.53 73.7508 1098.76 73.7508 Q1088.51 73.7508 1082.48 67.3098 Q1076.44 60.8689 1076.44 49.9314 Q1076.44 38.832 1082.52 32.472 Q1088.64 26.1121 1099.25 26.1121 Q1102.69 26.1121 1105.97 26.8413 Q1109.26 27.5299 1112.33 28.9478 Z" fill="#000000" fill-rule="nonzero" fill-opacity="1"></path><path clip-path="url(#clip060)" d="M1125.3 27.2059 L1132.75 27.2059 L1132.75 72.576 L1125.3 72.576 L1125.3 27.2059 M1125.3 9.54393 L1132.75 9.54393 L1132.75 18.9825 L1125.3 18.9825 L1125.3 9.54393 Z" fill="#000000" fill-rule="nonzero" fill-opacity="1"></path><path clip-path="url(#clip060)" d="M1155.56 65.7705 L1155.56 89.8329 L1148.06 89.8329 L1148.06 27.2059 L1155.56 27.2059 L1155.56 34.0924 Q1157.91 30.0415 1161.47 28.0971 Q1165.08 26.1121 1170.06 26.1121 Q1178.32 26.1121 1183.47 32.6746 Q1188.65 39.2371 1188.65 49.9314 Q1188.65 60.6258 1183.47 67.1883 Q1178.32 73.7508 1170.06 73.7508 Q1165.08 73.7508 1161.47 71.8063 Q1157.91 69.8214 1155.56 65.7705 M1180.92 49.9314 Q1180.92 41.7081 1177.51 37.0496 Q1174.15 32.3505 1168.24 32.3505 Q1162.32 32.3505 1158.92 37.0496 Q1155.56 41.7081 1155.56 49.9314 Q1155.56 58.1548 1158.92 62.8538 Q1162.32 67.5124 1168.24 67.5124 Q1174.15 67.5124 1177.51 62.8538 Q1180.92 58.1548 1180.92 49.9314 Z" fill="#000000" fill-rule="nonzero" fill-opacity="1"></path><path clip-path="url(#clip060)" d="M1221.63 49.7694 Q1212.59 49.7694 1209.11 51.8354 Q1205.63 53.9013 1205.63 58.8839 Q1205.63 62.8538 1208.22 65.2034 Q1210.85 67.5124 1215.35 67.5124 Q1221.55 67.5124 1225.27 63.1374 Q1229.04 58.7219 1229.04 51.4303 L1229.04 49.7694 L1221.63 49.7694 M1236.49 46.6907 L1236.49 72.576 L1229.04 72.576 L1229.04 65.6895 Q1226.49 69.8214 1222.68 71.8063 Q1218.87 73.7508 1213.36 73.7508 Q1206.4 73.7508 1202.26 69.8619 Q1198.17 65.9325 1198.17 59.3701 Q1198.17 51.7138 1203.28 47.825 Q1208.42 43.9361 1218.59 43.9361 L1229.04 43.9361 L1229.04 43.2069 Q1229.04 38.0623 1225.64 35.2672 Q1222.28 32.4315 1216.16 32.4315 Q1212.27 32.4315 1208.58 33.3632 Q1204.9 34.295 1201.49 36.1584 L1201.49 29.2718 Q1205.59 27.692 1209.43 26.9223 Q1213.28 26.1121 1216.93 26.1121 Q1226.77 26.1121 1231.63 31.2163 Q1236.49 36.3204 1236.49 46.6907 Z" fill="#000000" fill-rule="nonzero" fill-opacity="1"></path><path clip-path="url(#clip060)" d="M1251.85 9.54393 L1259.3 9.54393 L1259.3 72.576 L1251.85 72.576 L1251.85 9.54393 Z" fill="#000000" fill-rule="nonzero" fill-opacity="1"></path><path clip-path="url(#clip060)" d="M1336.59 35.9153 Q1339.39 30.8922 1343.28 28.5022 Q1347.17 26.1121 1352.43 26.1121 Q1359.52 26.1121 1363.37 31.0947 Q1367.22 36.0368 1367.22 45.1919 L1367.22 72.576 L1359.72 72.576 L1359.72 45.4349 Q1359.72 38.913 1357.41 35.7533 Q1355.1 32.5936 1350.37 32.5936 Q1344.57 32.5936 1341.21 36.4419 Q1337.85 40.2903 1337.85 46.9338 L1337.85 72.576 L1330.35 72.576 L1330.35 45.4349 Q1330.35 38.8725 1328.04 35.7533 Q1325.74 32.5936 1320.92 32.5936 Q1315.2 32.5936 1311.84 36.4824 Q1308.48 40.3308 1308.48 46.9338 L1308.48 72.576 L1300.98 72.576 L1300.98 27.2059 L1308.48 27.2059 L1308.48 34.2544 Q1311.03 30.082 1314.6 28.0971 Q1318.16 26.1121 1323.06 26.1121 Q1328 26.1121 1331.45 28.6237 Q1334.93 31.1352 1336.59 35.9153 Z" fill="#000000" fill-rule="nonzero" fill-opacity="1"></path><path clip-path="url(#clip060)" d="M1399.66 32.4315 Q1393.67 32.4315 1390.19 37.1306 Q1386.7 41.7891 1386.7 49.9314 Q1386.7 58.0738 1390.15 62.7728 Q1393.63 67.4314 1399.66 67.4314 Q1405.62 67.4314 1409.1 62.7323 Q1412.59 58.0333 1412.59 49.9314 Q1412.59 41.8701 1409.1 37.1711 Q1405.62 32.4315 1399.66 32.4315 M1399.66 26.1121 Q1409.39 26.1121 1414.94 32.4315 Q1420.49 38.7509 1420.49 49.9314 Q1420.49 61.0714 1414.94 67.4314 Q1409.39 73.7508 1399.66 73.7508 Q1389.9 73.7508 1384.35 67.4314 Q1378.84 61.0714 1378.84 49.9314 Q1378.84 38.7509 1384.35 32.4315 Q1389.9 26.1121 1399.66 26.1121 Z" fill="#000000" fill-rule="nonzero" fill-opacity="1"></path><path clip-path="url(#clip060)" d="M1462.7 34.0924 L1462.7 9.54393 L1470.15 9.54393 L1470.15 72.576 L1462.7 72.576 L1462.7 65.7705 Q1460.35 69.8214 1456.74 71.8063 Q1453.18 73.7508 1448.15 73.7508 Q1439.93 73.7508 1434.75 67.1883 Q1429.6 60.6258 1429.6 49.9314 Q1429.6 39.2371 1434.75 32.6746 Q1439.93 26.1121 1448.15 26.1121 Q1453.18 26.1121 1456.74 28.0971 Q1460.35 30.0415 1462.7 34.0924 M1437.3 49.9314 Q1437.3 58.1548 1440.66 62.8538 Q1444.06 67.5124 1449.98 67.5124 Q1455.89 67.5124 1459.29 62.8538 Q1462.7 58.1548 1462.7 49.9314 Q1462.7 41.7081 1459.29 37.0496 Q1455.89 32.3505 1449.98 32.3505 Q1444.06 32.3505 1440.66 37.0496 Q1437.3 41.7081 1437.3 49.9314 Z" fill="#000000" fill-rule="nonzero" fill-opacity="1"></path><path clip-path="url(#clip060)" d="M1524.31 48.0275 L1524.31 51.6733 L1490.04 51.6733 Q1490.53 59.3701 1494.66 63.421 Q1498.83 67.4314 1506.24 67.4314 Q1510.54 67.4314 1514.55 66.3781 Q1518.6 65.3249 1522.57 63.2184 L1522.57 70.267 Q1518.56 71.9684 1514.35 72.8596 Q1510.13 73.7508 1505.8 73.7508 Q1494.94 73.7508 1488.58 67.4314 Q1482.26 61.1119 1482.26 50.3365 Q1482.26 39.1965 1488.26 32.6746 Q1494.29 26.1121 1504.5 26.1121 Q1513.66 26.1121 1518.96 32.0264 Q1524.31 37.9003 1524.31 48.0275 M1516.86 45.84 Q1516.78 39.7232 1513.41 36.0774 Q1510.09 32.4315 1504.58 32.4315 Q1498.34 32.4315 1494.58 35.9558 Q1490.85 39.4801 1490.28 45.8805 L1516.86 45.84 Z" fill="#000000" fill-rule="nonzero" fill-opacity="1"></path><path clip-path="url(#clip060)" d="M1565.39 65.6895 L1578.76 65.6895 L1578.76 19.5497 L1564.21 22.4663 L1564.21 15.0127 L1578.67 12.096 L1586.86 12.096 L1586.86 65.6895 L1600.22 65.6895 L1600.22 72.576 L1565.39 72.576 L1565.39 65.6895 Z" fill="#000000" fill-rule="nonzero" fill-opacity="1"></path><path clip-path="url(#clip060)" d="M1634.25 17.4837 Q1627.93 17.4837 1624.73 23.7221 Q1621.57 29.92 1621.57 42.3968 Q1621.57 54.833 1624.73 61.0714 Q1627.93 67.2693 1634.25 67.2693 Q1640.61 67.2693 1643.77 61.0714 Q1646.97 54.833 1646.97 42.3968 Q1646.97 29.92 1643.77 23.7221 Q1640.61 17.4837 1634.25 17.4837 M1634.25 11.0023 Q1644.42 11.0023 1649.77 19.0636 Q1655.16 27.0843 1655.16 42.3968 Q1655.16 57.6687 1649.77 65.73 Q1644.42 73.7508 1634.25 73.7508 Q1624.08 73.7508 1618.7 65.73 Q1613.35 57.6687 1613.35 42.3968 Q1613.35 27.0843 1618.7 19.0636 Q1624.08 11.0023 1634.25 11.0023 Z" fill="#000000" fill-rule="nonzero" fill-opacity="1"></path><polyline clip-path="url(#clip062)" style="stroke:#009af9; stroke-linecap:round; stroke-linejoin:round; stroke-width:4; stroke-opacity:1; fill:none" points="284.343,1015.37 353.59,654.434 422.837,579.199 492.084,665.604 561.332,813.124 630.579,954.149 699.826,1051.29 769.073,1088.13 838.32,1059.25 907.567,964.798 976.815,813.514 1046.06,633.121 1115.31,479.916 1184.56,429.727 1253.8,523.967 1323.05,728.78 1392.3,971.28 1461.54,1148.7 1530.79,1141.56 1600.04,908.396 1669.29,577.252 1738.53,417.5 1807.78,624.211 1877.03,1042.04 1946.28,1187.73 2015.52,810.987 2084.77,409.705 2154.02,678.457 2223.26,1246.92 2292.51,627.763 "></polyline>
<polyline clip-path="url(#clip062)" style="stroke:#e26f46; stroke-linecap:round; stroke-linejoin:round; stroke-width:4; stroke-opacity:1; fill:none" points="284.343,487.98 353.59,883.387 422.837,1058.38 492.084,1059.58 561.332,949.371 630.579,793.198 699.826,647.962 769.073,554.533 838.32,535.45 907.567,596.518 976.815,728.758 1046.06,906.079 1115.31,1076.72 1184.56,1158.3 1253.8,1065.47 1323.05,792.712 1392.3,494.736 1461.54,424.633 1530.79,691.956 1600.04,1074.82 1669.29,1182.51 1738.53,884.025 1807.78,504.715 1877.03,476.494 1946.28,824.636 2015.52,1144.25 2084.77,1057.64 2154.02,626.732 2223.26,402.566 2292.51,1066.67 "></polyline>
<path clip-path="url(#clip060)" d="M295.053 324.425 L683.45 324.425 L683.45 168.905 L295.053 168.905  Z" fill="#ffffff" fill-rule="evenodd" fill-opacity="1"></path>
<polyline clip-path="url(#clip060)" style="stroke:#000000; stroke-linecap:round; stroke-linejoin:round; stroke-width:4; stroke-opacity:1; fill:none" points="295.053,324.425 683.45,324.425 683.45,168.905 295.053,168.905 295.053,324.425 "></polyline>
<polyline clip-path="url(#clip060)" style="stroke:#009af9; stroke-linecap:round; stroke-linejoin:round; stroke-width:4; stroke-opacity:1; fill:none" points="318.705,220.745 460.615,220.745 "></polyline>
<path clip-path="url(#clip060)" d="M499.452 216.08 Q498.735 215.664 497.878 215.478 Q497.045 215.27 496.026 215.27 Q492.415 215.27 490.471 217.631 Q488.55 219.969 488.55 224.367 L488.55 238.025 L484.267 238.025 L484.267 212.099 L488.55 212.099 L488.55 216.127 Q489.892 213.766 492.045 212.631 Q494.198 211.474 497.276 211.474 Q497.716 211.474 498.249 211.543 Q498.781 211.59 499.429 211.705 L499.452 216.08 Z" fill="#000000" fill-rule="nonzero" fill-opacity="1"></path><path clip-path="url(#clip060)" d="M515.702 224.992 Q510.54 224.992 508.549 226.173 Q506.559 227.353 506.559 230.201 Q506.559 232.469 508.04 233.812 Q509.545 235.131 512.114 235.131 Q515.656 235.131 517.786 232.631 Q519.938 230.108 519.938 225.941 L519.938 224.992 L515.702 224.992 M524.198 223.233 L524.198 238.025 L519.938 238.025 L519.938 234.089 Q518.48 236.451 516.304 237.585 Q514.128 238.696 510.98 238.696 Q506.999 238.696 504.637 236.474 Q502.299 234.228 502.299 230.478 Q502.299 226.103 505.216 223.881 Q508.156 221.659 513.966 221.659 L519.938 221.659 L519.938 221.242 Q519.938 218.303 517.994 216.705 Q516.073 215.085 512.577 215.085 Q510.355 215.085 508.249 215.617 Q506.142 216.15 504.198 217.215 L504.198 213.279 Q506.536 212.377 508.735 211.937 Q510.934 211.474 513.017 211.474 Q518.642 211.474 521.42 214.391 Q524.198 217.307 524.198 223.233 Z" fill="#000000" fill-rule="nonzero" fill-opacity="1"></path><path clip-path="url(#clip060)" d="M554.521 222.377 L554.521 238.025 L550.262 238.025 L550.262 222.515 Q550.262 218.835 548.827 217.006 Q547.392 215.178 544.521 215.178 Q541.072 215.178 539.082 217.377 Q537.091 219.576 537.091 223.372 L537.091 238.025 L532.809 238.025 L532.809 212.099 L537.091 212.099 L537.091 216.127 Q538.619 213.789 540.679 212.631 Q542.762 211.474 545.471 211.474 Q549.938 211.474 552.23 214.252 Q554.521 217.006 554.521 222.377 Z" fill="#000000" fill-rule="nonzero" fill-opacity="1"></path><path clip-path="url(#clip060)" d="M580.077 216.034 L580.077 202.006 L584.336 202.006 L584.336 238.025 L580.077 238.025 L580.077 234.136 Q578.734 236.451 576.674 237.585 Q574.637 238.696 571.767 238.696 Q567.068 238.696 564.105 234.946 Q561.165 231.196 561.165 225.085 Q561.165 218.974 564.105 215.224 Q567.068 211.474 571.767 211.474 Q574.637 211.474 576.674 212.608 Q578.734 213.719 580.077 216.034 M565.563 225.085 Q565.563 229.784 567.484 232.469 Q569.429 235.131 572.808 235.131 Q576.188 235.131 578.132 232.469 Q580.077 229.784 580.077 225.085 Q580.077 220.386 578.132 217.724 Q576.188 215.039 572.808 215.039 Q569.429 215.039 567.484 217.724 Q565.563 220.386 565.563 225.085 Z" fill="#000000" fill-rule="nonzero" fill-opacity="1"></path><path clip-path="url(#clip060)" d="M603.155 215.085 Q599.73 215.085 597.739 217.77 Q595.748 220.432 595.748 225.085 Q595.748 229.738 597.716 232.423 Q599.706 235.085 603.155 235.085 Q606.558 235.085 608.549 232.4 Q610.54 229.715 610.54 225.085 Q610.54 220.478 608.549 217.793 Q606.558 215.085 603.155 215.085 M603.155 211.474 Q608.711 211.474 611.882 215.085 Q615.054 218.696 615.054 225.085 Q615.054 231.451 611.882 235.085 Q608.711 238.696 603.155 238.696 Q597.577 238.696 594.405 235.085 Q591.257 231.451 591.257 225.085 Q591.257 218.696 594.405 215.085 Q597.577 211.474 603.155 211.474 Z" fill="#000000" fill-rule="nonzero" fill-opacity="1"></path><path clip-path="url(#clip060)" d="M642.299 217.076 Q643.896 214.205 646.118 212.84 Q648.34 211.474 651.35 211.474 Q655.401 211.474 657.6 214.321 Q659.799 217.145 659.799 222.377 L659.799 238.025 L655.516 238.025 L655.516 222.515 Q655.516 218.789 654.197 216.983 Q652.877 215.178 650.169 215.178 Q646.859 215.178 644.938 217.377 Q643.016 219.576 643.016 223.372 L643.016 238.025 L638.734 238.025 L638.734 222.515 Q638.734 218.765 637.415 216.983 Q636.095 215.178 633.34 215.178 Q630.077 215.178 628.155 217.4 Q626.234 219.599 626.234 223.372 L626.234 238.025 L621.952 238.025 L621.952 212.099 L626.234 212.099 L626.234 216.127 Q627.692 213.742 629.729 212.608 Q631.766 211.474 634.567 211.474 Q637.391 211.474 639.359 212.909 Q641.35 214.344 642.299 217.076 Z" fill="#000000" fill-rule="nonzero" fill-opacity="1"></path><polyline clip-path="url(#clip060)" style="stroke:#e26f46; stroke-linecap:round; stroke-linejoin:round; stroke-width:4; stroke-opacity:1; fill:none" points="318.705,272.585 460.615,272.585 "></polyline>
<path clip-path="url(#clip060)" d="M502.693 264.703 L502.693 268.731 Q500.887 267.805 498.943 267.342 Q496.999 266.879 494.915 266.879 Q491.744 266.879 490.147 267.851 Q488.573 268.823 488.573 270.768 Q488.573 272.249 489.707 273.105 Q490.841 273.939 494.267 274.703 L495.725 275.027 Q500.262 275.999 502.161 277.781 Q504.082 279.541 504.082 282.712 Q504.082 286.323 501.212 288.429 Q498.364 290.536 493.364 290.536 Q491.281 290.536 489.013 290.119 Q486.767 289.726 484.267 288.916 L484.267 284.517 Q486.628 285.744 488.92 286.369 Q491.212 286.971 493.457 286.971 Q496.466 286.971 498.087 285.953 Q499.707 284.911 499.707 283.036 Q499.707 281.3 498.526 280.374 Q497.369 279.448 493.411 278.592 L491.929 278.244 Q487.971 277.411 486.212 275.698 Q484.452 273.962 484.452 270.953 Q484.452 267.295 487.045 265.305 Q489.638 263.314 494.406 263.314 Q496.767 263.314 498.85 263.661 Q500.934 264.008 502.693 264.703 Z" fill="#000000" fill-rule="nonzero" fill-opacity="1"></path><path clip-path="url(#clip060)" d="M531.049 268.916 Q532.647 266.045 534.869 264.68 Q537.091 263.314 540.1 263.314 Q544.151 263.314 546.35 266.161 Q548.549 268.985 548.549 274.217 L548.549 289.865 L544.267 289.865 L544.267 274.355 Q544.267 270.629 542.947 268.823 Q541.628 267.018 538.92 267.018 Q535.61 267.018 533.688 269.217 Q531.767 271.416 531.767 275.212 L531.767 289.865 L527.485 289.865 L527.485 274.355 Q527.485 270.605 526.165 268.823 Q524.846 267.018 522.091 267.018 Q518.827 267.018 516.906 269.24 Q514.985 271.439 514.985 275.212 L514.985 289.865 L510.702 289.865 L510.702 263.939 L514.985 263.939 L514.985 267.967 Q516.443 265.582 518.48 264.448 Q520.517 263.314 523.318 263.314 Q526.142 263.314 528.11 264.749 Q530.1 266.184 531.049 268.916 Z" fill="#000000" fill-rule="nonzero" fill-opacity="1"></path><path clip-path="url(#clip060)" d="M567.091 266.925 Q563.665 266.925 561.674 269.61 Q559.683 272.272 559.683 276.925 Q559.683 281.578 561.651 284.263 Q563.642 286.925 567.091 286.925 Q570.494 286.925 572.484 284.24 Q574.475 281.555 574.475 276.925 Q574.475 272.318 572.484 269.633 Q570.494 266.925 567.091 266.925 M567.091 263.314 Q572.646 263.314 575.818 266.925 Q578.989 270.536 578.989 276.925 Q578.989 283.291 575.818 286.925 Q572.646 290.536 567.091 290.536 Q561.512 290.536 558.341 286.925 Q555.193 283.291 555.193 276.925 Q555.193 270.536 558.341 266.925 Q561.512 263.314 567.091 263.314 Z" fill="#000000" fill-rule="nonzero" fill-opacity="1"></path><path clip-path="url(#clip060)" d="M596.095 266.925 Q592.669 266.925 590.679 269.61 Q588.688 272.272 588.688 276.925 Q588.688 281.578 590.656 284.263 Q592.646 286.925 596.095 286.925 Q599.498 286.925 601.489 284.24 Q603.48 281.555 603.48 276.925 Q603.48 272.318 601.489 269.633 Q599.498 266.925 596.095 266.925 M596.095 263.314 Q601.651 263.314 604.822 266.925 Q607.993 270.536 607.993 276.925 Q607.993 283.291 604.822 286.925 Q601.651 290.536 596.095 290.536 Q590.517 290.536 587.345 286.925 Q584.197 283.291 584.197 276.925 Q584.197 270.536 587.345 266.925 Q590.517 263.314 596.095 263.314 Z" fill="#000000" fill-rule="nonzero" fill-opacity="1"></path><path clip-path="url(#clip060)" d="M619.266 256.578 L619.266 263.939 L628.04 263.939 L628.04 267.249 L619.266 267.249 L619.266 281.323 Q619.266 284.494 620.123 285.397 Q621.003 286.3 623.665 286.3 L628.04 286.3 L628.04 289.865 L623.665 289.865 Q618.734 289.865 616.859 288.036 Q614.984 286.184 614.984 281.323 L614.984 267.249 L611.859 267.249 L611.859 263.939 L614.984 263.939 L614.984 256.578 L619.266 256.578 Z" fill="#000000" fill-rule="nonzero" fill-opacity="1"></path><path clip-path="url(#clip060)" d="M655.192 274.217 L655.192 289.865 L650.933 289.865 L650.933 274.355 Q650.933 270.675 649.498 268.846 Q648.063 267.018 645.192 267.018 Q641.743 267.018 639.752 269.217 Q637.762 271.416 637.762 275.212 L637.762 289.865 L633.479 289.865 L633.479 253.846 L637.762 253.846 L637.762 267.967 Q639.29 265.629 641.35 264.471 Q643.433 263.314 646.141 263.314 Q650.609 263.314 652.901 266.092 Q655.192 268.846 655.192 274.217 Z" fill="#000000" fill-rule="nonzero" fill-opacity="1"></path></svg>