<svg xmlns="http://www.w3.org/2000/svg" xmlns:xlink="http://www.w3.org/1999/xlink" width="600" height="400" viewBox="0 0 2400 1600">
<defs>
  <clipPath id="clip900">
    <rect x="0" y="0" width="2400" height="1600"></rect>
  </clipPath>
</defs>
<path clip-path="url(#clip900)" d="M0 1600 L2400 1600 L2400 0 L0 0  Z" fill="#ffffff" fill-rule="evenodd" fill-opacity="1"></path>
<defs>
  <clipPath id="clip901">
    <rect x="480" y="0" width="1681" height="1600"></rect>
  </clipPath>
</defs>
<path clip-path="url(#clip900)" d="M224.098 1486.45 L2352.76 1486.45 L2352.76 123.472 L224.098 123.472  Z" fill="#ffffff" fill-rule="evenodd" fill-opacity="1"></path>
<defs>
  <clipPath id="clip902">
    <rect x="224" y="123" width="2130" height="1364"></rect>
  </clipPath>
</defs>
<polyline clip-path="url(#clip902)" style="stroke:#000000; stroke-linecap:round; stroke-linejoin:round; stroke-width:2; stroke-opacity:0.1; fill:none" points="561.332,1486.45 561.332,123.472 "></polyline>
<polyline clip-path="url(#clip902)" style="stroke:#000000; stroke-linecap:round; stroke-linejoin:round; stroke-width:2; stroke-opacity:0.1; fill:none" points="907.567,1486.45 907.567,123.472 "></polyline>
<polyline clip-path="url(#clip902)" style="stroke:#000000; stroke-linecap:round; stroke-linejoin:round; stroke-width:2; stroke-opacity:0.1; fill:none" points="1253.8,1486.45 1253.8,123.472 "></polyline>
<polyline clip-path="url(#clip902)" style="stroke:#000000; stroke-linecap:round; stroke-linejoin:round; stroke-width:2; stroke-opacity:0.1; fill:none" points="1600.04,1486.45 1600.04,123.472 "></polyline>
<polyline clip-path="url(#clip902)" style="stroke:#000000; stroke-linecap:round; stroke-linejoin:round; stroke-width:2; stroke-opacity:0.1; fill:none" points="1946.28,1486.45 1946.28,123.472 "></polyline>
<polyline clip-path="url(#clip902)" style="stroke:#000000; stroke-linecap:round; stroke-linejoin:round; stroke-width:2; stroke-opacity:0.1; fill:none" points="2292.51,1486.45 2292.51,123.472 "></polyline>
<polyline clip-path="url(#clip900)" style="stroke:#000000; stroke-linecap:round; stroke-linejoin:round; stroke-width:4; stroke-opacity:1; fill:none" points="224.098,1486.45 2352.76,1486.45 "></polyline>
<polyline clip-path="url(#clip900)" style="stroke:#000000; stroke-linecap:round; stroke-linejoin:round; stroke-width:4; stroke-opacity:1; fill:none" points="561.332,1486.45 561.332,1467.55 "></polyline>
<polyline clip-path="url(#clip900)" style="stroke:#000000; stroke-linecap:round; stroke-linejoin:round; stroke-width:4; stroke-opacity:1; fill:none" points="907.567,1486.45 907.567,1467.55 "></polyline>
<polyline clip-path="url(#clip900)" style="stroke:#000000; stroke-linecap:round; stroke-linejoin:round; stroke-width:4; stroke-opacity:1; fill:none" points="1253.8,1486.45 1253.8,1467.55 "></polyline>
<polyline clip-path="url(#clip900)" style="stroke:#000000; stroke-linecap:round; stroke-linejoin:round; stroke-width:4; stroke-opacity:1; fill:none" points="1600.04,1486.45 1600.04,1467.55 "></polyline>
<polyline clip-path="url(#clip900)" style="stroke:#000000; stroke-linecap:round; stroke-linejoin:round; stroke-width:4; stroke-opacity:1; fill:none" points="1946.28,1486.45 1946.28,1467.55 "></polyline>
<polyline clip-path="url(#clip900)" style="stroke:#000000; stroke-linecap:round; stroke-linejoin:round; stroke-width:4; stroke-opacity:1; fill:none" points="2292.51,1486.45 2292.51,1467.55 "></polyline>
<path clip-path="url(#clip900)" d="M551.609 1514.29 L569.966 1514.29 L569.966 1518.22 L555.892 1518.22 L555.892 1526.7 Q556.91 1526.35 557.929 1526.19 Q558.947 1526 559.966 1526 Q565.753 1526 569.132 1529.17 Q572.512 1532.34 572.512 1537.76 Q572.512 1543.34 569.04 1546.44 Q565.568 1549.52 559.248 1549.52 Q557.072 1549.52 554.804 1549.15 Q552.558 1548.78 550.151 1548.04 L550.151 1543.34 Q552.234 1544.47 554.457 1545.03 Q556.679 1545.58 559.156 1545.58 Q563.16 1545.58 565.498 1543.48 Q567.836 1541.37 567.836 1537.76 Q567.836 1534.15 565.498 1532.04 Q563.16 1529.94 559.156 1529.94 Q557.281 1529.94 555.406 1530.35 Q553.554 1530.77 551.609 1531.65 L551.609 1514.29 Z" fill="#000000" fill-rule="nonzero" fill-opacity="1"></path><path clip-path="url(#clip900)" d="M882.255 1544.91 L889.894 1544.91 L889.894 1518.55 L881.584 1520.21 L881.584 1515.95 L889.848 1514.29 L894.524 1514.29 L894.524 1544.91 L902.162 1544.91 L902.162 1548.85 L882.255 1548.85 L882.255 1544.91 Z" fill="#000000" fill-rule="nonzero" fill-opacity="1"></path><path clip-path="url(#clip900)" d="M921.607 1517.37 Q917.996 1517.37 916.167 1520.93 Q914.361 1524.47 914.361 1531.6 Q914.361 1538.71 916.167 1542.27 Q917.996 1545.82 921.607 1545.82 Q925.241 1545.82 927.047 1542.27 Q928.875 1538.71 928.875 1531.6 Q928.875 1524.47 927.047 1520.93 Q925.241 1517.37 921.607 1517.37 M921.607 1513.66 Q927.417 1513.66 930.472 1518.27 Q933.551 1522.85 933.551 1531.6 Q933.551 1540.33 930.472 1544.94 Q927.417 1549.52 921.607 1549.52 Q915.797 1549.52 912.718 1544.94 Q909.662 1540.33 909.662 1531.6 Q909.662 1522.85 912.718 1518.27 Q915.797 1513.66 921.607 1513.66 Z" fill="#000000" fill-rule="nonzero" fill-opacity="1"></path><path clip-path="url(#clip900)" d="M1228.99 1544.91 L1236.63 1544.91 L1236.63 1518.55 L1228.32 1520.21 L1228.32 1515.95 L1236.58 1514.29 L1241.26 1514.29 L1241.26 1544.91 L1248.9 1544.91 L1248.9 1548.85 L1228.99 1548.85 L1228.99 1544.91 Z" fill="#000000" fill-rule="nonzero" fill-opacity="1"></path><path clip-path="url(#clip900)" d="M1258.39 1514.29 L1276.74 1514.29 L1276.74 1518.22 L1262.67 1518.22 L1262.67 1526.7 Q1263.69 1526.35 1264.71 1526.19 Q1265.72 1526 1266.74 1526 Q1272.53 1526 1275.91 1529.17 Q1279.29 1532.34 1279.29 1537.76 Q1279.29 1543.34 1275.82 1546.44 Q1272.34 1549.52 1266.03 1549.52 Q1263.85 1549.52 1261.58 1549.15 Q1259.34 1548.78 1256.93 1548.04 L1256.93 1543.34 Q1259.01 1544.47 1261.23 1545.03 Q1263.46 1545.58 1265.93 1545.58 Q1269.94 1545.58 1272.28 1543.48 Q1274.61 1541.37 1274.61 1537.76 Q1274.61 1534.15 1272.28 1532.04 Q1269.94 1529.94 1265.93 1529.94 Q1264.06 1529.94 1262.18 1530.35 Q1260.33 1530.77 1258.39 1531.65 L1258.39 1514.29 Z" fill="#000000" fill-rule="nonzero" fill-opacity="1"></path><path clip-path="url(#clip900)" d="M1578.81 1544.91 L1595.13 1544.91 L1595.13 1548.85 L1573.19 1548.85 L1573.19 1544.91 Q1575.85 1542.16 1580.43 1537.53 Q1585.04 1532.88 1586.22 1531.53 Q1588.47 1529.01 1589.34 1527.27 Q1590.25 1525.51 1590.25 1523.82 Q1590.25 1521.07 1588.3 1519.33 Q1586.38 1517.6 1583.28 1517.6 Q1581.08 1517.6 1578.63 1518.36 Q1576.2 1519.13 1573.42 1520.68 L1573.42 1515.95 Q1576.24 1514.82 1578.7 1514.24 Q1581.15 1513.66 1583.19 1513.66 Q1588.56 1513.66 1591.75 1516.35 Q1594.95 1519.03 1594.95 1523.52 Q1594.95 1525.65 1594.14 1527.57 Q1593.35 1529.47 1591.24 1532.07 Q1590.66 1532.74 1587.56 1535.95 Q1584.46 1539.15 1578.81 1544.91 Z" fill="#000000" fill-rule="nonzero" fill-opacity="1"></path><path clip-path="url(#clip900)" d="M1614.95 1517.37 Q1611.34 1517.37 1609.51 1520.93 Q1607.7 1524.47 1607.7 1531.6 Q1607.7 1538.71 1609.51 1542.27 Q1611.34 1545.82 1614.95 1545.82 Q1618.58 1545.82 1620.39 1542.27 Q1622.21 1538.71 1622.21 1531.6 Q1622.21 1524.47 1620.39 1520.93 Q1618.58 1517.37 1614.95 1517.37 M1614.95 1513.66 Q1620.76 1513.66 1623.81 1518.27 Q1626.89 1522.85 1626.89 1531.6 Q1626.89 1540.33 1623.81 1544.94 Q1620.76 1549.52 1614.95 1549.52 Q1609.14 1549.52 1606.06 1544.94 Q1603 1540.33 1603 1531.6 Q1603 1522.85 1606.06 1518.27 Q1609.14 1513.66 1614.95 1513.66 Z" fill="#000000" fill-rule="nonzero" fill-opacity="1"></path><path clip-path="url(#clip900)" d="M1925.55 1544.91 L1941.87 1544.91 L1941.87 1548.85 L1919.92 1548.85 L1919.92 1544.91 Q1922.58 1542.16 1927.17 1537.53 Q1931.77 1532.88 1932.95 1531.53 Q1935.2 1529.01 1936.08 1527.27 Q1936.98 1525.51 1936.98 1523.82 Q1936.98 1521.07 1935.04 1519.33 Q1933.12 1517.6 1930.01 1517.6 Q1927.81 1517.6 1925.36 1518.36 Q1922.93 1519.13 1920.15 1520.68 L1920.15 1515.95 Q1922.98 1514.82 1925.43 1514.24 Q1927.88 1513.66 1929.92 1513.66 Q1935.29 1513.66 1938.49 1516.35 Q1941.68 1519.03 1941.68 1523.52 Q1941.68 1525.65 1940.87 1527.57 Q1940.08 1529.47 1937.98 1532.07 Q1937.4 1532.74 1934.3 1535.95 Q1931.19 1539.15 1925.55 1544.91 Z" fill="#000000" fill-rule="nonzero" fill-opacity="1"></path><path clip-path="url(#clip900)" d="M1951.73 1514.29 L1970.08 1514.29 L1970.08 1518.22 L1956.01 1518.22 L1956.01 1526.7 Q1957.03 1526.35 1958.05 1526.19 Q1959.06 1526 1960.08 1526 Q1965.87 1526 1969.25 1529.17 Q1972.63 1532.34 1972.63 1537.76 Q1972.63 1543.34 1969.16 1546.44 Q1965.68 1549.52 1959.37 1549.52 Q1957.19 1549.52 1954.92 1549.15 Q1952.68 1548.78 1950.27 1548.04 L1950.27 1543.34 Q1952.35 1544.47 1954.57 1545.03 Q1956.8 1545.58 1959.27 1545.58 Q1963.28 1545.58 1965.62 1543.48 Q1967.95 1541.37 1967.95 1537.76 Q1967.95 1534.15 1965.62 1532.04 Q1963.28 1529.94 1959.27 1529.94 Q1957.4 1529.94 1955.52 1530.35 Q1953.67 1530.77 1951.73 1531.65 L1951.73 1514.29 Z" fill="#000000" fill-rule="nonzero" fill-opacity="1"></path><path clip-path="url(#clip900)" d="M2281.35 1530.21 Q2284.71 1530.93 2286.58 1533.2 Q2288.48 1535.47 2288.48 1538.8 Q2288.48 1543.92 2284.96 1546.72 Q2281.45 1549.52 2274.96 1549.52 Q2272.79 1549.52 2270.47 1549.08 Q2268.18 1548.66 2265.73 1547.81 L2265.73 1543.29 Q2267.67 1544.43 2269.99 1545.01 Q2272.3 1545.58 2274.83 1545.58 Q2279.22 1545.58 2281.52 1543.85 Q2283.83 1542.11 2283.83 1538.8 Q2283.83 1535.75 2281.68 1534.03 Q2279.55 1532.3 2275.73 1532.3 L2271.7 1532.3 L2271.7 1528.45 L2275.91 1528.45 Q2279.36 1528.45 2281.19 1527.09 Q2283.02 1525.7 2283.02 1523.11 Q2283.02 1520.45 2281.12 1519.03 Q2279.25 1517.6 2275.73 1517.6 Q2273.81 1517.6 2271.61 1518.01 Q2269.41 1518.43 2266.77 1519.31 L2266.77 1515.14 Q2269.43 1514.4 2271.75 1514.03 Q2274.09 1513.66 2276.15 1513.66 Q2281.47 1513.66 2284.57 1516.09 Q2287.67 1518.5 2287.67 1522.62 Q2287.67 1525.49 2286.03 1527.48 Q2284.39 1529.45 2281.35 1530.21 Z" fill="#000000" fill-rule="nonzero" fill-opacity="1"></path><path clip-path="url(#clip900)" d="M2307.35 1517.37 Q2303.74 1517.37 2301.91 1520.93 Q2300.1 1524.47 2300.1 1531.6 Q2300.1 1538.71 2301.91 1542.27 Q2303.74 1545.82 2307.35 1545.82 Q2310.98 1545.82 2312.79 1542.27 Q2314.62 1538.71 2314.62 1531.6 Q2314.62 1524.47 2312.79 1520.93 Q2310.98 1517.37 2307.35 1517.37 M2307.35 1513.66 Q2313.16 1513.66 2316.21 1518.27 Q2319.29 1522.85 2319.29 1531.6 Q2319.29 1540.33 2316.21 1544.94 Q2313.16 1549.52 2307.35 1549.52 Q2301.54 1549.52 2298.46 1544.94 Q2295.4 1540.33 2295.4 1531.6 Q2295.4 1522.85 2298.46 1518.27 Q2301.54 1513.66 2307.35 1513.66 Z" fill="#000000" fill-rule="nonzero" fill-opacity="1"></path><polyline clip-path="url(#clip902)" style="stroke:#000000; stroke-linecap:round; stroke-linejoin:round; stroke-width:2; stroke-opacity:0.1; fill:none" points="224.098,1486.45 2352.76,1486.45 "></polyline>
<polyline clip-path="url(#clip902)" style="stroke:#000000; stroke-linecap:round; stroke-linejoin:round; stroke-width:2; stroke-opacity:0.1; fill:none" points="224.098,1145.7 2352.76,1145.7 "></polyline>
<polyline clip-path="url(#clip902)" style="stroke:#000000; stroke-linecap:round; stroke-linejoin:round; stroke-width:2; stroke-opacity:0.1; fill:none" points="224.098,804.96 2352.76,804.96 "></polyline>
<polyline clip-path="url(#clip902)" style="stroke:#000000; stroke-linecap:round; stroke-linejoin:round; stroke-width:2; stroke-opacity:0.1; fill:none" points="224.098,464.216 2352.76,464.216 "></polyline>
<polyline clip-path="url(#clip902)" style="stroke:#000000; stroke-linecap:round; stroke-linejoin:round; stroke-width:2; stroke-opacity:0.1; fill:none" points="224.098,123.472 2352.76,123.472 "></polyline>
<polyline clip-path="url(#clip900)" style="stroke:#000000; stroke-linecap:round; stroke-linejoin:round; stroke-width:4; stroke-opacity:1; fill:none" points="224.098,1486.45 224.098,123.472 "></polyline>
<polyline clip-path="url(#clip900)" style="stroke:#000000; stroke-linecap:round; stroke-linejoin:round; stroke-width:4; stroke-opacity:1; fill:none" points="224.098,1486.45 242.996,1486.45 "></polyline>
<polyline clip-path="url(#clip900)" style="stroke:#000000; stroke-linecap:round; stroke-linejoin:round; stroke-width:4; stroke-opacity:1; fill:none" points="224.098,1145.7 242.996,1145.7 "></polyline>
<polyline clip-path="url(#clip900)" style="stroke:#000000; stroke-linecap:round; stroke-linejoin:round; stroke-width:4; stroke-opacity:1; fill:none" points="224.098,804.96 242.996,804.96 "></polyline>
<polyline clip-path="url(#clip900)" style="stroke:#000000; stroke-linecap:round; stroke-linejoin:round; stroke-width:4; stroke-opacity:1; fill:none" points="224.098,464.216 242.996,464.216 "></polyline>
<polyline clip-path="url(#clip900)" style="stroke:#000000; stroke-linecap:round; stroke-linejoin:round; stroke-width:4; stroke-opacity:1; fill:none" points="224.098,123.472 242.996,123.472 "></polyline>
<path clip-path="url(#clip900)" d="M50.9921 1486.9 L80.6679 1486.9 L80.6679 1490.83 L50.9921 1490.83 L50.9921 1486.9 Z" fill="#000000" fill-rule="nonzero" fill-opacity="1"></path><path clip-path="url(#clip900)" d="M100.76 1472.25 Q97.1493 1472.25 95.3206 1475.81 Q93.515 1479.35 93.515 1486.48 Q93.515 1493.59 95.3206 1497.15 Q97.1493 1500.7 100.76 1500.7 Q104.395 1500.7 106.2 1497.15 Q108.029 1493.59 108.029 1486.48 Q108.029 1479.35 106.2 1475.81 Q104.395 1472.25 100.76 1472.25 M100.76 1468.54 Q106.571 1468.54 109.626 1473.15 Q112.705 1477.73 112.705 1486.48 Q112.705 1495.21 109.626 1499.82 Q106.571 1504.4 100.76 1504.4 Q94.9502 1504.4 91.8715 1499.82 Q88.816 1495.21 88.816 1486.48 Q88.816 1477.73 91.8715 1473.15 Q94.9502 1468.54 100.76 1468.54 Z" fill="#000000" fill-rule="nonzero" fill-opacity="1"></path><path clip-path="url(#clip900)" d="M120.922 1497.85 L125.807 1497.85 L125.807 1503.73 L120.922 1503.73 L120.922 1497.85 Z" fill="#000000" fill-rule="nonzero" fill-opacity="1"></path><path clip-path="url(#clip900)" d="M136.038 1469.17 L154.394 1469.17 L154.394 1473.1 L140.32 1473.1 L140.32 1481.58 Q141.339 1481.23 142.357 1481.07 Q143.376 1480.88 144.394 1480.88 Q150.181 1480.88 153.561 1484.05 Q156.941 1487.22 156.941 1492.64 Q156.941 1498.22 153.468 1501.32 Q149.996 1504.4 143.677 1504.4 Q141.501 1504.4 139.232 1504.03 Q136.987 1503.66 134.58 1502.92 L134.58 1498.22 Q136.663 1499.35 138.885 1499.91 Q141.107 1500.46 143.584 1500.46 Q147.589 1500.46 149.927 1498.36 Q152.265 1496.25 152.265 1492.64 Q152.265 1489.03 149.927 1486.92 Q147.589 1484.82 143.584 1484.82 Q141.709 1484.82 139.834 1485.23 Q137.982 1485.65 136.038 1486.53 L136.038 1469.17 Z" fill="#000000" fill-rule="nonzero" fill-opacity="1"></path><path clip-path="url(#clip900)" d="M176.153 1472.25 Q172.542 1472.25 170.714 1475.81 Q168.908 1479.35 168.908 1486.48 Q168.908 1493.59 170.714 1497.15 Q172.542 1500.7 176.153 1500.7 Q179.788 1500.7 181.593 1497.15 Q183.422 1493.59 183.422 1486.48 Q183.422 1479.35 181.593 1475.81 Q179.788 1472.25 176.153 1472.25 M176.153 1468.54 Q181.964 1468.54 185.019 1473.15 Q188.098 1477.73 188.098 1486.48 Q188.098 1495.21 185.019 1499.82 Q181.964 1504.4 176.153 1504.4 Q170.343 1504.4 167.265 1499.82 Q164.209 1495.21 164.209 1486.48 Q164.209 1477.73 167.265 1473.15 Q170.343 1468.54 176.153 1468.54 Z" fill="#000000" fill-rule="nonzero" fill-opacity="1"></path><path clip-path="url(#clip900)" d="M51.9875 1146.16 L81.6633 1146.16 L81.6633 1150.09 L51.9875 1150.09 L51.9875 1146.16 Z" fill="#000000" fill-rule="nonzero" fill-opacity="1"></path><path clip-path="url(#clip900)" d="M101.756 1131.5 Q98.1447 1131.5 96.316 1135.07 Q94.5104 1138.61 94.5104 1145.74 Q94.5104 1152.85 96.316 1156.41 Q98.1447 1159.95 101.756 1159.95 Q105.39 1159.95 107.196 1156.41 Q109.024 1152.85 109.024 1145.74 Q109.024 1138.61 107.196 1135.07 Q105.39 1131.5 101.756 1131.5 M101.756 1127.8 Q107.566 1127.8 110.621 1132.41 Q113.7 1136.99 113.7 1145.74 Q113.7 1154.47 110.621 1159.07 Q107.566 1163.66 101.756 1163.66 Q95.9456 1163.66 92.8669 1159.07 Q89.8114 1154.47 89.8114 1145.74 Q89.8114 1136.99 92.8669 1132.41 Q95.9456 1127.8 101.756 1127.8 Z" fill="#000000" fill-rule="nonzero" fill-opacity="1"></path><path clip-path="url(#clip900)" d="M121.918 1157.1 L126.802 1157.1 L126.802 1162.98 L121.918 1162.98 L121.918 1157.1 Z" fill="#000000" fill-rule="nonzero" fill-opacity="1"></path><path clip-path="url(#clip900)" d="M141.015 1159.05 L157.334 1159.05 L157.334 1162.98 L135.39 1162.98 L135.39 1159.05 Q138.052 1156.29 142.635 1151.66 Q147.242 1147.01 148.422 1145.67 Q150.668 1143.15 151.547 1141.41 Q152.45 1139.65 152.45 1137.96 Q152.45 1135.21 150.505 1133.47 Q148.584 1131.73 145.482 1131.73 Q143.283 1131.73 140.83 1132.5 Q138.399 1133.26 135.621 1134.81 L135.621 1130.09 Q138.445 1128.96 140.899 1128.38 Q143.353 1127.8 145.39 1127.8 Q150.76 1127.8 153.955 1130.48 Q157.149 1133.17 157.149 1137.66 Q157.149 1139.79 156.339 1141.71 Q155.552 1143.61 153.445 1146.2 Q152.867 1146.87 149.765 1150.09 Q146.663 1153.28 141.015 1159.05 Z" fill="#000000" fill-rule="nonzero" fill-opacity="1"></path><path clip-path="url(#clip900)" d="M167.195 1128.42 L185.552 1128.42 L185.552 1132.36 L171.478 1132.36 L171.478 1140.83 Q172.496 1140.48 173.515 1140.32 Q174.533 1140.14 175.552 1140.14 Q181.339 1140.14 184.718 1143.31 Q188.098 1146.48 188.098 1151.9 Q188.098 1157.47 184.626 1160.58 Q181.153 1163.66 174.834 1163.66 Q172.658 1163.66 170.39 1163.28 Q168.144 1162.91 165.737 1162.17 L165.737 1157.47 Q167.82 1158.61 170.042 1159.16 Q172.265 1159.72 174.741 1159.72 Q178.746 1159.72 181.084 1157.61 Q183.422 1155.51 183.422 1151.9 Q183.422 1148.28 181.084 1146.18 Q178.746 1144.07 174.741 1144.07 Q172.866 1144.07 170.991 1144.49 Q169.14 1144.91 167.195 1145.78 L167.195 1128.42 Z" fill="#000000" fill-rule="nonzero" fill-opacity="1"></path><path clip-path="url(#clip900)" d="M100.76 790.759 Q97.1493 790.759 95.3206 794.323 Q93.515 797.865 93.515 804.995 Q93.515 812.101 95.3206 815.666 Q97.1493 819.208 100.76 819.208 Q104.395 819.208 106.2 815.666 Q108.029 812.101 108.029 804.995 Q108.029 797.865 106.2 794.323 Q104.395 790.759 100.76 790.759 M100.76 787.055 Q106.571 787.055 109.626 791.661 Q112.705 796.245 112.705 804.995 Q112.705 813.722 109.626 818.328 Q106.571 822.911 100.76 822.911 Q94.9502 822.911 91.8715 818.328 Q88.816 813.722 88.816 804.995 Q88.816 796.245 91.8715 791.661 Q94.9502 787.055 100.76 787.055 Z" fill="#000000" fill-rule="nonzero" fill-opacity="1"></path><path clip-path="url(#clip900)" d="M120.922 816.36 L125.807 816.36 L125.807 822.24 L120.922 822.24 L120.922 816.36 Z" fill="#000000" fill-rule="nonzero" fill-opacity="1"></path><path clip-path="url(#clip900)" d="M145.992 790.759 Q142.381 790.759 140.552 794.323 Q138.746 797.865 138.746 804.995 Q138.746 812.101 140.552 815.666 Q142.381 819.208 145.992 819.208 Q149.626 819.208 151.431 815.666 Q153.26 812.101 153.26 804.995 Q153.26 797.865 151.431 794.323 Q149.626 790.759 145.992 790.759 M145.992 787.055 Q151.802 787.055 154.857 791.661 Q157.936 796.245 157.936 804.995 Q157.936 813.722 154.857 818.328 Q151.802 822.911 145.992 822.911 Q140.181 822.911 137.103 818.328 Q134.047 813.722 134.047 804.995 Q134.047 796.245 137.103 791.661 Q140.181 787.055 145.992 787.055 Z" fill="#000000" fill-rule="nonzero" fill-opacity="1"></path><path clip-path="url(#clip900)" d="M176.153 790.759 Q172.542 790.759 170.714 794.323 Q168.908 797.865 168.908 804.995 Q168.908 812.101 170.714 815.666 Q172.542 819.208 176.153 819.208 Q179.788 819.208 181.593 815.666 Q183.422 812.101 183.422 804.995 Q183.422 797.865 181.593 794.323 Q179.788 790.759 176.153 790.759 M176.153 787.055 Q181.964 787.055 185.019 791.661 Q188.098 796.245 188.098 804.995 Q188.098 813.722 185.019 818.328 Q181.964 822.911 176.153 822.911 Q170.343 822.911 167.265 818.328 Q164.209 813.722 164.209 804.995 Q164.209 796.245 167.265 791.661 Q170.343 787.055 176.153 787.055 Z" fill="#000000" fill-rule="nonzero" fill-opacity="1"></path><path clip-path="url(#clip900)" d="M101.756 450.015 Q98.1447 450.015 96.316 453.58 Q94.5104 457.121 94.5104 464.251 Q94.5104 471.357 96.316 474.922 Q98.1447 478.464 101.756 478.464 Q105.39 478.464 107.196 474.922 Q109.024 471.357 109.024 464.251 Q109.024 457.121 107.196 453.58 Q105.39 450.015 101.756 450.015 M101.756 446.311 Q107.566 446.311 110.621 450.918 Q113.7 455.501 113.7 464.251 Q113.7 472.978 110.621 477.584 Q107.566 482.167 101.756 482.167 Q95.9456 482.167 92.8669 477.584 Q89.8114 472.978 89.8114 464.251 Q89.8114 455.501 92.8669 450.918 Q95.9456 446.311 101.756 446.311 Z" fill="#000000" fill-rule="nonzero" fill-opacity="1"></path><path clip-path="url(#clip900)" d="M121.918 475.616 L126.802 475.616 L126.802 481.496 L121.918 481.496 L121.918 475.616 Z" fill="#000000" fill-rule="nonzero" fill-opacity="1"></path><path clip-path="url(#clip900)" d="M141.015 477.561 L157.334 477.561 L157.334 481.496 L135.39 481.496 L135.39 477.561 Q138.052 474.806 142.635 470.177 Q147.242 465.524 148.422 464.181 Q150.668 461.658 151.547 459.922 Q152.45 458.163 152.45 456.473 Q152.45 453.718 150.505 451.982 Q148.584 450.246 145.482 450.246 Q143.283 450.246 140.83 451.01 Q138.399 451.774 135.621 453.325 L135.621 448.603 Q138.445 447.468 140.899 446.89 Q143.353 446.311 145.39 446.311 Q150.76 446.311 153.955 448.996 Q157.149 451.681 157.149 456.172 Q157.149 458.302 156.339 460.223 Q155.552 462.121 153.445 464.714 Q152.867 465.385 149.765 468.603 Q146.663 471.797 141.015 477.561 Z" fill="#000000" fill-rule="nonzero" fill-opacity="1"></path><path clip-path="url(#clip900)" d="M167.195 446.936 L185.552 446.936 L185.552 450.871 L171.478 450.871 L171.478 459.343 Q172.496 458.996 173.515 458.834 Q174.533 458.649 175.552 458.649 Q181.339 458.649 184.718 461.82 Q188.098 464.992 188.098 470.408 Q188.098 475.987 184.626 479.089 Q181.153 482.167 174.834 482.167 Q172.658 482.167 170.39 481.797 Q168.144 481.427 165.737 480.686 L165.737 475.987 Q167.82 477.121 170.042 477.677 Q172.265 478.232 174.741 478.232 Q178.746 478.232 181.084 476.126 Q183.422 474.019 183.422 470.408 Q183.422 466.797 181.084 464.691 Q178.746 462.584 174.741 462.584 Q172.866 462.584 170.991 463.001 Q169.14 463.417 167.195 464.297 L167.195 446.936 Z" fill="#000000" fill-rule="nonzero" fill-opacity="1"></path><path clip-path="url(#clip900)" d="M100.76 109.271 Q97.1493 109.271 95.3206 112.836 Q93.515 116.377 93.515 123.507 Q93.515 130.613 95.3206 134.178 Q97.1493 137.72 100.76 137.72 Q104.395 137.72 106.2 134.178 Q108.029 130.613 108.029 123.507 Q108.029 116.377 106.2 112.836 Q104.395 109.271 100.76 109.271 M100.76 105.567 Q106.571 105.567 109.626 110.174 Q112.705 114.757 112.705 123.507 Q112.705 132.234 109.626 136.84 Q106.571 141.423 100.76 141.423 Q94.9502 141.423 91.8715 136.84 Q88.816 132.234 88.816 123.507 Q88.816 114.757 91.8715 110.174 Q94.9502 105.567 100.76 105.567 Z" fill="#000000" fill-rule="nonzero" fill-opacity="1"></path><path clip-path="url(#clip900)" d="M120.922 134.873 L125.807 134.873 L125.807 140.752 L120.922 140.752 L120.922 134.873 Z" fill="#000000" fill-rule="nonzero" fill-opacity="1"></path><path clip-path="url(#clip900)" d="M136.038 106.192 L154.394 106.192 L154.394 110.127 L140.32 110.127 L140.32 118.599 Q141.339 118.252 142.357 118.09 Q143.376 117.905 144.394 117.905 Q150.181 117.905 153.561 121.076 Q156.941 124.248 156.941 129.664 Q156.941 135.243 153.468 138.345 Q149.996 141.423 143.677 141.423 Q141.501 141.423 139.232 141.053 Q136.987 140.683 134.58 139.942 L134.58 135.243 Q136.663 136.377 138.885 136.933 Q141.107 137.488 143.584 137.488 Q147.589 137.488 149.927 135.382 Q152.265 133.275 152.265 129.664 Q152.265 126.053 149.927 123.947 Q147.589 121.84 143.584 121.84 Q141.709 121.84 139.834 122.257 Q137.982 122.674 136.038 123.553 L136.038 106.192 Z" fill="#000000" fill-rule="nonzero" fill-opacity="1"></path><path clip-path="url(#clip900)" d="M176.153 109.271 Q172.542 109.271 170.714 112.836 Q168.908 116.377 168.908 123.507 Q168.908 130.613 170.714 134.178 Q172.542 137.72 176.153 137.72 Q179.788 137.72 181.593 134.178 Q183.422 130.613 183.422 123.507 Q183.422 116.377 181.593 112.836 Q179.788 109.271 176.153 109.271 M176.153 105.567 Q181.964 105.567 185.019 110.174 Q188.098 114.757 188.098 123.507 Q188.098 132.234 185.019 136.84 Q181.964 141.423 176.153 141.423 Q170.343 141.423 167.265 136.84 Q164.209 132.234 164.209 123.507 Q164.209 114.757 167.265 110.174 Q170.343 105.567 176.153 105.567 Z" fill="#000000" fill-rule="nonzero" fill-opacity="1"></path><path clip-path="url(#clip900)" d="M957.144 18.8205 L957.144 41.5461 L967.433 41.5461 Q973.145 41.5461 976.264 38.5889 Q979.383 35.6318 979.383 30.163 Q979.383 24.7348 976.264 21.7777 Q973.145 18.8205 967.433 18.8205 L957.144 18.8205 M948.961 12.096 L967.433 12.096 Q977.601 12.096 982.786 16.714 Q988.012 21.2916 988.012 30.163 Q988.012 39.1155 982.786 43.6931 Q977.601 48.2706 967.433 48.2706 L957.144 48.2706 L957.144 72.576 L948.961 72.576 L948.961 12.096 Z" fill="#000000" fill-rule="nonzero" fill-opacity="1"></path><path clip-path="url(#clip900)" d="M1023.5 34.1734 Q1022.24 33.4443 1020.74 33.1202 Q1019.28 32.7556 1017.5 32.7556 Q1011.18 32.7556 1007.78 36.8875 Q1004.42 40.9789 1004.42 48.6757 L1004.42 72.576 L996.924 72.576 L996.924 27.2059 L1004.42 27.2059 L1004.42 34.2544 Q1006.77 30.1225 1010.53 28.1376 Q1014.3 26.1121 1019.69 26.1121 Q1020.46 26.1121 1021.39 26.2337 Q1022.32 26.3147 1023.46 26.5172 L1023.5 34.1734 Z" fill="#000000" fill-rule="nonzero" fill-opacity="1"></path><path clip-path="url(#clip900)" d="M1031.32 27.2059 L1038.77 27.2059 L1038.77 72.576 L1031.32 72.576 L1031.32 27.2059 M1031.32 9.54393 L1038.77 9.54393 L1038.77 18.9825 L1031.32 18.9825 L1031.32 9.54393 Z" fill="#000000" fill-rule="nonzero" fill-opacity="1"></path><path clip-path="url(#clip900)" d="M1092.08 45.1919 L1092.08 72.576 L1084.63 72.576 L1084.63 45.4349 Q1084.63 38.994 1082.11 35.7938 Q1079.6 32.5936 1074.58 32.5936 Q1068.54 32.5936 1065.06 36.4419 Q1061.58 40.2903 1061.58 46.9338 L1061.58 72.576 L1054.08 72.576 L1054.08 27.2059 L1061.58 27.2059 L1061.58 34.2544 Q1064.25 30.163 1067.86 28.1376 Q1071.5 26.1121 1076.24 26.1121 Q1084.06 26.1121 1088.07 30.9732 Q1092.08 35.7938 1092.08 45.1919 Z" fill="#000000" fill-rule="nonzero" fill-opacity="1"></path><path clip-path="url(#clip900)" d="M1139.6 28.9478 L1139.6 35.9153 Q1136.44 34.1734 1133.24 33.3227 Q1130.08 32.4315 1126.84 32.4315 Q1119.59 32.4315 1115.57 37.0496 Q1111.56 41.6271 1111.56 49.9314 Q1111.56 58.2358 1115.57 62.8538 Q1119.59 67.4314 1126.84 67.4314 Q1130.08 67.4314 1133.24 66.5807 Q1136.44 65.6895 1139.6 63.9476 L1139.6 70.8341 Q1136.48 72.2924 1133.12 73.0216 Q1129.79 73.7508 1126.03 73.7508 Q1115.78 73.7508 1109.74 67.3098 Q1103.71 60.8689 1103.71 49.9314 Q1103.71 38.832 1109.78 32.472 Q1115.9 26.1121 1126.51 26.1121 Q1129.96 26.1121 1133.24 26.8413 Q1136.52 27.5299 1139.6 28.9478 Z" fill="#000000" fill-rule="nonzero" fill-opacity="1"></path><path clip-path="url(#clip900)" d="M1152.56 27.2059 L1160.01 27.2059 L1160.01 72.576 L1152.56 72.576 L1152.56 27.2059 M1152.56 9.54393 L1160.01 9.54393 L1160.01 18.9825 L1152.56 18.9825 L1152.56 9.54393 Z" fill="#000000" fill-rule="nonzero" fill-opacity="1"></path><path clip-path="url(#clip900)" d="M1182.82 65.7705 L1182.82 89.8329 L1175.33 89.8329 L1175.33 27.2059 L1182.82 27.2059 L1182.82 34.0924 Q1185.17 30.0415 1188.73 28.0971 Q1192.34 26.1121 1197.32 26.1121 Q1205.59 26.1121 1210.73 32.6746 Q1215.92 39.2371 1215.92 49.9314 Q1215.92 60.6258 1210.73 67.1883 Q1205.59 73.7508 1197.32 73.7508 Q1192.34 73.7508 1188.73 71.8063 Q1185.17 69.8214 1182.82 65.7705 M1208.18 49.9314 Q1208.18 41.7081 1204.78 37.0496 Q1201.41 32.3505 1195.5 32.3505 Q1189.58 32.3505 1186.18 37.0496 Q1182.82 41.7081 1182.82 49.9314 Q1182.82 58.1548 1186.18 62.8538 Q1189.58 67.5124 1195.5 67.5124 Q1201.41 67.5124 1204.78 62.8538 Q1208.18 58.1548 1208.18 49.9314 Z" fill="#000000" fill-rule="nonzero" fill-opacity="1"></path><path clip-path="url(#clip900)" d="M1248.89 49.7694 Q1239.86 49.7694 1236.37 51.8354 Q1232.89 53.9013 1232.89 58.8839 Q1232.89 62.8538 1235.48 65.2034 Q1238.11 67.5124 1242.61 67.5124 Q1248.81 67.5124 1252.54 63.1374 Q1256.3 58.7219 1256.3 51.4303 L1256.3 49.7694 L1248.89 49.7694 M1263.76 46.6907 L1263.76 72.576 L1256.3 72.576 L1256.3 65.6895 Q1253.75 69.8214 1249.94 71.8063 Q1246.14 73.7508 1240.63 73.7508 Q1233.66 73.7508 1229.53 69.8619 Q1225.44 65.9325 1225.44 59.3701 Q1225.44 51.7138 1230.54 47.825 Q1235.68 43.9361 1245.85 43.9361 L1256.3 43.9361 L1256.3 43.2069 Q1256.3 38.0623 1252.9 35.2672 Q1249.54 32.4315 1243.42 32.4315 Q1239.53 32.4315 1235.85 33.3632 Q1232.16 34.295 1228.76 36.1584 L1228.76 29.2718 Q1232.85 27.692 1236.7 26.9223 Q1240.55 26.1121 1244.19 26.1121 Q1254.03 26.1121 1258.9 31.2163 Q1263.76 36.3204 1263.76 46.6907 Z" fill="#000000" fill-rule="nonzero" fill-opacity="1"></path><path clip-path="url(#clip900)" d="M1279.11 9.54393 L1286.56 9.54393 L1286.56 72.576 L1279.11 72.576 L1279.11 9.54393 Z" fill="#000000" fill-rule="nonzero" fill-opacity="1"></path><path clip-path="url(#clip900)" d="M1363.85 35.9153 Q1366.65 30.8922 1370.54 28.5022 Q1374.43 26.1121 1379.69 26.1121 Q1386.78 26.1121 1390.63 31.0947 Q1394.48 36.0368 1394.48 45.1919 L1394.48 72.576 L1386.99 72.576 L1386.99 45.4349 Q1386.99 38.913 1384.68 35.7533 Q1382.37 32.5936 1377.63 32.5936 Q1371.84 32.5936 1368.47 36.4419 Q1365.11 40.2903 1365.11 46.9338 L1365.11 72.576 L1357.62 72.576 L1357.62 45.4349 Q1357.62 38.8725 1355.31 35.7533 Q1353 32.5936 1348.18 32.5936 Q1342.47 32.5936 1339.1 36.4824 Q1335.74 40.3308 1335.74 46.9338 L1335.74 72.576 L1328.25 72.576 L1328.25 27.2059 L1335.74 27.2059 L1335.74 34.2544 Q1338.29 30.082 1341.86 28.0971 Q1345.42 26.1121 1350.32 26.1121 Q1355.27 26.1121 1358.71 28.6237 Q1362.19 31.1352 1363.85 35.9153 Z" fill="#000000" fill-rule="nonzero" fill-opacity="1"></path><path clip-path="url(#clip900)" d="M1426.93 32.4315 Q1420.93 32.4315 1417.45 37.1306 Q1413.96 41.7891 1413.96 49.9314 Q1413.96 58.0738 1417.41 62.7728 Q1420.89 67.4314 1426.93 67.4314 Q1432.88 67.4314 1436.37 62.7323 Q1439.85 58.0333 1439.85 49.9314 Q1439.85 41.8701 1436.37 37.1711 Q1432.88 32.4315 1426.93 32.4315 M1426.93 26.1121 Q1436.65 26.1121 1442.2 32.4315 Q1447.75 38.7509 1447.75 49.9314 Q1447.75 61.0714 1442.2 67.4314 Q1436.65 73.7508 1426.93 73.7508 Q1417.16 73.7508 1411.61 67.4314 Q1406.11 61.0714 1406.11 49.9314 Q1406.11 38.7509 1411.61 32.4315 Q1417.16 26.1121 1426.93 26.1121 Z" fill="#000000" fill-rule="nonzero" fill-opacity="1"></path><path clip-path="url(#clip900)" d="M1489.96 34.0924 L1489.96 9.54393 L1497.41 9.54393 L1497.41 72.576 L1489.96 72.576 L1489.96 65.7705 Q1487.61 69.8214 1484 71.8063 Q1480.44 73.7508 1475.42 73.7508 Q1467.19 73.7508 1462.01 67.1883 Q1456.86 60.6258 1456.86 49.9314 Q1456.86 39.2371 1462.01 32.6746 Q1467.19 26.1121 1475.42 26.1121 Q1480.44 26.1121 1484 28.0971 Q1487.61 30.0415 1489.96 34.0924 M1464.56 49.9314 Q1464.56 58.1548 1467.92 62.8538 Q1471.33 67.5124 1477.24 67.5124 Q1483.15 67.5124 1486.56 62.8538 Q1489.96 58.1548 1489.96 49.9314 Q1489.96 41.7081 1486.56 37.0496 Q1483.15 32.3505 1477.24 32.3505 Q1471.33 32.3505 1467.92 37.0496 Q1464.56 41.7081 1464.56 49.9314 Z" fill="#000000" fill-rule="nonzero" fill-opacity="1"></path><path clip-path="url(#clip900)" d="M1551.57 48.0275 L1551.57 51.6733 L1517.3 51.6733 Q1517.79 59.3701 1521.92 63.421 Q1526.09 67.4314 1533.51 67.4314 Q1537.8 67.4314 1541.81 66.3781 Q1545.86 65.3249 1549.83 63.2184 L1549.83 70.267 Q1545.82 71.9684 1541.61 72.8596 Q1537.4 73.7508 1533.06 73.7508 Q1522.2 73.7508 1515.84 67.4314 Q1509.53 61.1119 1509.53 50.3365 Q1509.53 39.1965 1515.52 32.6746 Q1521.56 26.1121 1531.76 26.1121 Q1540.92 26.1121 1546.23 32.0264 Q1551.57 37.9003 1551.57 48.0275 M1544.12 45.84 Q1544.04 39.7232 1540.68 36.0774 Q1537.35 32.4315 1531.85 32.4315 Q1525.61 32.4315 1521.84 35.9558 Q1518.11 39.4801 1517.55 45.8805 L1544.12 45.84 Z" fill="#000000" fill-rule="nonzero" fill-opacity="1"></path><path clip-path="url(#clip900)" d="M1591.31 12.096 L1623.44 12.096 L1623.44 18.9825 L1598.81 18.9825 L1598.81 33.8088 Q1600.59 33.2012 1602.37 32.9176 Q1604.15 32.5936 1605.94 32.5936 Q1616.06 32.5936 1621.98 38.1433 Q1627.89 43.6931 1627.89 53.1722 Q1627.89 62.9348 1621.82 68.3631 Q1615.74 73.7508 1604.68 73.7508 Q1600.87 73.7508 1596.9 73.1026 Q1592.97 72.4545 1588.76 71.1582 L1588.76 62.9348 Q1592.41 64.9198 1596.3 65.892 Q1600.18 66.8642 1604.52 66.8642 Q1611.53 66.8642 1615.62 63.1779 Q1619.71 59.4916 1619.71 53.1722 Q1619.71 46.8528 1615.62 43.1664 Q1611.53 39.4801 1604.52 39.4801 Q1601.24 39.4801 1597.96 40.2093 Q1594.72 40.9384 1591.31 42.4778 L1591.31 12.096 Z" fill="#000000" fill-rule="nonzero" fill-opacity="1"></path><polyline clip-path="url(#clip902)" style="stroke:#009af9; stroke-linecap:round; stroke-linejoin:round; stroke-width:4; stroke-opacity:1; fill:none" points="284.343,445.021 353.59,771.643 422.837,972.589 492.084,1076.71 561.332,1113.88 630.579,1110.18 699.826,1085.59 769.073,1053.76 838.32,1022.87 907.567,996.951 976.815,977.174 1046.06,962.531 1115.31,949.662 1184.56,932.867 1253.8,906.252 1323.05,866.392 1392.3,811.994 1461.54,742.336 1530.79,658.833 1600.04,567.859 1669.29,482.141 1738.53,421.688 1807.78,414.988 1877.03,494.406 1946.28,677.239 2015.52,933.679 2084.77,1162.45 2154.02,1212.77 2223.26,960.912 2292.51,388.786 "></polyline>
<polyline clip-path="url(#clip902)" style="stroke:#e26f46; stroke-linecap:round; stroke-linejoin:round; stroke-width:4; stroke-opacity:1; fill:none" points="284.343,260.984 353.59,544.768 422.837,781.169 492.084,964.368 561.332,1093.36 630.579,1171.69 699.826,1206.43 769.073,1206.68 838.32,1182.01 907.567,1141.04 976.815,1090.44 1046.06,1034.39 1115.31,974.695 1184.56,911.722 1253.8,845.691 1323.05,777.615 1392.3,709.503 1461.54,644.759 1530.79,589.603 1600.04,554.912 1669.29,555.591 1738.53,604.821 1807.78,704.069 1877.03,835.209 1946.28,962.165 2015.52,1043.41 2084.77,1046.35 2154.02,956.103 2223.26,777.015 2292.51,530.093 "></polyline>
<path clip-path="url(#clip900)" d="M295.053 1441.02 L683.45 1441.02 L683.45 1285.5 L295.053 1285.5  Z" fill="#ffffff" fill-rule="evenodd" fill-opacity="1"></path>
<polyline clip-path="url(#clip900)" style="stroke:#000000; stroke-linecap:round; stroke-linejoin:round; stroke-width:4; stroke-opacity:1; fill:none" points="295.053,1441.02 683.45,1441.02 683.45,1285.5 295.053,1285.5 295.053,1441.02 "></polyline>
<polyline clip-path="url(#clip900)" style="stroke:#009af9; stroke-linecap:round; stroke-linejoin:round; stroke-width:4; stroke-opacity:1; fill:none" points="318.705,1337.34 460.615,1337.34 "></polyline>
<path clip-path="url(#clip900)" d="M499.452 1332.67 Q498.735 1332.25 497.878 1332.07 Q497.045 1331.86 496.026 1331.86 Q492.415 1331.86 490.471 1334.22 Q488.55 1336.56 488.55 1340.96 L488.55 1354.62 L484.267 1354.62 L484.267 1328.69 L488.55 1328.69 L488.55 1332.72 Q489.892 1330.36 492.045 1329.22 Q494.198 1328.06 497.276 1328.06 Q497.716 1328.06 498.249 1328.13 Q498.781 1328.18 499.429 1328.3 L499.452 1332.67 Z" fill="#000000" fill-rule="nonzero" fill-opacity="1"></path><path clip-path="url(#clip900)" d="M515.702 1341.58 Q510.54 1341.58 508.549 1342.76 Q506.559 1343.94 506.559 1346.79 Q506.559 1349.06 508.04 1350.4 Q509.545 1351.72 512.114 1351.72 Q515.656 1351.72 517.786 1349.22 Q519.938 1346.7 519.938 1342.53 L519.938 1341.58 L515.702 1341.58 M524.198 1339.82 L524.198 1354.62 L519.938 1354.62 L519.938 1350.68 Q518.48 1353.04 516.304 1354.18 Q514.128 1355.29 510.98 1355.29 Q506.999 1355.29 504.637 1353.06 Q502.299 1350.82 502.299 1347.07 Q502.299 1342.69 505.216 1340.47 Q508.156 1338.25 513.966 1338.25 L519.938 1338.25 L519.938 1337.83 Q519.938 1334.89 517.994 1333.3 Q516.073 1331.68 512.577 1331.68 Q510.355 1331.68 508.249 1332.21 Q506.142 1332.74 504.198 1333.81 L504.198 1329.87 Q506.536 1328.97 508.735 1328.53 Q510.934 1328.06 513.017 1328.06 Q518.642 1328.06 521.42 1330.98 Q524.198 1333.9 524.198 1339.82 Z" fill="#000000" fill-rule="nonzero" fill-opacity="1"></path><path clip-path="url(#clip900)" d="M554.521 1338.97 L554.521 1354.62 L550.262 1354.62 L550.262 1339.11 Q550.262 1335.43 548.827 1333.6 Q547.392 1331.77 544.521 1331.77 Q541.072 1331.77 539.082 1333.97 Q537.091 1336.17 537.091 1339.96 L537.091 1354.62 L532.809 1354.62 L532.809 1328.69 L537.091 1328.69 L537.091 1332.72 Q538.619 1330.38 540.679 1329.22 Q542.762 1328.06 545.471 1328.06 Q549.938 1328.06 552.23 1330.84 Q554.521 1333.6 554.521 1338.97 Z" fill="#000000" fill-rule="nonzero" fill-opacity="1"></path><path clip-path="url(#clip900)" d="M580.077 1332.62 L580.077 1318.6 L584.336 1318.6 L584.336 1354.62 L580.077 1354.62 L580.077 1350.73 Q578.734 1353.04 576.674 1354.18 Q574.637 1355.29 571.767 1355.29 Q567.068 1355.29 564.105 1351.54 Q561.165 1347.79 561.165 1341.68 Q561.165 1335.56 564.105 1331.81 Q567.068 1328.06 571.767 1328.06 Q574.637 1328.06 576.674 1329.2 Q578.734 1330.31 580.077 1332.62 M565.563 1341.68 Q565.563 1346.37 567.484 1349.06 Q569.429 1351.72 572.808 1351.72 Q576.188 1351.72 578.132 1349.06 Q580.077 1346.37 580.077 1341.68 Q580.077 1336.98 578.132 1334.31 Q576.188 1331.63 572.808 1331.63 Q569.429 1331.63 567.484 1334.31 Q565.563 1336.98 565.563 1341.68 Z" fill="#000000" fill-rule="nonzero" fill-opacity="1"></path><path clip-path="url(#clip900)" d="M603.155 1331.68 Q599.73 1331.68 597.739 1334.36 Q595.748 1337.02 595.748 1341.68 Q595.748 1346.33 597.716 1349.01 Q599.706 1351.68 603.155 1351.68 Q606.558 1351.68 608.549 1348.99 Q610.54 1346.31 610.54 1341.68 Q610.54 1337.07 608.549 1334.38 Q606.558 1331.68 603.155 1331.68 M603.155 1328.06 Q608.711 1328.06 611.882 1331.68 Q615.054 1335.29 615.054 1341.68 Q615.054 1348.04 611.882 1351.68 Q608.711 1355.29 603.155 1355.29 Q597.577 1355.29 594.405 1351.68 Q591.257 1348.04 591.257 1341.68 Q591.257 1335.29 594.405 1331.68 Q597.577 1328.06 603.155 1328.06 Z" fill="#000000" fill-rule="nonzero" fill-opacity="1"></path><path clip-path="url(#clip900)" d="M642.299 1333.67 Q643.896 1330.8 646.118 1329.43 Q648.34 1328.06 651.35 1328.06 Q655.401 1328.06 657.6 1330.91 Q659.799 1333.74 659.799 1338.97 L659.799 1354.62 L655.516 1354.62 L655.516 1339.11 Q655.516 1335.38 654.197 1333.57 Q652.877 1331.77 650.169 1331.77 Q646.859 1331.77 644.938 1333.97 Q643.016 1336.17 643.016 1339.96 L643.016 1354.62 L638.734 1354.62 L638.734 1339.11 Q638.734 1335.36 637.415 1333.57 Q636.095 1331.77 633.34 1331.77 Q630.077 1331.77 628.155 1333.99 Q626.234 1336.19 626.234 1339.96 L626.234 1354.62 L621.952 1354.62 L621.952 1328.69 L626.234 1328.69 L626.234 1332.72 Q627.692 1330.33 629.729 1329.2 Q631.766 1328.06 634.567 1328.06 Q637.391 1328.06 639.359 1329.5 Q641.35 1330.93 642.299 1333.67 Z" fill="#000000" fill-rule="nonzero" fill-opacity="1"></path><polyline clip-path="url(#clip900)" style="stroke:#e26f46; stroke-linecap:round; stroke-linejoin:round; stroke-width:4; stroke-opacity:1; fill:none" points="318.705,1389.18 460.615,1389.18 "></polyline>
<path clip-path="url(#clip900)" d="M502.693 1381.29 L502.693 1385.32 Q500.887 1384.4 498.943 1383.93 Q496.999 1383.47 494.915 1383.47 Q491.744 1383.47 490.147 1384.44 Q488.573 1385.41 488.573 1387.36 Q488.573 1388.84 489.707 1389.7 Q490.841 1390.53 494.267 1391.29 L495.725 1391.62 Q500.262 1392.59 502.161 1394.37 Q504.082 1396.13 504.082 1399.3 Q504.082 1402.91 501.212 1405.02 Q498.364 1407.13 493.364 1407.13 Q491.281 1407.13 489.013 1406.71 Q486.767 1406.32 484.267 1405.51 L484.267 1401.11 Q486.628 1402.34 488.92 1402.96 Q491.212 1403.56 493.457 1403.56 Q496.466 1403.56 498.087 1402.54 Q499.707 1401.5 499.707 1399.63 Q499.707 1397.89 498.526 1396.96 Q497.369 1396.04 493.411 1395.18 L491.929 1394.84 Q487.971 1394 486.212 1392.29 Q484.452 1390.55 484.452 1387.54 Q484.452 1383.89 487.045 1381.9 Q489.638 1379.9 494.406 1379.9 Q496.767 1379.9 498.85 1380.25 Q500.934 1380.6 502.693 1381.29 Z" fill="#000000" fill-rule="nonzero" fill-opacity="1"></path><path clip-path="url(#clip900)" d="M531.049 1385.51 Q532.647 1382.64 534.869 1381.27 Q537.091 1379.9 540.1 1379.9 Q544.151 1379.9 546.35 1382.75 Q548.549 1385.58 548.549 1390.81 L548.549 1406.46 L544.267 1406.46 L544.267 1390.95 Q544.267 1387.22 542.947 1385.41 Q541.628 1383.61 538.92 1383.61 Q535.61 1383.61 533.688 1385.81 Q531.767 1388.01 531.767 1391.8 L531.767 1406.46 L527.485 1406.46 L527.485 1390.95 Q527.485 1387.2 526.165 1385.41 Q524.846 1383.61 522.091 1383.61 Q518.827 1383.61 516.906 1385.83 Q514.985 1388.03 514.985 1391.8 L514.985 1406.46 L510.702 1406.46 L510.702 1380.53 L514.985 1380.53 L514.985 1384.56 Q516.443 1382.17 518.48 1381.04 Q520.517 1379.9 523.318 1379.9 Q526.142 1379.9 528.11 1381.34 Q530.1 1382.77 531.049 1385.51 Z" fill="#000000" fill-rule="nonzero" fill-opacity="1"></path><path clip-path="url(#clip900)" d="M567.091 1383.52 Q563.665 1383.52 561.674 1386.2 Q559.683 1388.86 559.683 1393.52 Q559.683 1398.17 561.651 1400.85 Q563.642 1403.52 567.091 1403.52 Q570.494 1403.52 572.484 1400.83 Q574.475 1398.15 574.475 1393.52 Q574.475 1388.91 572.484 1386.22 Q570.494 1383.52 567.091 1383.52 M567.091 1379.9 Q572.646 1379.9 575.818 1383.52 Q578.989 1387.13 578.989 1393.52 Q578.989 1399.88 575.818 1403.52 Q572.646 1407.13 567.091 1407.13 Q561.512 1407.13 558.341 1403.52 Q555.193 1399.88 555.193 1393.52 Q555.193 1387.13 558.341 1383.52 Q561.512 1379.9 567.091 1379.9 Z" fill="#000000" fill-rule="nonzero" fill-opacity="1"></path><path clip-path="url(#clip900)" d="M596.095 1383.52 Q592.669 1383.52 590.679 1386.2 Q588.688 1388.86 588.688 1393.52 Q588.688 1398.17 590.656 1400.85 Q592.646 1403.52 596.095 1403.52 Q599.498 1403.52 601.489 1400.83 Q603.48 1398.15 603.48 1393.52 Q603.48 1388.91 601.489 1386.22 Q599.498 1383.52 596.095 1383.52 M596.095 1379.9 Q601.651 1379.9 604.822 1383.52 Q607.993 1387.13 607.993 1393.52 Q607.993 1399.88 604.822 1403.52 Q601.651 1407.13 596.095 1407.13 Q590.517 1407.13 587.345 1403.52 Q584.197 1399.88 584.197 1393.52 Q584.197 1387.13 587.345 1383.52 Q590.517 1379.9 596.095 1379.9 Z" fill="#000000" fill-rule="nonzero" fill-opacity="1"></path><path clip-path="url(#clip900)" d="M619.266 1373.17 L619.266 1380.53 L628.04 1380.53 L628.04 1383.84 L619.266 1383.84 L619.266 1397.91 Q619.266 1401.09 620.123 1401.99 Q621.003 1402.89 623.665 1402.89 L628.04 1402.89 L628.04 1406.46 L623.665 1406.46 Q618.734 1406.46 616.859 1404.63 Q614.984 1402.77 614.984 1397.91 L614.984 1383.84 L611.859 1383.84 L611.859 1380.53 L614.984 1380.53 L614.984 1373.17 L619.266 1373.17 Z" fill="#000000" fill-rule="nonzero" fill-opacity="1"></path><path clip-path="url(#clip900)" d="M655.192 1390.81 L655.192 1406.46 L650.933 1406.46 L650.933 1390.95 Q650.933 1387.27 649.498 1385.44 Q648.063 1383.61 645.192 1383.61 Q641.743 1383.61 639.752 1385.81 Q637.762 1388.01 637.762 1391.8 L637.762 1406.46 L633.479 1406.46 L633.479 1370.44 L637.762 1370.44 L637.762 1384.56 Q639.29 1382.22 641.35 1381.06 Q643.433 1379.9 646.141 1379.9 Q650.609 1379.9 652.901 1382.68 Q655.192 1385.44 655.192 1390.81 Z" fill="#000000" fill-rule="nonzero" fill-opacity="1"></path></svg>