<svg xmlns="http://www.w3.org/2000/svg" xmlns:xlink="http://www.w3.org/1999/xlink" width="600" height="400" viewBox="0 0 2400 1600">
<defs>
  <clipPath id="clip460">
    <rect x="0" y="0" width="2400" height="1600"></rect>
  </clipPath>
</defs>
<path clip-path="url(#clip460)" d="M0 1600 L2400 1600 L2400 0 L0 0  Z" fill="#ffffff" fill-rule="evenodd" fill-opacity="1"></path>
<defs>
  <clipPath id="clip461">
    <rect x="480" y="0" width="1681" height="1600"></rect>
  </clipPath>
</defs>
<path clip-path="url(#clip460)" d="M367.967 1486.45 L2352.76 1486.45 L2352.76 123.472 L367.967 123.472  Z" fill="#ffffff" fill-rule="evenodd" fill-opacity="1"></path>
<defs>
  <clipPath id="clip462">
    <rect x="367" y="123" width="1986" height="1364"></rect>
  </clipPath>
</defs>
<polyline clip-path="url(#clip462)" style="stroke:#000000; stroke-linecap:round; stroke-linejoin:round; stroke-width:2; stroke-opacity:0.1; fill:none" points="682.408,1486.45 682.408,123.472 "></polyline>
<polyline clip-path="url(#clip462)" style="stroke:#000000; stroke-linecap:round; stroke-linejoin:round; stroke-width:2; stroke-opacity:0.1; fill:none" points="1005.24,1486.45 1005.24,123.472 "></polyline>
<polyline clip-path="url(#clip462)" style="stroke:#000000; stroke-linecap:round; stroke-linejoin:round; stroke-width:2; stroke-opacity:0.1; fill:none" points="1328.08,1486.45 1328.08,123.472 "></polyline>
<polyline clip-path="url(#clip462)" style="stroke:#000000; stroke-linecap:round; stroke-linejoin:round; stroke-width:2; stroke-opacity:0.1; fill:none" points="1650.91,1486.45 1650.91,123.472 "></polyline>
<polyline clip-path="url(#clip462)" style="stroke:#000000; stroke-linecap:round; stroke-linejoin:round; stroke-width:2; stroke-opacity:0.1; fill:none" points="1973.75,1486.45 1973.75,123.472 "></polyline>
<polyline clip-path="url(#clip462)" style="stroke:#000000; stroke-linecap:round; stroke-linejoin:round; stroke-width:2; stroke-opacity:0.1; fill:none" points="2296.58,1486.45 2296.58,123.472 "></polyline>
<polyline clip-path="url(#clip460)" style="stroke:#000000; stroke-linecap:round; stroke-linejoin:round; stroke-width:4; stroke-opacity:1; fill:none" points="367.967,1486.45 2352.76,1486.45 "></polyline>
<polyline clip-path="url(#clip460)" style="stroke:#000000; stroke-linecap:round; stroke-linejoin:round; stroke-width:4; stroke-opacity:1; fill:none" points="682.408,1486.45 682.408,1467.55 "></polyline>
<polyline clip-path="url(#clip460)" style="stroke:#000000; stroke-linecap:round; stroke-linejoin:round; stroke-width:4; stroke-opacity:1; fill:none" points="1005.24,1486.45 1005.24,1467.55 "></polyline>
<polyline clip-path="url(#clip460)" style="stroke:#000000; stroke-linecap:round; stroke-linejoin:round; stroke-width:4; stroke-opacity:1; fill:none" points="1328.08,1486.45 1328.08,1467.55 "></polyline>
<polyline clip-path="url(#clip460)" style="stroke:#000000; stroke-linecap:round; stroke-linejoin:round; stroke-width:4; stroke-opacity:1; fill:none" points="1650.91,1486.45 1650.91,1467.55 "></polyline>
<polyline clip-path="url(#clip460)" style="stroke:#000000; stroke-linecap:round; stroke-linejoin:round; stroke-width:4; stroke-opacity:1; fill:none" points="1973.75,1486.45 1973.75,1467.55 "></polyline>
<polyline clip-path="url(#clip460)" style="stroke:#000000; stroke-linecap:round; stroke-linejoin:round; stroke-width:4; stroke-opacity:1; fill:none" points="2296.58,1486.45 2296.58,1467.55 "></polyline>
<path clip-path="url(#clip460)" d="M672.686 1514.29 L691.043 1514.29 L691.043 1518.22 L676.969 1518.22 L676.969 1526.7 Q677.987 1526.35 679.006 1526.19 Q680.024 1526 681.043 1526 Q686.83 1526 690.209 1529.17 Q693.589 1532.34 693.589 1537.76 Q693.589 1543.34 690.117 1546.44 Q686.645 1549.52 680.325 1549.52 Q678.149 1549.52 675.881 1549.15 Q673.635 1548.78 671.228 1548.04 L671.228 1543.34 Q673.311 1544.47 675.533 1545.03 Q677.756 1545.58 680.233 1545.58 Q684.237 1545.58 686.575 1543.48 Q688.913 1541.37 688.913 1537.76 Q688.913 1534.15 686.575 1532.04 Q684.237 1529.94 680.233 1529.94 Q678.358 1529.94 676.483 1530.35 Q674.631 1530.77 672.686 1531.65 L672.686 1514.29 Z" fill="#000000" fill-rule="nonzero" fill-opacity="1"></path><path clip-path="url(#clip460)" d="M979.931 1544.91 L987.57 1544.91 L987.57 1518.55 L979.26 1520.21 L979.26 1515.95 L987.523 1514.29 L992.199 1514.29 L992.199 1544.91 L999.838 1544.91 L999.838 1548.85 L979.931 1548.85 L979.931 1544.91 Z" fill="#000000" fill-rule="nonzero" fill-opacity="1"></path><path clip-path="url(#clip460)" d="M1019.28 1517.37 Q1015.67 1517.37 1013.84 1520.93 Q1012.04 1524.47 1012.04 1531.6 Q1012.04 1538.71 1013.84 1542.27 Q1015.67 1545.82 1019.28 1545.82 Q1022.92 1545.82 1024.72 1542.27 Q1026.55 1538.71 1026.55 1531.6 Q1026.55 1524.47 1024.72 1520.93 Q1022.92 1517.37 1019.28 1517.37 M1019.28 1513.66 Q1025.09 1513.66 1028.15 1518.27 Q1031.23 1522.85 1031.23 1531.6 Q1031.23 1540.33 1028.15 1544.94 Q1025.09 1549.52 1019.28 1549.52 Q1013.47 1549.52 1010.39 1544.94 Q1007.34 1540.33 1007.34 1531.6 Q1007.34 1522.85 1010.39 1518.27 Q1013.47 1513.66 1019.28 1513.66 Z" fill="#000000" fill-rule="nonzero" fill-opacity="1"></path><path clip-path="url(#clip460)" d="M1303.26 1544.91 L1310.9 1544.91 L1310.9 1518.55 L1302.59 1520.21 L1302.59 1515.95 L1310.86 1514.29 L1315.53 1514.29 L1315.53 1544.91 L1323.17 1544.91 L1323.17 1548.85 L1303.26 1548.85 L1303.26 1544.91 Z" fill="#000000" fill-rule="nonzero" fill-opacity="1"></path><path clip-path="url(#clip460)" d="M1332.66 1514.29 L1351.02 1514.29 L1351.02 1518.22 L1336.94 1518.22 L1336.94 1526.7 Q1337.96 1526.35 1338.98 1526.19 Q1340 1526 1341.02 1526 Q1346.8 1526 1350.18 1529.17 Q1353.56 1532.34 1353.56 1537.76 Q1353.56 1543.34 1350.09 1546.44 Q1346.62 1549.52 1340.3 1549.52 Q1338.12 1549.52 1335.86 1549.15 Q1333.61 1548.78 1331.2 1548.04 L1331.2 1543.34 Q1333.29 1544.47 1335.51 1545.03 Q1337.73 1545.58 1340.21 1545.58 Q1344.21 1545.58 1346.55 1543.48 Q1348.89 1541.37 1348.89 1537.76 Q1348.89 1534.15 1346.55 1532.04 Q1344.21 1529.94 1340.21 1529.94 Q1338.33 1529.94 1336.46 1530.35 Q1334.61 1530.77 1332.66 1531.65 L1332.66 1514.29 Z" fill="#000000" fill-rule="nonzero" fill-opacity="1"></path><path clip-path="url(#clip460)" d="M1629.69 1544.91 L1646.01 1544.91 L1646.01 1548.85 L1624.06 1548.85 L1624.06 1544.91 Q1626.72 1542.16 1631.31 1537.53 Q1635.91 1532.88 1637.09 1531.53 Q1639.34 1529.01 1640.22 1527.27 Q1641.12 1525.51 1641.12 1523.82 Q1641.12 1521.07 1639.18 1519.33 Q1637.26 1517.6 1634.15 1517.6 Q1631.95 1517.6 1629.5 1518.36 Q1627.07 1519.13 1624.29 1520.68 L1624.29 1515.95 Q1627.12 1514.82 1629.57 1514.24 Q1632.02 1513.66 1634.06 1513.66 Q1639.43 1513.66 1642.63 1516.35 Q1645.82 1519.03 1645.82 1523.52 Q1645.82 1525.65 1645.01 1527.57 Q1644.22 1529.47 1642.12 1532.07 Q1641.54 1532.74 1638.44 1535.95 Q1635.33 1539.15 1629.69 1544.91 Z" fill="#000000" fill-rule="nonzero" fill-opacity="1"></path><path clip-path="url(#clip460)" d="M1665.82 1517.37 Q1662.21 1517.37 1660.38 1520.93 Q1658.57 1524.47 1658.57 1531.6 Q1658.57 1538.71 1660.38 1542.27 Q1662.21 1545.82 1665.82 1545.82 Q1669.45 1545.82 1671.26 1542.27 Q1673.09 1538.71 1673.09 1531.6 Q1673.09 1524.47 1671.26 1520.93 Q1669.45 1517.37 1665.82 1517.37 M1665.82 1513.66 Q1671.63 1513.66 1674.69 1518.27 Q1677.76 1522.85 1677.76 1531.6 Q1677.76 1540.33 1674.69 1544.94 Q1671.63 1549.52 1665.82 1549.52 Q1660.01 1549.52 1656.93 1544.94 Q1653.88 1540.33 1653.88 1531.6 Q1653.88 1522.85 1656.93 1518.27 Q1660.01 1513.66 1665.82 1513.66 Z" fill="#000000" fill-rule="nonzero" fill-opacity="1"></path><path clip-path="url(#clip460)" d="M1953.02 1544.91 L1969.34 1544.91 L1969.34 1548.85 L1947.39 1548.85 L1947.39 1544.91 Q1950.06 1542.16 1954.64 1537.53 Q1959.25 1532.88 1960.43 1531.53 Q1962.67 1529.01 1963.55 1527.27 Q1964.45 1525.51 1964.45 1523.82 Q1964.45 1521.07 1962.51 1519.33 Q1960.59 1517.6 1957.49 1517.6 Q1955.29 1517.6 1952.83 1518.36 Q1950.4 1519.13 1947.63 1520.68 L1947.63 1515.95 Q1950.45 1514.82 1952.9 1514.24 Q1955.36 1513.66 1957.39 1513.66 Q1962.76 1513.66 1965.96 1516.35 Q1969.15 1519.03 1969.15 1523.52 Q1969.15 1525.65 1968.34 1527.57 Q1967.56 1529.47 1965.45 1532.07 Q1964.87 1532.74 1961.77 1535.95 Q1958.67 1539.15 1953.02 1544.91 Z" fill="#000000" fill-rule="nonzero" fill-opacity="1"></path><path clip-path="url(#clip460)" d="M1979.2 1514.29 L1997.56 1514.29 L1997.56 1518.22 L1983.48 1518.22 L1983.48 1526.7 Q1984.5 1526.35 1985.52 1526.19 Q1986.54 1526 1987.56 1526 Q1993.34 1526 1996.72 1529.17 Q2000.1 1532.34 2000.1 1537.76 Q2000.1 1543.34 1996.63 1546.44 Q1993.16 1549.52 1986.84 1549.52 Q1984.66 1549.52 1982.39 1549.15 Q1980.15 1548.78 1977.74 1548.04 L1977.74 1543.34 Q1979.82 1544.47 1982.05 1545.03 Q1984.27 1545.58 1986.75 1545.58 Q1990.75 1545.58 1993.09 1543.48 Q1995.43 1541.37 1995.43 1537.76 Q1995.43 1534.15 1993.09 1532.04 Q1990.75 1529.94 1986.75 1529.94 Q1984.87 1529.94 1983 1530.35 Q1981.14 1530.77 1979.2 1531.65 L1979.2 1514.29 Z" fill="#000000" fill-rule="nonzero" fill-opacity="1"></path><path clip-path="url(#clip460)" d="M2285.43 1530.21 Q2288.78 1530.93 2290.66 1533.2 Q2292.55 1535.47 2292.55 1538.8 Q2292.55 1543.92 2289.04 1546.72 Q2285.52 1549.52 2279.04 1549.52 Q2276.86 1549.52 2274.55 1549.08 Q2272.25 1548.66 2269.8 1547.81 L2269.8 1543.29 Q2271.74 1544.43 2274.06 1545.01 Q2276.37 1545.58 2278.9 1545.58 Q2283.3 1545.58 2285.59 1543.85 Q2287.9 1542.11 2287.9 1538.8 Q2287.9 1535.75 2285.75 1534.03 Q2283.62 1532.3 2279.8 1532.3 L2275.77 1532.3 L2275.77 1528.45 L2279.99 1528.45 Q2283.43 1528.45 2285.26 1527.09 Q2287.09 1525.7 2287.09 1523.11 Q2287.09 1520.45 2285.19 1519.03 Q2283.32 1517.6 2279.8 1517.6 Q2277.88 1517.6 2275.68 1518.01 Q2273.48 1518.43 2270.84 1519.31 L2270.84 1515.14 Q2273.5 1514.4 2275.82 1514.03 Q2278.16 1513.66 2280.22 1513.66 Q2285.54 1513.66 2288.64 1516.09 Q2291.74 1518.5 2291.74 1522.62 Q2291.74 1525.49 2290.1 1527.48 Q2288.46 1529.45 2285.43 1530.21 Z" fill="#000000" fill-rule="nonzero" fill-opacity="1"></path><path clip-path="url(#clip460)" d="M2311.42 1517.37 Q2307.81 1517.37 2305.98 1520.93 Q2304.18 1524.47 2304.18 1531.6 Q2304.18 1538.71 2305.98 1542.27 Q2307.81 1545.82 2311.42 1545.82 Q2315.05 1545.82 2316.86 1542.27 Q2318.69 1538.71 2318.69 1531.6 Q2318.69 1524.47 2316.86 1520.93 Q2315.05 1517.37 2311.42 1517.37 M2311.42 1513.66 Q2317.23 1513.66 2320.29 1518.27 Q2323.36 1522.85 2323.36 1531.6 Q2323.36 1540.33 2320.29 1544.94 Q2317.23 1549.52 2311.42 1549.52 Q2305.61 1549.52 2302.53 1544.94 Q2299.48 1540.33 2299.48 1531.6 Q2299.48 1522.85 2302.53 1518.27 Q2305.61 1513.66 2311.42 1513.66 Z" fill="#000000" fill-rule="nonzero" fill-opacity="1"></path><polyline clip-path="url(#clip462)" style="stroke:#000000; stroke-linecap:round; stroke-linejoin:round; stroke-width:2; stroke-opacity:0.1; fill:none" points="367.967,1447.87 2352.76,1447.87 "></polyline>
<polyline clip-path="url(#clip462)" style="stroke:#000000; stroke-linecap:round; stroke-linejoin:round; stroke-width:2; stroke-opacity:0.1; fill:none" points="367.967,1075.81 2352.76,1075.81 "></polyline>
<polyline clip-path="url(#clip462)" style="stroke:#000000; stroke-linecap:round; stroke-linejoin:round; stroke-width:2; stroke-opacity:0.1; fill:none" points="367.967,703.756 2352.76,703.756 "></polyline>
<polyline clip-path="url(#clip462)" style="stroke:#000000; stroke-linecap:round; stroke-linejoin:round; stroke-width:2; stroke-opacity:0.1; fill:none" points="367.967,331.698 2352.76,331.698 "></polyline>
<polyline clip-path="url(#clip460)" style="stroke:#000000; stroke-linecap:round; stroke-linejoin:round; stroke-width:4; stroke-opacity:1; fill:none" points="367.967,1486.45 367.967,123.472 "></polyline>
<polyline clip-path="url(#clip460)" style="stroke:#000000; stroke-linecap:round; stroke-linejoin:round; stroke-width:4; stroke-opacity:1; fill:none" points="367.967,1447.87 386.865,1447.87 "></polyline>
<polyline clip-path="url(#clip460)" style="stroke:#000000; stroke-linecap:round; stroke-linejoin:round; stroke-width:4; stroke-opacity:1; fill:none" points="367.967,1075.81 386.865,1075.81 "></polyline>
<polyline clip-path="url(#clip460)" style="stroke:#000000; stroke-linecap:round; stroke-linejoin:round; stroke-width:4; stroke-opacity:1; fill:none" points="367.967,703.756 386.865,703.756 "></polyline>
<polyline clip-path="url(#clip460)" style="stroke:#000000; stroke-linecap:round; stroke-linejoin:round; stroke-width:4; stroke-opacity:1; fill:none" points="367.967,331.698 386.865,331.698 "></polyline>
<path clip-path="url(#clip460)" d="M320.023 1433.67 Q316.412 1433.67 314.583 1437.24 Q312.778 1440.78 312.778 1447.91 Q312.778 1455.01 314.583 1458.58 Q316.412 1462.12 320.023 1462.12 Q323.657 1462.12 325.463 1458.58 Q327.291 1455.01 327.291 1447.91 Q327.291 1440.78 325.463 1437.24 Q323.657 1433.67 320.023 1433.67 M320.023 1429.97 Q325.833 1429.97 328.889 1434.57 Q331.967 1439.16 331.967 1447.91 Q331.967 1456.63 328.889 1461.24 Q325.833 1465.82 320.023 1465.82 Q314.213 1465.82 311.134 1461.24 Q308.079 1456.63 308.079 1447.91 Q308.079 1439.16 311.134 1434.57 Q314.213 1429.97 320.023 1429.97 Z" fill="#000000" fill-rule="nonzero" fill-opacity="1"></path><path clip-path="url(#clip460)" d="M116.142 1064.98 L134.499 1064.98 L134.499 1068.92 L120.425 1068.92 L120.425 1077.39 Q121.443 1077.04 122.462 1076.88 Q123.48 1076.7 124.499 1076.7 Q130.286 1076.7 133.665 1079.87 Q137.045 1083.04 137.045 1088.45 Q137.045 1094.03 133.573 1097.13 Q130.101 1100.21 123.781 1100.21 Q121.605 1100.21 119.337 1099.84 Q117.091 1099.47 114.684 1098.73 L114.684 1094.03 Q116.767 1095.17 118.99 1095.72 Q121.212 1096.28 123.689 1096.28 Q127.693 1096.28 130.031 1094.17 Q132.369 1092.07 132.369 1088.45 Q132.369 1084.84 130.031 1082.74 Q127.693 1080.63 123.689 1080.63 Q121.814 1080.63 119.939 1081.05 Q118.087 1081.46 116.142 1082.34 L116.142 1064.98 Z" fill="#000000" fill-rule="nonzero" fill-opacity="1"></path><path clip-path="url(#clip460)" d="M146.258 1093.66 L151.142 1093.66 L151.142 1099.54 L146.258 1099.54 L146.258 1093.66 Z" fill="#000000" fill-rule="nonzero" fill-opacity="1"></path><path clip-path="url(#clip460)" d="M171.327 1068.06 Q167.716 1068.06 165.887 1071.63 Q164.082 1075.17 164.082 1082.3 Q164.082 1089.4 165.887 1092.97 Q167.716 1096.51 171.327 1096.51 Q174.962 1096.51 176.767 1092.97 Q178.596 1089.4 178.596 1082.3 Q178.596 1075.17 176.767 1071.63 Q174.962 1068.06 171.327 1068.06 M171.327 1064.36 Q177.137 1064.36 180.193 1068.96 Q183.272 1073.55 183.272 1082.3 Q183.272 1091.02 180.193 1095.63 Q177.137 1100.21 171.327 1100.21 Q165.517 1100.21 162.438 1095.63 Q159.383 1091.02 159.383 1082.3 Q159.383 1073.55 162.438 1068.96 Q165.517 1064.36 171.327 1064.36 Z" fill="#000000" fill-rule="nonzero" fill-opacity="1"></path><path clip-path="url(#clip460)" d="M201.489 1068.06 Q197.878 1068.06 196.049 1071.63 Q194.244 1075.17 194.244 1082.3 Q194.244 1089.4 196.049 1092.97 Q197.878 1096.51 201.489 1096.51 Q205.123 1096.51 206.929 1092.97 Q208.758 1089.4 208.758 1082.3 Q208.758 1075.17 206.929 1071.63 Q205.123 1068.06 201.489 1068.06 M201.489 1064.36 Q207.299 1064.36 210.355 1068.96 Q213.434 1073.55 213.434 1082.3 Q213.434 1091.02 210.355 1095.63 Q207.299 1100.21 201.489 1100.21 Q195.679 1100.21 192.6 1095.63 Q189.545 1091.02 189.545 1082.3 Q189.545 1073.55 192.6 1068.96 Q195.679 1064.36 201.489 1064.36 Z" fill="#000000" fill-rule="nonzero" fill-opacity="1"></path><path clip-path="url(#clip460)" d="M249.822 1074.08 L239.244 1084.7 L249.822 1095.28 L247.068 1098.08 L236.443 1087.46 L225.818 1098.08 L223.086 1095.28 L233.642 1084.7 L223.086 1074.08 L225.818 1071.28 L236.443 1081.9 L247.068 1071.28 L249.822 1074.08 Z" fill="#000000" fill-rule="nonzero" fill-opacity="1"></path><path clip-path="url(#clip460)" d="M262.183 1095.61 L269.822 1095.61 L269.822 1069.24 L261.512 1070.91 L261.512 1066.65 L269.776 1064.98 L274.452 1064.98 L274.452 1095.61 L282.091 1095.61 L282.091 1099.54 L262.183 1099.54 L262.183 1095.61 Z" fill="#000000" fill-rule="nonzero" fill-opacity="1"></path><path clip-path="url(#clip460)" d="M301.535 1068.06 Q297.924 1068.06 296.095 1071.63 Q294.29 1075.17 294.29 1082.3 Q294.29 1089.4 296.095 1092.97 Q297.924 1096.51 301.535 1096.51 Q305.169 1096.51 306.975 1092.97 Q308.803 1089.4 308.803 1082.3 Q308.803 1075.17 306.975 1071.63 Q305.169 1068.06 301.535 1068.06 M301.535 1064.36 Q307.345 1064.36 310.401 1068.96 Q313.479 1073.55 313.479 1082.3 Q313.479 1091.02 310.401 1095.63 Q307.345 1100.21 301.535 1100.21 Q295.725 1100.21 292.646 1095.63 Q289.591 1091.02 289.591 1082.3 Q289.591 1073.55 292.646 1068.96 Q295.725 1064.36 301.535 1064.36 Z" fill="#000000" fill-rule="nonzero" fill-opacity="1"></path><path clip-path="url(#clip460)" d="M326.175 1056.99 Q328.902 1057.57 330.425 1059.42 Q331.967 1061.26 331.967 1063.97 Q331.967 1068.13 329.109 1070.4 Q326.25 1072.68 320.984 1072.68 Q319.216 1072.68 317.335 1072.32 Q315.473 1071.98 313.479 1071.29 L313.479 1067.62 Q315.059 1068.54 316.94 1069.01 Q318.821 1069.48 320.871 1069.48 Q324.444 1069.48 326.306 1068.07 Q328.187 1066.66 328.187 1063.97 Q328.187 1061.49 326.438 1060.09 Q324.708 1058.68 321.604 1058.68 L318.332 1058.68 L318.332 1055.56 L321.755 1055.56 Q324.557 1055.56 326.043 1054.45 Q327.529 1053.32 327.529 1051.22 Q327.529 1049.05 325.986 1047.91 Q324.463 1046.74 321.604 1046.74 Q320.043 1046.74 318.256 1047.08 Q316.47 1047.42 314.326 1048.13 L314.326 1044.75 Q316.489 1044.15 318.369 1043.84 Q320.269 1043.54 321.943 1043.54 Q326.269 1043.54 328.789 1045.52 Q331.309 1047.47 331.309 1050.82 Q331.309 1053.15 329.974 1054.77 Q328.638 1056.37 326.175 1056.99 Z" fill="#000000" fill-rule="nonzero" fill-opacity="1"></path><path clip-path="url(#clip460)" d="M114.931 723.549 L122.57 723.549 L122.57 697.183 L114.26 698.85 L114.26 694.59 L122.524 692.924 L127.2 692.924 L127.2 723.549 L134.839 723.549 L134.839 727.484 L114.931 727.484 L114.931 723.549 Z" fill="#000000" fill-rule="nonzero" fill-opacity="1"></path><path clip-path="url(#clip460)" d="M144.283 721.604 L149.167 721.604 L149.167 727.484 L144.283 727.484 L144.283 721.604 Z" fill="#000000" fill-rule="nonzero" fill-opacity="1"></path><path clip-path="url(#clip460)" d="M169.352 696.002 Q165.741 696.002 163.913 699.567 Q162.107 703.109 162.107 710.239 Q162.107 717.345 163.913 720.91 Q165.741 724.451 169.352 724.451 Q172.987 724.451 174.792 720.91 Q176.621 717.345 176.621 710.239 Q176.621 703.109 174.792 699.567 Q172.987 696.002 169.352 696.002 M169.352 692.299 Q175.163 692.299 178.218 696.905 Q181.297 701.489 181.297 710.239 Q181.297 718.965 178.218 723.572 Q175.163 728.155 169.352 728.155 Q163.542 728.155 160.464 723.572 Q157.408 718.965 157.408 710.239 Q157.408 701.489 160.464 696.905 Q163.542 692.299 169.352 692.299 Z" fill="#000000" fill-rule="nonzero" fill-opacity="1"></path><path clip-path="url(#clip460)" d="M199.514 696.002 Q195.903 696.002 194.075 699.567 Q192.269 703.109 192.269 710.239 Q192.269 717.345 194.075 720.91 Q195.903 724.451 199.514 724.451 Q203.149 724.451 204.954 720.91 Q206.783 717.345 206.783 710.239 Q206.783 703.109 204.954 699.567 Q203.149 696.002 199.514 696.002 M199.514 692.299 Q205.324 692.299 208.38 696.905 Q211.459 701.489 211.459 710.239 Q211.459 718.965 208.38 723.572 Q205.324 728.155 199.514 728.155 Q193.704 728.155 190.625 723.572 Q187.57 718.965 187.57 710.239 Q187.57 701.489 190.625 696.905 Q193.704 692.299 199.514 692.299 Z" fill="#000000" fill-rule="nonzero" fill-opacity="1"></path><path clip-path="url(#clip460)" d="M247.847 702.021 L237.269 712.646 L247.847 723.225 L245.093 726.025 L234.468 715.401 L223.843 726.025 L221.111 723.225 L231.667 712.646 L221.111 702.021 L223.843 699.22 L234.468 709.845 L245.093 699.22 L247.847 702.021 Z" fill="#000000" fill-rule="nonzero" fill-opacity="1"></path><path clip-path="url(#clip460)" d="M260.208 723.549 L267.847 723.549 L267.847 697.183 L259.537 698.85 L259.537 694.59 L267.801 692.924 L272.477 692.924 L272.477 723.549 L280.116 723.549 L280.116 727.484 L260.208 727.484 L260.208 723.549 Z" fill="#000000" fill-rule="nonzero" fill-opacity="1"></path><path clip-path="url(#clip460)" d="M299.56 696.002 Q295.949 696.002 294.12 699.567 Q292.315 703.109 292.315 710.239 Q292.315 717.345 294.12 720.91 Q295.949 724.451 299.56 724.451 Q303.194 724.451 305 720.91 Q306.829 717.345 306.829 710.239 Q306.829 703.109 305 699.567 Q303.194 696.002 299.56 696.002 M299.56 692.299 Q305.37 692.299 308.426 696.905 Q311.504 701.489 311.504 710.239 Q311.504 718.965 308.426 723.572 Q305.37 728.155 299.56 728.155 Q293.75 728.155 290.671 723.572 Q287.616 718.965 287.616 710.239 Q287.616 701.489 290.671 696.905 Q293.75 692.299 299.56 692.299 Z" fill="#000000" fill-rule="nonzero" fill-opacity="1"></path><path clip-path="url(#clip460)" d="M324.181 675.304 L314.589 690.293 L324.181 690.293 L324.181 675.304 M323.184 671.993 L327.961 671.993 L327.961 690.293 L331.967 690.293 L331.967 693.453 L327.961 693.453 L327.961 700.073 L324.181 700.073 L324.181 693.453 L311.504 693.453 L311.504 689.786 L323.184 671.993 Z" fill="#000000" fill-rule="nonzero" fill-opacity="1"></path><path clip-path="url(#clip460)" d="M114.931 351.49 L122.57 351.49 L122.57 325.125 L114.26 326.791 L114.26 322.532 L122.524 320.865 L127.2 320.865 L127.2 351.49 L134.839 351.49 L134.839 355.425 L114.931 355.425 L114.931 351.49 Z" fill="#000000" fill-rule="nonzero" fill-opacity="1"></path><path clip-path="url(#clip460)" d="M144.283 349.546 L149.167 349.546 L149.167 355.425 L144.283 355.425 L144.283 349.546 Z" fill="#000000" fill-rule="nonzero" fill-opacity="1"></path><path clip-path="url(#clip460)" d="M159.399 320.865 L177.755 320.865 L177.755 324.801 L163.681 324.801 L163.681 333.273 Q164.7 332.925 165.718 332.763 Q166.737 332.578 167.755 332.578 Q173.542 332.578 176.922 335.75 Q180.301 338.921 180.301 344.337 Q180.301 349.916 176.829 353.018 Q173.357 356.097 167.038 356.097 Q164.862 356.097 162.593 355.726 Q160.348 355.356 157.94 354.615 L157.94 349.916 Q160.024 351.05 162.246 351.606 Q164.468 352.161 166.945 352.161 Q170.95 352.161 173.288 350.055 Q175.626 347.949 175.626 344.337 Q175.626 340.726 173.288 338.62 Q170.95 336.513 166.945 336.513 Q165.07 336.513 163.195 336.93 Q161.343 337.347 159.399 338.226 L159.399 320.865 Z" fill="#000000" fill-rule="nonzero" fill-opacity="1"></path><path clip-path="url(#clip460)" d="M199.514 323.944 Q195.903 323.944 194.075 327.509 Q192.269 331.05 192.269 338.18 Q192.269 345.287 194.075 348.851 Q195.903 352.393 199.514 352.393 Q203.149 352.393 204.954 348.851 Q206.783 345.287 206.783 338.18 Q206.783 331.05 204.954 327.509 Q203.149 323.944 199.514 323.944 M199.514 320.24 Q205.324 320.24 208.38 324.847 Q211.459 329.43 211.459 338.18 Q211.459 346.907 208.38 351.513 Q205.324 356.097 199.514 356.097 Q193.704 356.097 190.625 351.513 Q187.57 346.907 187.57 338.18 Q187.57 329.43 190.625 324.847 Q193.704 320.24 199.514 320.24 Z" fill="#000000" fill-rule="nonzero" fill-opacity="1"></path><path clip-path="url(#clip460)" d="M247.847 329.963 L237.269 340.587 L247.847 351.166 L245.093 353.967 L234.468 343.342 L223.843 353.967 L221.111 351.166 L231.667 340.587 L221.111 329.963 L223.843 327.162 L234.468 337.787 L245.093 327.162 L247.847 329.963 Z" fill="#000000" fill-rule="nonzero" fill-opacity="1"></path><path clip-path="url(#clip460)" d="M260.208 351.49 L267.847 351.49 L267.847 325.125 L259.537 326.791 L259.537 322.532 L267.801 320.865 L272.477 320.865 L272.477 351.49 L280.116 351.49 L280.116 355.425 L260.208 355.425 L260.208 351.49 Z" fill="#000000" fill-rule="nonzero" fill-opacity="1"></path><path clip-path="url(#clip460)" d="M299.56 323.944 Q295.949 323.944 294.12 327.509 Q292.315 331.05 292.315 338.18 Q292.315 345.287 294.12 348.851 Q295.949 352.393 299.56 352.393 Q303.194 352.393 305 348.851 Q306.829 345.287 306.829 338.18 Q306.829 331.05 305 327.509 Q303.194 323.944 299.56 323.944 M299.56 320.24 Q305.37 320.24 308.426 324.847 Q311.504 329.43 311.504 338.18 Q311.504 346.907 308.426 351.513 Q305.37 356.097 299.56 356.097 Q293.75 356.097 290.671 351.513 Q287.616 346.907 287.616 338.18 Q287.616 329.43 290.671 324.847 Q293.75 320.24 299.56 320.24 Z" fill="#000000" fill-rule="nonzero" fill-opacity="1"></path><path clip-path="url(#clip460)" d="M324.181 303.245 L314.589 318.235 L324.181 318.235 L324.181 303.245 M323.184 299.935 L327.961 299.935 L327.961 318.235 L331.967 318.235 L331.967 321.395 L327.961 321.395 L327.961 328.015 L324.181 328.015 L324.181 321.395 L311.504 321.395 L311.504 317.727 L323.184 299.935 Z" fill="#000000" fill-rule="nonzero" fill-opacity="1"></path><path clip-path="url(#clip460)" d="M44.7161 882.717 L47.5806 882.717 L47.5806 909.644 Q53.6281 909.262 56.8109 906.016 Q59.9619 902.737 59.9619 896.913 Q59.9619 893.539 59.1344 890.388 Q58.3069 887.205 56.6518 884.086 L62.1899 884.086 Q63.5267 887.237 64.227 890.547 Q64.9272 893.857 64.9272 897.263 Q64.9272 905.793 59.9619 910.79 Q54.9967 915.755 46.5303 915.755 Q37.7774 915.755 32.6531 911.045 Q27.4968 906.302 27.4968 898.281 Q27.4968 891.088 32.1438 886.918 Q36.7589 882.717 44.7161 882.717 M42.9973 888.574 Q38.1912 888.637 35.3266 891.279 Q32.4621 893.889 32.4621 898.218 Q32.4621 903.119 35.2312 906.079 Q38.0002 909.007 43.0292 909.453 L42.9973 888.574 Z" fill="#000000" fill-rule="nonzero" fill-opacity="1"></path><path clip-path="url(#clip460)" d="M42.4881 843.473 L64.0042 843.473 L64.0042 849.329 L42.679 849.329 Q37.6183 849.329 35.1038 851.302 Q32.5894 853.276 32.5894 857.222 Q32.5894 861.965 35.6131 864.702 Q38.6368 867.439 43.8567 867.439 L64.0042 867.439 L64.0042 873.328 L28.3562 873.328 L28.3562 867.439 L33.8944 867.439 Q30.6797 865.339 29.0883 862.506 Q27.4968 859.641 27.4968 855.917 Q27.4968 849.775 31.3163 846.624 Q35.1038 843.473 42.4881 843.473 Z" fill="#000000" fill-rule="nonzero" fill-opacity="1"></path><path clip-path="url(#clip460)" d="M44.7161 801.3 L47.5806 801.3 L47.5806 828.227 Q53.6281 827.845 56.8109 824.598 Q59.9619 821.32 59.9619 815.495 Q59.9619 812.121 59.1344 808.97 Q58.3069 805.788 56.6518 802.668 L62.1899 802.668 Q63.5267 805.819 64.227 809.13 Q64.9272 812.44 64.9272 815.845 Q64.9272 824.375 59.9619 829.372 Q54.9967 834.338 46.5303 834.338 Q37.7774 834.338 32.6531 829.627 Q27.4968 824.885 27.4968 816.864 Q27.4968 809.671 32.1438 805.501 Q36.7589 801.3 44.7161 801.3 M42.9973 807.156 Q38.1912 807.22 35.3266 809.862 Q32.4621 812.472 32.4621 816.8 Q32.4621 821.702 35.2312 824.662 Q38.0002 827.59 43.0292 828.036 L42.9973 807.156 Z" fill="#000000" fill-rule="nonzero" fill-opacity="1"></path><path clip-path="url(#clip460)" d="M33.8307 771.031 Q33.2578 772.017 33.0032 773.195 Q32.7167 774.341 32.7167 775.741 Q32.7167 780.707 35.9632 783.38 Q39.1779 786.022 45.2253 786.022 L64.0042 786.022 L64.0042 791.91 L28.3562 791.91 L28.3562 786.022 L33.8944 786.022 Q30.6479 784.176 29.0883 781.216 Q27.4968 778.256 27.4968 774.023 Q27.4968 773.418 27.5923 772.686 Q27.656 771.954 27.8151 771.063 L33.8307 771.031 Z" fill="#000000" fill-rule="nonzero" fill-opacity="1"></path><path clip-path="url(#clip460)" d="M45.7664 742.576 Q39.4007 742.576 35.8996 745.218 Q32.3984 747.828 32.3984 752.57 Q32.3984 757.281 35.8996 759.923 Q39.4007 762.533 45.7664 762.533 Q52.1003 762.533 55.6014 759.923 Q59.1026 757.281 59.1026 752.57 Q59.1026 747.828 55.6014 745.218 Q52.1003 742.576 45.7664 742.576 M59.58 736.72 Q68.683 736.72 73.1071 740.762 Q77.5631 744.804 77.5631 753.143 Q77.5631 756.231 77.0857 758.968 Q76.6401 761.705 75.6852 764.283 L69.9879 764.283 Q71.3884 761.705 72.0568 759.191 Q72.7252 756.676 72.7252 754.066 Q72.7252 748.305 69.7015 745.441 Q66.7096 742.576 60.6303 742.576 L57.7339 742.576 Q60.885 744.39 62.4446 747.223 Q64.0042 750.056 64.0042 754.003 Q64.0042 760.559 59.0071 764.57 Q54.01 768.58 45.7664 768.58 Q37.491 768.58 32.4939 764.57 Q27.4968 760.559 27.4968 754.003 Q27.4968 750.056 29.0564 747.223 Q30.616 744.39 33.7671 742.576 L28.3562 742.576 L28.3562 736.72 L59.58 736.72 Z" fill="#000000" fill-rule="nonzero" fill-opacity="1"></path><path clip-path="url(#clip460)" d="M67.3143 709.825 Q73.68 712.307 75.6216 714.662 Q77.5631 717.018 77.5631 720.965 L77.5631 725.643 L72.6615 725.643 L72.6615 722.206 Q72.6615 719.787 71.5157 718.45 Q70.3699 717.113 66.1048 715.49 L63.4312 714.44 L28.3562 728.858 L28.3562 722.651 L56.238 711.511 L28.3562 700.371 L28.3562 694.165 L67.3143 709.825 Z" fill="#000000" fill-rule="nonzero" fill-opacity="1"></path><path clip-path="url(#clip460)" d="M778.105 14.0809 L778.105 22.0612 Q773.446 19.8332 769.314 18.7395 Q765.183 17.6457 761.334 17.6457 Q754.65 17.6457 751.004 20.2383 Q747.399 22.8309 747.399 27.611 Q747.399 31.6214 749.789 33.6873 Q752.22 35.7128 758.944 36.9686 L763.886 37.9813 Q773.041 39.7232 777.376 44.1387 Q781.751 48.5136 781.751 55.8863 Q781.751 64.6767 775.836 69.2137 Q769.963 73.7508 758.58 73.7508 Q754.286 73.7508 749.424 72.7785 Q744.604 71.8063 739.419 69.9024 L739.419 61.4765 Q744.401 64.2716 749.181 65.6895 Q753.962 67.1073 758.58 67.1073 Q765.588 67.1073 769.395 64.3527 Q773.203 61.598 773.203 56.4939 Q773.203 52.0379 770.449 49.5264 Q767.735 47.0148 761.496 45.759 L756.514 44.7868 Q747.359 42.9639 743.267 39.075 Q739.176 35.1862 739.176 28.2591 Q739.176 20.2383 744.806 15.6203 Q750.478 11.0023 760.402 11.0023 Q764.656 11.0023 769.071 11.7719 Q773.487 12.5416 778.105 14.0809 Z" fill="#000000" fill-rule="nonzero" fill-opacity="1"></path><path clip-path="url(#clip460)" d="M794.187 27.2059 L801.641 27.2059 L801.641 72.576 L794.187 72.576 L794.187 27.2059 M794.187 9.54393 L801.641 9.54393 L801.641 18.9825 L794.187 18.9825 L794.187 9.54393 Z" fill="#000000" fill-rule="nonzero" fill-opacity="1"></path><path clip-path="url(#clip460)" d="M854.951 45.1919 L854.951 72.576 L847.497 72.576 L847.497 45.4349 Q847.497 38.994 844.985 35.7938 Q842.474 32.5936 837.451 32.5936 Q831.415 32.5936 827.931 36.4419 Q824.447 40.2903 824.447 46.9338 L824.447 72.576 L816.953 72.576 L816.953 27.2059 L824.447 27.2059 L824.447 34.2544 Q827.121 30.163 830.726 28.1376 Q834.372 26.1121 839.112 26.1121 Q846.93 26.1121 850.94 30.9732 Q854.951 35.7938 854.951 45.1919 Z" fill="#000000" fill-rule="nonzero" fill-opacity="1"></path><path clip-path="url(#clip460)" d="M899.673 49.3643 Q899.673 41.2625 896.31 36.8065 Q892.989 32.3505 886.953 32.3505 Q880.957 32.3505 877.595 36.8065 Q874.273 41.2625 874.273 49.3643 Q874.273 57.4256 877.595 61.8816 Q880.957 66.3376 886.953 66.3376 Q892.989 66.3376 896.31 61.8816 Q899.673 57.4256 899.673 49.3643 M907.126 66.9452 Q907.126 78.5308 901.982 84.1616 Q896.837 89.8329 886.224 89.8329 Q882.294 89.8329 878.81 89.2252 Q875.327 88.6581 872.045 87.4428 L872.045 80.1917 Q875.327 81.9741 878.527 82.8248 Q881.727 83.6755 885.049 83.6755 Q892.381 83.6755 896.027 79.8271 Q899.673 76.0193 899.673 68.282 L899.673 64.5957 Q897.364 68.6061 893.758 70.5911 Q890.153 72.576 885.13 72.576 Q876.785 72.576 871.681 66.2161 Q866.577 59.8562 866.577 49.3643 Q866.577 38.832 871.681 32.472 Q876.785 26.1121 885.13 26.1121 Q890.153 26.1121 893.758 28.0971 Q897.364 30.082 899.673 34.0924 L899.673 27.2059 L907.126 27.2059 L907.126 66.9452 Z" fill="#000000" fill-rule="nonzero" fill-opacity="1"></path><path clip-path="url(#clip460)" d="M921.709 54.671 L921.709 27.2059 L929.163 27.2059 L929.163 54.3874 Q929.163 60.8284 931.675 64.0691 Q934.186 67.2693 939.209 67.2693 Q945.245 67.2693 948.729 63.421 Q952.253 59.5726 952.253 52.9291 L952.253 27.2059 L959.707 27.2059 L959.707 72.576 L952.253 72.576 L952.253 65.6084 Q949.539 69.7404 945.934 71.7658 Q942.369 73.7508 937.63 73.7508 Q929.811 73.7508 925.76 68.8897 Q921.709 64.0286 921.709 54.671 M940.465 26.1121 L940.465 26.1121 Z" fill="#000000" fill-rule="nonzero" fill-opacity="1"></path><path clip-path="url(#clip460)" d="M975.06 9.54393 L982.514 9.54393 L982.514 72.576 L975.06 72.576 L975.06 9.54393 Z" fill="#000000" fill-rule="nonzero" fill-opacity="1"></path><path clip-path="url(#clip460)" d="M1018.73 49.7694 Q1009.7 49.7694 1006.21 51.8354 Q1002.73 53.9013 1002.73 58.8839 Q1002.73 62.8538 1005.32 65.2034 Q1007.95 67.5124 1012.45 67.5124 Q1018.65 67.5124 1022.37 63.1374 Q1026.14 58.7219 1026.14 51.4303 L1026.14 49.7694 L1018.73 49.7694 M1033.6 46.6907 L1033.6 72.576 L1026.14 72.576 L1026.14 65.6895 Q1023.59 69.8214 1019.78 71.8063 Q1015.97 73.7508 1010.46 73.7508 Q1003.5 73.7508 999.365 69.8619 Q995.274 65.9325 995.274 59.3701 Q995.274 51.7138 1000.38 47.825 Q1005.52 43.9361 1015.69 43.9361 L1026.14 43.9361 L1026.14 43.2069 Q1026.14 38.0623 1022.74 35.2672 Q1019.38 32.4315 1013.26 32.4315 Q1009.37 32.4315 1005.68 33.3632 Q1002 34.295 998.596 36.1584 L998.596 29.2718 Q1002.69 27.692 1006.54 26.9223 Q1010.38 26.1121 1014.03 26.1121 Q1023.87 26.1121 1028.73 31.2163 Q1033.6 36.3204 1033.6 46.6907 Z" fill="#000000" fill-rule="nonzero" fill-opacity="1"></path><path clip-path="url(#clip460)" d="M1075.24 34.1734 Q1073.98 33.4443 1072.48 33.1202 Q1071.03 32.7556 1069.24 32.7556 Q1062.92 32.7556 1059.52 36.8875 Q1056.16 40.9789 1056.16 48.6757 L1056.16 72.576 L1048.66 72.576 L1048.66 27.2059 L1056.16 27.2059 L1056.16 34.2544 Q1058.51 30.1225 1062.28 28.1376 Q1066.04 26.1121 1071.43 26.1121 Q1072.2 26.1121 1073.13 26.2337 Q1074.06 26.3147 1075.2 26.5172 L1075.24 34.1734 Z" fill="#000000" fill-rule="nonzero" fill-opacity="1"></path><path clip-path="url(#clip460)" d="M1125.35 72.576 L1102.26 12.096 L1110.81 12.096 L1129.97 63.0159 L1149.17 12.096 L1157.67 12.096 L1134.62 72.576 L1125.35 72.576 Z" fill="#000000" fill-rule="nonzero" fill-opacity="1"></path><path clip-path="url(#clip460)" d="M1180.36 49.7694 Q1171.33 49.7694 1167.84 51.8354 Q1164.36 53.9013 1164.36 58.8839 Q1164.36 62.8538 1166.95 65.2034 Q1169.58 67.5124 1174.08 67.5124 Q1180.28 67.5124 1184.01 63.1374 Q1187.77 58.7219 1187.77 51.4303 L1187.77 49.7694 L1180.36 49.7694 M1195.23 46.6907 L1195.23 72.576 L1187.77 72.576 L1187.77 65.6895 Q1185.22 69.8214 1181.41 71.8063 Q1177.61 73.7508 1172.1 73.7508 Q1165.13 73.7508 1161 69.8619 Q1156.9 65.9325 1156.9 59.3701 Q1156.9 51.7138 1162.01 47.825 Q1167.15 43.9361 1177.32 43.9361 L1187.77 43.9361 L1187.77 43.2069 Q1187.77 38.0623 1184.37 35.2672 Q1181.01 32.4315 1174.89 32.4315 Q1171 32.4315 1167.32 33.3632 Q1163.63 34.295 1160.23 36.1584 L1160.23 29.2718 Q1164.32 27.692 1168.17 26.9223 Q1172.01 26.1121 1175.66 26.1121 Q1185.5 26.1121 1190.37 31.2163 Q1195.23 36.3204 1195.23 46.6907 Z" fill="#000000" fill-rule="nonzero" fill-opacity="1"></path><path clip-path="url(#clip460)" d="M1210.58 9.54393 L1218.03 9.54393 L1218.03 72.576 L1210.58 72.576 L1210.58 9.54393 Z" fill="#000000" fill-rule="nonzero" fill-opacity="1"></path><path clip-path="url(#clip460)" d="M1232.86 54.671 L1232.86 27.2059 L1240.31 27.2059 L1240.31 54.3874 Q1240.31 60.8284 1242.82 64.0691 Q1245.34 67.2693 1250.36 67.2693 Q1256.4 67.2693 1259.88 63.421 Q1263.4 59.5726 1263.4 52.9291 L1263.4 27.2059 L1270.86 27.2059 L1270.86 72.576 L1263.4 72.576 L1263.4 65.6084 Q1260.69 69.7404 1257.08 71.7658 Q1253.52 73.7508 1248.78 73.7508 Q1240.96 73.7508 1236.91 68.8897 Q1232.86 64.0286 1232.86 54.671 M1251.62 26.1121 L1251.62 26.1121 Z" fill="#000000" fill-rule="nonzero" fill-opacity="1"></path><path clip-path="url(#clip460)" d="M1325.02 48.0275 L1325.02 51.6733 L1290.75 51.6733 Q1291.23 59.3701 1295.36 63.421 Q1299.54 67.4314 1306.95 67.4314 Q1311.24 67.4314 1315.25 66.3781 Q1319.31 65.3249 1323.28 63.2184 L1323.28 70.267 Q1319.27 71.9684 1315.05 72.8596 Q1310.84 73.7508 1306.5 73.7508 Q1295.65 73.7508 1289.29 67.4314 Q1282.97 61.1119 1282.97 50.3365 Q1282.97 39.1965 1288.96 32.6746 Q1295 26.1121 1305.21 26.1121 Q1314.36 26.1121 1319.67 32.0264 Q1325.02 37.9003 1325.02 48.0275 M1317.56 45.84 Q1317.48 39.7232 1314.12 36.0774 Q1310.8 32.4315 1305.29 32.4315 Q1299.05 32.4315 1295.28 35.9558 Q1291.56 39.4801 1290.99 45.8805 L1317.56 45.84 Z" fill="#000000" fill-rule="nonzero" fill-opacity="1"></path><path clip-path="url(#clip460)" d="M1366.17 28.5427 L1366.17 35.5912 Q1363.01 33.9709 1359.61 33.1607 Q1356.21 32.3505 1352.56 32.3505 Q1347.01 32.3505 1344.22 34.0519 Q1341.46 35.7533 1341.46 39.156 Q1341.46 41.7486 1343.45 43.2475 Q1345.43 44.7058 1351.43 46.0426 L1353.98 46.6097 Q1361.92 48.3111 1365.24 51.4303 Q1368.61 54.509 1368.61 60.0587 Q1368.61 66.3781 1363.58 70.0644 Q1358.6 73.7508 1349.85 73.7508 Q1346.2 73.7508 1342.23 73.0216 Q1338.3 72.3329 1333.93 70.9151 L1333.93 63.2184 Q1338.06 65.3654 1342.07 66.4591 Q1346.08 67.5124 1350.01 67.5124 Q1355.28 67.5124 1358.11 65.73 Q1360.95 63.9071 1360.95 60.6258 Q1360.95 57.5877 1358.88 55.9673 Q1356.86 54.3469 1349.93 52.8481 L1347.34 52.2405 Q1340.41 50.7821 1337.33 47.7845 Q1334.25 44.7463 1334.25 39.4801 Q1334.25 33.0797 1338.79 29.5959 Q1343.33 26.1121 1351.67 26.1121 Q1355.8 26.1121 1359.45 26.7198 Q1363.1 27.3274 1366.17 28.5427 Z" fill="#000000" fill-rule="nonzero" fill-opacity="1"></path><path clip-path="url(#clip460)" d="M1382.38 62.2867 L1390.93 62.2867 L1390.93 69.2543 L1384.28 82.2172 L1379.06 82.2172 L1382.38 69.2543 L1382.38 62.2867 Z" fill="#000000" fill-rule="nonzero" fill-opacity="1"></path><path clip-path="url(#clip460)" d="M1462.22 44.2197 Q1464.85 45.1109 1467.33 48.0275 Q1469.84 50.9442 1472.35 56.0483 L1480.65 72.576 L1471.86 72.576 L1464.13 57.061 Q1461.13 50.9847 1458.29 48.9997 Q1455.5 47.0148 1450.64 47.0148 L1441.72 47.0148 L1441.72 72.576 L1433.54 72.576 L1433.54 12.096 L1452.01 12.096 Q1462.38 12.096 1467.49 16.4305 Q1472.59 20.7649 1472.59 29.5149 Q1472.59 35.2267 1469.92 38.994 Q1467.29 42.7613 1462.22 44.2197 M1441.72 18.8205 L1441.72 40.2903 L1452.01 40.2903 Q1457.93 40.2903 1460.93 37.5762 Q1463.96 34.8216 1463.96 29.5149 Q1463.96 24.2082 1460.93 21.5346 Q1457.93 18.8205 1452.01 18.8205 L1441.72 18.8205 Z" fill="#000000" fill-rule="nonzero" fill-opacity="1"></path><path clip-path="url(#clip460)" d="M1509.66 49.7694 Q1500.62 49.7694 1497.14 51.8354 Q1493.66 53.9013 1493.66 58.8839 Q1493.66 62.8538 1496.25 65.2034 Q1498.88 67.5124 1503.38 67.5124 Q1509.58 67.5124 1513.3 63.1374 Q1517.07 58.7219 1517.07 51.4303 L1517.07 49.7694 L1509.66 49.7694 M1524.52 46.6907 L1524.52 72.576 L1517.07 72.576 L1517.07 65.6895 Q1514.52 69.8214 1510.71 71.8063 Q1506.9 73.7508 1501.39 73.7508 Q1494.43 73.7508 1490.29 69.8619 Q1486.2 65.9325 1486.2 59.3701 Q1486.2 51.7138 1491.31 47.825 Q1496.45 43.9361 1506.62 43.9361 L1517.07 43.9361 L1517.07 43.2069 Q1517.07 38.0623 1513.67 35.2672 Q1510.31 32.4315 1504.19 32.4315 Q1500.3 32.4315 1496.61 33.3632 Q1492.93 34.295 1489.52 36.1584 L1489.52 29.2718 Q1493.62 27.692 1497.46 26.9223 Q1501.31 26.1121 1504.96 26.1121 Q1514.8 26.1121 1519.66 31.2163 Q1524.52 36.3204 1524.52 46.6907 Z" fill="#000000" fill-rule="nonzero" fill-opacity="1"></path><path clip-path="url(#clip460)" d="M1577.59 45.1919 L1577.59 72.576 L1570.14 72.576 L1570.14 45.4349 Q1570.14 38.994 1567.63 35.7938 Q1565.11 32.5936 1560.09 32.5936 Q1554.06 32.5936 1550.57 36.4419 Q1547.09 40.2903 1547.09 46.9338 L1547.09 72.576 L1539.59 72.576 L1539.59 27.2059 L1547.09 27.2059 L1547.09 34.2544 Q1549.76 30.163 1553.37 28.1376 Q1557.01 26.1121 1561.75 26.1121 Q1569.57 26.1121 1573.58 30.9732 Q1577.59 35.7938 1577.59 45.1919 Z" fill="#000000" fill-rule="nonzero" fill-opacity="1"></path><path clip-path="url(#clip460)" d="M1622.31 34.0924 L1622.31 9.54393 L1629.77 9.54393 L1629.77 72.576 L1622.31 72.576 L1622.31 65.7705 Q1619.96 69.8214 1616.36 71.8063 Q1612.79 73.7508 1607.77 73.7508 Q1599.55 73.7508 1594.36 67.1883 Q1589.22 60.6258 1589.22 49.9314 Q1589.22 39.2371 1594.36 32.6746 Q1599.55 26.1121 1607.77 26.1121 Q1612.79 26.1121 1616.36 28.0971 Q1619.96 30.0415 1622.31 34.0924 M1596.91 49.9314 Q1596.91 58.1548 1600.28 62.8538 Q1603.68 67.5124 1609.59 67.5124 Q1615.51 67.5124 1618.91 62.8538 Q1622.31 58.1548 1622.31 49.9314 Q1622.31 41.7081 1618.91 37.0496 Q1615.51 32.3505 1609.59 32.3505 Q1603.68 32.3505 1600.28 37.0496 Q1596.91 41.7081 1596.91 49.9314 Z" fill="#000000" fill-rule="nonzero" fill-opacity="1"></path><path clip-path="url(#clip460)" d="M1662.7 32.4315 Q1656.71 32.4315 1653.22 37.1306 Q1649.74 41.7891 1649.74 49.9314 Q1649.74 58.0738 1653.18 62.7728 Q1656.67 67.4314 1662.7 67.4314 Q1668.66 67.4314 1672.14 62.7323 Q1675.62 58.0333 1675.62 49.9314 Q1675.62 41.8701 1672.14 37.1711 Q1668.66 32.4315 1662.7 32.4315 M1662.7 26.1121 Q1672.42 26.1121 1677.97 32.4315 Q1683.52 38.7509 1683.52 49.9314 Q1683.52 61.0714 1677.97 67.4314 Q1672.42 73.7508 1662.7 73.7508 Q1652.94 73.7508 1647.39 67.4314 Q1641.88 61.0714 1641.88 49.9314 Q1641.88 38.7509 1647.39 32.4315 Q1652.94 26.1121 1662.7 26.1121 Z" fill="#000000" fill-rule="nonzero" fill-opacity="1"></path><path clip-path="url(#clip460)" d="M1731.2 35.9153 Q1734 30.8922 1737.89 28.5022 Q1741.77 26.1121 1747.04 26.1121 Q1754.13 26.1121 1757.98 31.0947 Q1761.83 36.0368 1761.83 45.1919 L1761.83 72.576 L1754.33 72.576 L1754.33 45.4349 Q1754.33 38.913 1752.02 35.7533 Q1749.71 32.5936 1744.97 32.5936 Q1739.18 32.5936 1735.82 36.4419 Q1732.46 40.2903 1732.46 46.9338 L1732.46 72.576 L1724.96 72.576 L1724.96 45.4349 Q1724.96 38.8725 1722.65 35.7533 Q1720.35 32.5936 1715.52 32.5936 Q1709.81 32.5936 1706.45 36.4824 Q1703.09 40.3308 1703.09 46.9338 L1703.09 72.576 L1695.59 72.576 L1695.59 27.2059 L1703.09 27.2059 L1703.09 34.2544 Q1705.64 30.082 1709.21 28.0971 Q1712.77 26.1121 1717.67 26.1121 Q1722.61 26.1121 1726.06 28.6237 Q1729.54 31.1352 1731.2 35.9153 Z" fill="#000000" fill-rule="nonzero" fill-opacity="1"></path><path clip-path="url(#clip460)" d="M1835.71 28.9478 L1835.71 35.9153 Q1832.56 34.1734 1829.36 33.3227 Q1826.2 32.4315 1822.95 32.4315 Q1815.7 32.4315 1811.69 37.0496 Q1807.68 41.6271 1807.68 49.9314 Q1807.68 58.2358 1811.69 62.8538 Q1815.7 67.4314 1822.95 67.4314 Q1826.2 67.4314 1829.36 66.5807 Q1832.56 65.6895 1835.71 63.9476 L1835.71 70.8341 Q1832.6 72.2924 1829.23 73.0216 Q1825.91 73.7508 1822.14 73.7508 Q1811.9 73.7508 1805.86 67.3098 Q1799.82 60.8689 1799.82 49.9314 Q1799.82 38.832 1805.9 32.472 Q1812.02 26.1121 1822.63 26.1121 Q1826.07 26.1121 1829.36 26.8413 Q1832.64 27.5299 1835.71 28.9478 Z" fill="#000000" fill-rule="nonzero" fill-opacity="1"></path><path clip-path="url(#clip460)" d="M1869.3 49.7694 Q1860.26 49.7694 1856.78 51.8354 Q1853.3 53.9013 1853.3 58.8839 Q1853.3 62.8538 1855.89 65.2034 Q1858.52 67.5124 1863.02 67.5124 Q1869.22 67.5124 1872.94 63.1374 Q1876.71 58.7219 1876.71 51.4303 L1876.71 49.7694 L1869.3 49.7694 M1884.16 46.6907 L1884.16 72.576 L1876.71 72.576 L1876.71 65.6895 Q1874.16 69.8214 1870.35 71.8063 Q1866.54 73.7508 1861.03 73.7508 Q1854.07 73.7508 1849.93 69.8619 Q1845.84 65.9325 1845.84 59.3701 Q1845.84 51.7138 1850.95 47.825 Q1856.09 43.9361 1866.26 43.9361 L1876.71 43.9361 L1876.71 43.2069 Q1876.71 38.0623 1873.31 35.2672 Q1869.95 32.4315 1863.83 32.4315 Q1859.94 32.4315 1856.25 33.3632 Q1852.57 34.295 1849.16 36.1584 L1849.16 29.2718 Q1853.26 27.692 1857.1 26.9223 Q1860.95 26.1121 1864.6 26.1121 Q1874.44 26.1121 1879.3 31.2163 Q1884.16 36.3204 1884.16 46.6907 Z" fill="#000000" fill-rule="nonzero" fill-opacity="1"></path><path clip-path="url(#clip460)" d="M1928.44 28.5427 L1928.44 35.5912 Q1925.28 33.9709 1921.88 33.1607 Q1918.47 32.3505 1914.83 32.3505 Q1909.28 32.3505 1906.48 34.0519 Q1903.73 35.7533 1903.73 39.156 Q1903.73 41.7486 1905.71 43.2475 Q1907.7 44.7058 1913.69 46.0426 L1916.25 46.6097 Q1924.19 48.3111 1927.51 51.4303 Q1930.87 54.509 1930.87 60.0587 Q1930.87 66.3781 1925.85 70.0644 Q1920.86 73.7508 1912.12 73.7508 Q1908.47 73.7508 1904.5 73.0216 Q1900.57 72.3329 1896.19 70.9151 L1896.19 63.2184 Q1900.33 65.3654 1904.34 66.4591 Q1908.35 67.5124 1912.28 67.5124 Q1917.54 67.5124 1920.38 65.73 Q1923.21 63.9071 1923.21 60.6258 Q1923.21 57.5877 1921.15 55.9673 Q1919.12 54.3469 1912.2 52.8481 L1909.6 52.2405 Q1902.68 50.7821 1899.6 47.7845 Q1896.52 44.7463 1896.52 39.4801 Q1896.52 33.0797 1901.06 29.5959 Q1905.59 26.1121 1913.94 26.1121 Q1918.07 26.1121 1921.72 26.7198 Q1925.36 27.3274 1928.44 28.5427 Z" fill="#000000" fill-rule="nonzero" fill-opacity="1"></path><path clip-path="url(#clip460)" d="M1981.55 48.0275 L1981.55 51.6733 L1947.28 51.6733 Q1947.76 59.3701 1951.89 63.421 Q1956.07 67.4314 1963.48 67.4314 Q1967.77 67.4314 1971.78 66.3781 Q1975.84 65.3249 1979.81 63.2184 L1979.81 70.267 Q1975.8 71.9684 1971.58 72.8596 Q1967.37 73.7508 1963.03 73.7508 Q1952.18 73.7508 1945.82 67.4314 Q1939.5 61.1119 1939.5 50.3365 Q1939.5 39.1965 1945.49 32.6746 Q1951.53 26.1121 1961.74 26.1121 Q1970.89 26.1121 1976.2 32.0264 Q1981.55 37.9003 1981.55 48.0275 M1974.09 45.84 Q1974.01 39.7232 1970.65 36.0774 Q1967.33 32.4315 1961.82 32.4315 Q1955.58 32.4315 1951.81 35.9558 Q1948.09 39.4801 1947.52 45.8805 L1974.09 45.84 Z" fill="#000000" fill-rule="nonzero" fill-opacity="1"></path><polyline clip-path="url(#clip462)" style="stroke:#009af9; stroke-linecap:round; stroke-linejoin:round; stroke-width:4; stroke-opacity:1; fill:none" points="424.141,162.047 488.708,673.997 553.275,1202.62 617.841,1300.25 682.408,1360.65 746.975,1389.51 811.542,1405.34 876.109,1421.44 940.676,1431.06 1005.24,1437.03 1069.81,1439.9 1134.38,1442.16 1198.94,1444.03 1263.51,1445.47 1328.08,1446.35 1392.65,1446.85 1457.21,1447.18 1521.78,1447.44 1586.35,1447.59 1650.91,1447.68 1715.48,1447.76 1780.05,1447.8 1844.61,1447.83 1909.18,1447.85 1973.75,1447.86 2038.31,1447.87 2102.88,1447.87 2167.45,1447.87 2232.02,1447.87 2296.58,1447.87 "></polyline>
<path clip-path="url(#clip460)" d="M2035.69 272.585 L2286.6 272.585 L2286.6 168.905 L2035.69 168.905  Z" fill="#ffffff" fill-rule="evenodd" fill-opacity="1"></path>
<polyline clip-path="url(#clip460)" style="stroke:#000000; stroke-linecap:round; stroke-linejoin:round; stroke-width:4; stroke-opacity:1; fill:none" points="2035.69,272.585 2286.6,272.585 2286.6,168.905 2035.69,168.905 2035.69,272.585 "></polyline>
<polyline clip-path="url(#clip460)" style="stroke:#009af9; stroke-linecap:round; stroke-linejoin:round; stroke-width:4; stroke-opacity:1; fill:none" points="2057.74,220.745 2190.06,220.745 "></polyline>
<path clip-path="url(#clip460)" d="M2225.96 240.432 Q2224.15 245.062 2222.44 246.474 Q2220.72 247.886 2217.85 247.886 L2214.45 247.886 L2214.45 244.321 L2216.95 244.321 Q2218.71 244.321 2219.68 243.488 Q2220.65 242.654 2221.83 239.552 L2222.6 237.608 L2212.11 212.099 L2216.63 212.099 L2224.73 232.377 L2232.83 212.099 L2237.34 212.099 L2225.96 240.432 Z" fill="#000000" fill-rule="nonzero" fill-opacity="1"></path><path clip-path="url(#clip460)" d="M2244.64 234.089 L2252.27 234.089 L2252.27 207.724 L2243.96 209.391 L2243.96 205.131 L2252.23 203.465 L2256.9 203.465 L2256.9 234.089 L2264.54 234.089 L2264.54 238.025 L2244.64 238.025 L2244.64 234.089 Z" fill="#000000" fill-rule="nonzero" fill-opacity="1"></path></svg>