<svg xmlns="http://www.w3.org/2000/svg" xmlns:xlink="http://www.w3.org/1999/xlink" width="600" height="400" viewBox="0 0 2400 1600">
<defs>
  <clipPath id="clip500">
    <rect x="0" y="0" width="2400" height="1600"></rect>
  </clipPath>
</defs>
<path clip-path="url(#clip500)" d="M0 1600 L2400 1600 L2400 0 L0 0  Z" fill="#ffffff" fill-rule="evenodd" fill-opacity="1"></path>
<defs>
  <clipPath id="clip501">
    <rect x="480" y="0" width="1681" height="1600"></rect>
  </clipPath>
</defs>
<path clip-path="url(#clip500)" d="M340.699 1486.45 L2352.76 1486.45 L2352.76 123.472 L340.699 123.472  Z" fill="#ffffff" fill-rule="evenodd" fill-opacity="1"></path>
<defs>
  <clipPath id="clip502">
    <rect x="340" y="123" width="2013" height="1364"></rect>
  </clipPath>
</defs>
<polyline clip-path="url(#clip502)" style="stroke:#000000; stroke-linecap:round; stroke-linejoin:round; stroke-width:2; stroke-opacity:0.1; fill:none" points="659.46,1486.45 659.46,123.472 "></polyline>
<polyline clip-path="url(#clip502)" style="stroke:#000000; stroke-linecap:round; stroke-linejoin:round; stroke-width:2; stroke-opacity:0.1; fill:none" points="986.73,1486.45 986.73,123.472 "></polyline>
<polyline clip-path="url(#clip502)" style="stroke:#000000; stroke-linecap:round; stroke-linejoin:round; stroke-width:2; stroke-opacity:0.1; fill:none" points="1314,1486.45 1314,123.472 "></polyline>
<polyline clip-path="url(#clip502)" style="stroke:#000000; stroke-linecap:round; stroke-linejoin:round; stroke-width:2; stroke-opacity:0.1; fill:none" points="1641.27,1486.45 1641.27,123.472 "></polyline>
<polyline clip-path="url(#clip502)" style="stroke:#000000; stroke-linecap:round; stroke-linejoin:round; stroke-width:2; stroke-opacity:0.1; fill:none" points="1968.54,1486.45 1968.54,123.472 "></polyline>
<polyline clip-path="url(#clip502)" style="stroke:#000000; stroke-linecap:round; stroke-linejoin:round; stroke-width:2; stroke-opacity:0.1; fill:none" points="2295.81,1486.45 2295.81,123.472 "></polyline>
<polyline clip-path="url(#clip500)" style="stroke:#000000; stroke-linecap:round; stroke-linejoin:round; stroke-width:4; stroke-opacity:1; fill:none" points="340.699,1486.45 2352.76,1486.45 "></polyline>
<polyline clip-path="url(#clip500)" style="stroke:#000000; stroke-linecap:round; stroke-linejoin:round; stroke-width:4; stroke-opacity:1; fill:none" points="659.46,1486.45 659.46,1467.55 "></polyline>
<polyline clip-path="url(#clip500)" style="stroke:#000000; stroke-linecap:round; stroke-linejoin:round; stroke-width:4; stroke-opacity:1; fill:none" points="986.73,1486.45 986.73,1467.55 "></polyline>
<polyline clip-path="url(#clip500)" style="stroke:#000000; stroke-linecap:round; stroke-linejoin:round; stroke-width:4; stroke-opacity:1; fill:none" points="1314,1486.45 1314,1467.55 "></polyline>
<polyline clip-path="url(#clip500)" style="stroke:#000000; stroke-linecap:round; stroke-linejoin:round; stroke-width:4; stroke-opacity:1; fill:none" points="1641.27,1486.45 1641.27,1467.55 "></polyline>
<polyline clip-path="url(#clip500)" style="stroke:#000000; stroke-linecap:round; stroke-linejoin:round; stroke-width:4; stroke-opacity:1; fill:none" points="1968.54,1486.45 1968.54,1467.55 "></polyline>
<polyline clip-path="url(#clip500)" style="stroke:#000000; stroke-linecap:round; stroke-linejoin:round; stroke-width:4; stroke-opacity:1; fill:none" points="2295.81,1486.45 2295.81,1467.55 "></polyline>
<path clip-path="url(#clip500)" d="M649.738 1514.29 L668.094 1514.29 L668.094 1518.22 L654.02 1518.22 L654.02 1526.7 Q655.039 1526.35 656.057 1526.19 Q657.076 1526 658.094 1526 Q663.881 1526 667.261 1529.17 Q670.641 1532.34 670.641 1537.76 Q670.641 1543.34 667.168 1546.44 Q663.696 1549.52 657.377 1549.52 Q655.201 1549.52 652.932 1549.15 Q650.687 1548.78 648.28 1548.04 L648.28 1543.34 Q650.363 1544.47 652.585 1545.03 Q654.807 1545.58 657.284 1545.58 Q661.289 1545.58 663.627 1543.48 Q665.965 1541.37 665.965 1537.76 Q665.965 1534.15 663.627 1532.04 Q661.289 1529.94 657.284 1529.94 Q655.409 1529.94 653.534 1530.35 Q651.682 1530.77 649.738 1531.65 L649.738 1514.29 Z" fill="#000000" fill-rule="nonzero" fill-opacity="1"></path><path clip-path="url(#clip500)" d="M961.418 1544.91 L969.057 1544.91 L969.057 1518.55 L960.747 1520.21 L960.747 1515.95 L969.01 1514.29 L973.686 1514.29 L973.686 1544.91 L981.325 1544.91 L981.325 1548.85 L961.418 1548.85 L961.418 1544.91 Z" fill="#000000" fill-rule="nonzero" fill-opacity="1"></path><path clip-path="url(#clip500)" d="M1000.77 1517.37 Q997.158 1517.37 995.33 1520.93 Q993.524 1524.47 993.524 1531.6 Q993.524 1538.71 995.33 1542.27 Q997.158 1545.82 1000.77 1545.82 Q1004.4 1545.82 1006.21 1542.27 Q1008.04 1538.71 1008.04 1531.6 Q1008.04 1524.47 1006.21 1520.93 Q1004.4 1517.37 1000.77 1517.37 M1000.77 1513.66 Q1006.58 1513.66 1009.64 1518.27 Q1012.71 1522.85 1012.71 1531.6 Q1012.71 1540.33 1009.64 1544.94 Q1006.58 1549.52 1000.77 1549.52 Q994.959 1549.52 991.881 1544.94 Q988.825 1540.33 988.825 1531.6 Q988.825 1522.85 991.881 1518.27 Q994.959 1513.66 1000.77 1513.66 Z" fill="#000000" fill-rule="nonzero" fill-opacity="1"></path><path clip-path="url(#clip500)" d="M1289.19 1544.91 L1296.82 1544.91 L1296.82 1518.55 L1288.51 1520.21 L1288.51 1515.95 L1296.78 1514.29 L1301.45 1514.29 L1301.45 1544.91 L1309.09 1544.91 L1309.09 1548.85 L1289.19 1548.85 L1289.19 1544.91 Z" fill="#000000" fill-rule="nonzero" fill-opacity="1"></path><path clip-path="url(#clip500)" d="M1318.58 1514.29 L1336.94 1514.29 L1336.94 1518.22 L1322.87 1518.22 L1322.87 1526.7 Q1323.88 1526.35 1324.9 1526.19 Q1325.92 1526 1326.94 1526 Q1332.73 1526 1336.11 1529.17 Q1339.49 1532.34 1339.49 1537.76 Q1339.49 1543.34 1336.01 1546.44 Q1332.54 1549.52 1326.22 1549.52 Q1324.05 1549.52 1321.78 1549.15 Q1319.53 1548.78 1317.13 1548.04 L1317.13 1543.34 Q1319.21 1544.47 1321.43 1545.03 Q1323.65 1545.58 1326.13 1545.58 Q1330.13 1545.58 1332.47 1543.48 Q1334.81 1541.37 1334.81 1537.76 Q1334.81 1534.15 1332.47 1532.04 Q1330.13 1529.94 1326.13 1529.94 Q1324.25 1529.94 1322.38 1530.35 Q1320.53 1530.77 1318.58 1531.65 L1318.58 1514.29 Z" fill="#000000" fill-rule="nonzero" fill-opacity="1"></path><path clip-path="url(#clip500)" d="M1620.04 1544.91 L1636.36 1544.91 L1636.36 1548.85 L1614.42 1548.85 L1614.42 1544.91 Q1617.08 1542.16 1621.66 1537.53 Q1626.27 1532.88 1627.45 1531.53 Q1629.7 1529.01 1630.58 1527.27 Q1631.48 1525.51 1631.48 1523.82 Q1631.48 1521.07 1629.53 1519.33 Q1627.61 1517.6 1624.51 1517.6 Q1622.31 1517.6 1619.86 1518.36 Q1617.43 1519.13 1614.65 1520.68 L1614.65 1515.95 Q1617.47 1514.82 1619.93 1514.24 Q1622.38 1513.66 1624.42 1513.66 Q1629.79 1513.66 1632.98 1516.35 Q1636.18 1519.03 1636.18 1523.52 Q1636.18 1525.65 1635.37 1527.57 Q1634.58 1529.47 1632.47 1532.07 Q1631.9 1532.74 1628.79 1535.95 Q1625.69 1539.15 1620.04 1544.91 Z" fill="#000000" fill-rule="nonzero" fill-opacity="1"></path><path clip-path="url(#clip500)" d="M1656.18 1517.37 Q1652.57 1517.37 1650.74 1520.93 Q1648.93 1524.47 1648.93 1531.6 Q1648.93 1538.71 1650.74 1542.27 Q1652.57 1545.82 1656.18 1545.82 Q1659.81 1545.82 1661.62 1542.27 Q1663.45 1538.71 1663.45 1531.6 Q1663.45 1524.47 1661.62 1520.93 Q1659.81 1517.37 1656.18 1517.37 M1656.18 1513.66 Q1661.99 1513.66 1665.04 1518.27 Q1668.12 1522.85 1668.12 1531.6 Q1668.12 1540.33 1665.04 1544.94 Q1661.99 1549.52 1656.18 1549.52 Q1650.37 1549.52 1647.29 1544.94 Q1644.23 1540.33 1644.23 1531.6 Q1644.23 1522.85 1647.29 1518.27 Q1650.37 1513.66 1656.18 1513.66 Z" fill="#000000" fill-rule="nonzero" fill-opacity="1"></path><path clip-path="url(#clip500)" d="M1947.81 1544.91 L1964.13 1544.91 L1964.13 1548.85 L1942.19 1548.85 L1942.19 1544.91 Q1944.85 1542.16 1949.43 1537.53 Q1954.04 1532.88 1955.22 1531.53 Q1957.46 1529.01 1958.34 1527.27 Q1959.25 1525.51 1959.25 1523.82 Q1959.25 1521.07 1957.3 1519.33 Q1955.38 1517.6 1952.28 1517.6 Q1950.08 1517.6 1947.63 1518.36 Q1945.2 1519.13 1942.42 1520.68 L1942.42 1515.95 Q1945.24 1514.82 1947.7 1514.24 Q1950.15 1513.66 1952.19 1513.66 Q1957.56 1513.66 1960.75 1516.35 Q1963.95 1519.03 1963.95 1523.52 Q1963.95 1525.65 1963.14 1527.57 Q1962.35 1529.47 1960.24 1532.07 Q1959.66 1532.74 1956.56 1535.95 Q1953.46 1539.15 1947.81 1544.91 Z" fill="#000000" fill-rule="nonzero" fill-opacity="1"></path><path clip-path="url(#clip500)" d="M1973.99 1514.29 L1992.35 1514.29 L1992.35 1518.22 L1978.27 1518.22 L1978.27 1526.7 Q1979.29 1526.35 1980.31 1526.19 Q1981.33 1526 1982.35 1526 Q1988.14 1526 1991.52 1529.17 Q1994.89 1532.34 1994.89 1537.76 Q1994.89 1543.34 1991.42 1546.44 Q1987.95 1549.52 1981.63 1549.52 Q1979.46 1549.52 1977.19 1549.15 Q1974.94 1548.78 1972.53 1548.04 L1972.53 1543.34 Q1974.62 1544.47 1976.84 1545.03 Q1979.06 1545.58 1981.54 1545.58 Q1985.54 1545.58 1987.88 1543.48 Q1990.22 1541.37 1990.22 1537.76 Q1990.22 1534.15 1987.88 1532.04 Q1985.54 1529.94 1981.54 1529.94 Q1979.66 1529.94 1977.79 1530.35 Q1975.94 1530.77 1973.99 1531.65 L1973.99 1514.29 Z" fill="#000000" fill-rule="nonzero" fill-opacity="1"></path><path clip-path="url(#clip500)" d="M2284.65 1530.21 Q2288.01 1530.93 2289.89 1533.2 Q2291.78 1535.47 2291.78 1538.8 Q2291.78 1543.92 2288.26 1546.72 Q2284.75 1549.52 2278.26 1549.52 Q2276.09 1549.52 2273.77 1549.08 Q2271.48 1548.66 2269.03 1547.81 L2269.03 1543.29 Q2270.97 1544.43 2273.29 1545.01 Q2275.6 1545.58 2278.13 1545.58 Q2282.52 1545.58 2284.82 1543.85 Q2287.13 1542.11 2287.13 1538.8 Q2287.13 1535.75 2284.98 1534.03 Q2282.85 1532.3 2279.03 1532.3 L2275 1532.3 L2275 1528.45 L2279.21 1528.45 Q2282.66 1528.45 2284.49 1527.09 Q2286.32 1525.7 2286.32 1523.11 Q2286.32 1520.45 2284.42 1519.03 Q2282.55 1517.6 2279.03 1517.6 Q2277.11 1517.6 2274.91 1518.01 Q2272.71 1518.43 2270.07 1519.31 L2270.07 1515.14 Q2272.73 1514.4 2275.05 1514.03 Q2277.39 1513.66 2279.45 1513.66 Q2284.77 1513.66 2287.87 1516.09 Q2290.97 1518.5 2290.97 1522.62 Q2290.97 1525.49 2289.33 1527.48 Q2287.69 1529.45 2284.65 1530.21 Z" fill="#000000" fill-rule="nonzero" fill-opacity="1"></path><path clip-path="url(#clip500)" d="M2310.65 1517.37 Q2307.04 1517.37 2305.21 1520.93 Q2303.4 1524.47 2303.4 1531.6 Q2303.4 1538.71 2305.21 1542.27 Q2307.04 1545.82 2310.65 1545.82 Q2314.28 1545.82 2316.09 1542.27 Q2317.92 1538.71 2317.92 1531.6 Q2317.92 1524.47 2316.09 1520.93 Q2314.28 1517.37 2310.65 1517.37 M2310.65 1513.66 Q2316.46 1513.66 2319.51 1518.27 Q2322.59 1522.85 2322.59 1531.6 Q2322.59 1540.33 2319.51 1544.94 Q2316.46 1549.52 2310.65 1549.52 Q2304.84 1549.52 2301.76 1544.94 Q2298.7 1540.33 2298.7 1531.6 Q2298.7 1522.85 2301.76 1518.27 Q2304.84 1513.66 2310.65 1513.66 Z" fill="#000000" fill-rule="nonzero" fill-opacity="1"></path><polyline clip-path="url(#clip502)" style="stroke:#000000; stroke-linecap:round; stroke-linejoin:round; stroke-width:2; stroke-opacity:0.1; fill:none" points="340.699,1447.87 2352.76,1447.87 "></polyline>
<polyline clip-path="url(#clip502)" style="stroke:#000000; stroke-linecap:round; stroke-linejoin:round; stroke-width:2; stroke-opacity:0.1; fill:none" points="340.699,1221.8 2352.76,1221.8 "></polyline>
<polyline clip-path="url(#clip502)" style="stroke:#000000; stroke-linecap:round; stroke-linejoin:round; stroke-width:2; stroke-opacity:0.1; fill:none" points="340.699,995.723 2352.76,995.723 "></polyline>
<polyline clip-path="url(#clip502)" style="stroke:#000000; stroke-linecap:round; stroke-linejoin:round; stroke-width:2; stroke-opacity:0.1; fill:none" points="340.699,769.647 2352.76,769.647 "></polyline>
<polyline clip-path="url(#clip502)" style="stroke:#000000; stroke-linecap:round; stroke-linejoin:round; stroke-width:2; stroke-opacity:0.1; fill:none" points="340.699,543.572 2352.76,543.572 "></polyline>
<polyline clip-path="url(#clip502)" style="stroke:#000000; stroke-linecap:round; stroke-linejoin:round; stroke-width:2; stroke-opacity:0.1; fill:none" points="340.699,317.497 2352.76,317.497 "></polyline>
<polyline clip-path="url(#clip500)" style="stroke:#000000; stroke-linecap:round; stroke-linejoin:round; stroke-width:4; stroke-opacity:1; fill:none" points="340.699,1486.45 340.699,123.472 "></polyline>
<polyline clip-path="url(#clip500)" style="stroke:#000000; stroke-linecap:round; stroke-linejoin:round; stroke-width:4; stroke-opacity:1; fill:none" points="340.699,1447.87 359.597,1447.87 "></polyline>
<polyline clip-path="url(#clip500)" style="stroke:#000000; stroke-linecap:round; stroke-linejoin:round; stroke-width:4; stroke-opacity:1; fill:none" points="340.699,1221.8 359.597,1221.8 "></polyline>
<polyline clip-path="url(#clip500)" style="stroke:#000000; stroke-linecap:round; stroke-linejoin:round; stroke-width:4; stroke-opacity:1; fill:none" points="340.699,995.723 359.597,995.723 "></polyline>
<polyline clip-path="url(#clip500)" style="stroke:#000000; stroke-linecap:round; stroke-linejoin:round; stroke-width:4; stroke-opacity:1; fill:none" points="340.699,769.647 359.597,769.647 "></polyline>
<polyline clip-path="url(#clip500)" style="stroke:#000000; stroke-linecap:round; stroke-linejoin:round; stroke-width:4; stroke-opacity:1; fill:none" points="340.699,543.572 359.597,543.572 "></polyline>
<polyline clip-path="url(#clip500)" style="stroke:#000000; stroke-linecap:round; stroke-linejoin:round; stroke-width:4; stroke-opacity:1; fill:none" points="340.699,317.497 359.597,317.497 "></polyline>
<path clip-path="url(#clip500)" d="M292.755 1433.67 Q289.143 1433.67 287.315 1437.24 Q285.509 1440.78 285.509 1447.91 Q285.509 1455.01 287.315 1458.58 Q289.143 1462.12 292.755 1462.12 Q296.389 1462.12 298.194 1458.58 Q300.023 1455.01 300.023 1447.91 Q300.023 1440.78 298.194 1437.24 Q296.389 1433.67 292.755 1433.67 M292.755 1429.97 Q298.565 1429.97 301.62 1434.57 Q304.699 1439.16 304.699 1447.91 Q304.699 1456.63 301.62 1461.24 Q298.565 1465.82 292.755 1465.82 Q286.944 1465.82 283.866 1461.24 Q280.81 1456.63 280.81 1447.91 Q280.81 1439.16 283.866 1434.57 Q286.944 1429.97 292.755 1429.97 Z" fill="#000000" fill-rule="nonzero" fill-opacity="1"></path><path clip-path="url(#clip500)" d="M117.825 1241.59 L125.464 1241.59 L125.464 1215.22 L117.154 1216.89 L117.154 1212.63 L125.418 1210.97 L130.093 1210.97 L130.093 1241.59 L137.732 1241.59 L137.732 1245.53 L117.825 1245.53 L117.825 1241.59 Z" fill="#000000" fill-rule="nonzero" fill-opacity="1"></path><path clip-path="url(#clip500)" d="M147.177 1239.65 L152.061 1239.65 L152.061 1245.53 L147.177 1245.53 L147.177 1239.65 Z" fill="#000000" fill-rule="nonzero" fill-opacity="1"></path><path clip-path="url(#clip500)" d="M172.246 1214.04 Q168.635 1214.04 166.806 1217.61 Q165.001 1221.15 165.001 1228.28 Q165.001 1235.39 166.806 1238.95 Q168.635 1242.49 172.246 1242.49 Q175.88 1242.49 177.686 1238.95 Q179.514 1235.39 179.514 1228.28 Q179.514 1221.15 177.686 1217.61 Q175.88 1214.04 172.246 1214.04 M172.246 1210.34 Q178.056 1210.34 181.112 1214.95 Q184.19 1219.53 184.19 1228.28 Q184.19 1237.01 181.112 1241.61 Q178.056 1246.2 172.246 1246.2 Q166.436 1246.2 163.357 1241.61 Q160.302 1237.01 160.302 1228.28 Q160.302 1219.53 163.357 1214.95 Q166.436 1210.34 172.246 1210.34 Z" fill="#000000" fill-rule="nonzero" fill-opacity="1"></path><path clip-path="url(#clip500)" d="M220.579 1220.06 L210 1230.69 L220.579 1241.27 L217.824 1244.07 L207.199 1233.44 L196.575 1244.07 L193.843 1241.27 L204.399 1230.69 L193.843 1220.06 L196.575 1217.26 L207.199 1227.89 L217.824 1217.26 L220.579 1220.06 Z" fill="#000000" fill-rule="nonzero" fill-opacity="1"></path><path clip-path="url(#clip500)" d="M232.94 1241.59 L240.579 1241.59 L240.579 1215.22 L232.269 1216.89 L232.269 1212.63 L240.533 1210.97 L245.209 1210.97 L245.209 1241.59 L252.847 1241.59 L252.847 1245.53 L232.94 1245.53 L232.94 1241.59 Z" fill="#000000" fill-rule="nonzero" fill-opacity="1"></path><path clip-path="url(#clip500)" d="M272.292 1214.04 Q268.681 1214.04 266.852 1217.61 Q265.046 1221.15 265.046 1228.28 Q265.046 1235.39 266.852 1238.95 Q268.681 1242.49 272.292 1242.49 Q275.926 1242.49 277.732 1238.95 Q279.56 1235.39 279.56 1228.28 Q279.56 1221.15 277.732 1217.61 Q275.926 1214.04 272.292 1214.04 M272.292 1210.34 Q278.102 1210.34 281.157 1214.95 Q284.236 1219.53 284.236 1228.28 Q284.236 1237.01 281.157 1241.61 Q278.102 1246.2 272.292 1246.2 Q266.482 1246.2 263.403 1241.61 Q260.347 1237.01 260.347 1228.28 Q260.347 1219.53 263.403 1214.95 Q266.482 1210.34 272.292 1210.34 Z" fill="#000000" fill-rule="nonzero" fill-opacity="1"></path><path clip-path="url(#clip500)" d="M296.913 1193.35 L287.321 1208.34 L296.913 1208.34 L296.913 1193.35 M295.916 1190.04 L300.693 1190.04 L300.693 1208.34 L304.699 1208.34 L304.699 1211.49 L300.693 1211.49 L300.693 1218.12 L296.913 1218.12 L296.913 1211.49 L284.236 1211.49 L284.236 1207.83 L295.916 1190.04 Z" fill="#000000" fill-rule="nonzero" fill-opacity="1"></path><path clip-path="url(#clip500)" d="M121.043 1015.52 L137.362 1015.52 L137.362 1019.45 L115.418 1019.45 L115.418 1015.52 Q118.08 1012.76 122.663 1008.13 Q127.269 1003.48 128.45 1002.14 Q130.695 999.612 131.575 997.876 Q132.478 996.117 132.478 994.427 Q132.478 991.673 130.533 989.936 Q128.612 988.2 125.51 988.2 Q123.311 988.2 120.857 988.964 Q118.427 989.728 115.649 991.279 L115.649 986.557 Q118.473 985.423 120.927 984.844 Q123.38 984.265 125.418 984.265 Q130.788 984.265 133.982 986.95 Q137.177 989.636 137.177 994.126 Q137.177 996.256 136.367 998.177 Q135.579 1000.08 133.473 1002.67 Q132.894 1003.34 129.792 1006.56 Q126.691 1009.75 121.043 1015.52 Z" fill="#000000" fill-rule="nonzero" fill-opacity="1"></path><path clip-path="url(#clip500)" d="M147.177 1013.57 L152.061 1013.57 L152.061 1019.45 L147.177 1019.45 L147.177 1013.57 Z" fill="#000000" fill-rule="nonzero" fill-opacity="1"></path><path clip-path="url(#clip500)" d="M172.246 987.969 Q168.635 987.969 166.806 991.534 Q165.001 995.075 165.001 1002.2 Q165.001 1009.31 166.806 1012.88 Q168.635 1016.42 172.246 1016.42 Q175.88 1016.42 177.686 1012.88 Q179.514 1009.31 179.514 1002.2 Q179.514 995.075 177.686 991.534 Q175.88 987.969 172.246 987.969 M172.246 984.265 Q178.056 984.265 181.112 988.872 Q184.19 993.455 184.19 1002.2 Q184.19 1010.93 181.112 1015.54 Q178.056 1020.12 172.246 1020.12 Q166.436 1020.12 163.357 1015.54 Q160.302 1010.93 160.302 1002.2 Q160.302 993.455 163.357 988.872 Q166.436 984.265 172.246 984.265 Z" fill="#000000" fill-rule="nonzero" fill-opacity="1"></path><path clip-path="url(#clip500)" d="M220.579 993.987 L210 1004.61 L220.579 1015.19 L217.824 1017.99 L207.199 1007.37 L196.575 1017.99 L193.843 1015.19 L204.399 1004.61 L193.843 993.987 L196.575 991.186 L207.199 1001.81 L217.824 991.186 L220.579 993.987 Z" fill="#000000" fill-rule="nonzero" fill-opacity="1"></path><path clip-path="url(#clip500)" d="M232.94 1015.52 L240.579 1015.52 L240.579 989.149 L232.269 990.816 L232.269 986.557 L240.533 984.89 L245.209 984.89 L245.209 1015.52 L252.847 1015.52 L252.847 1019.45 L232.94 1019.45 L232.94 1015.52 Z" fill="#000000" fill-rule="nonzero" fill-opacity="1"></path><path clip-path="url(#clip500)" d="M272.292 987.969 Q268.681 987.969 266.852 991.534 Q265.046 995.075 265.046 1002.2 Q265.046 1009.31 266.852 1012.88 Q268.681 1016.42 272.292 1016.42 Q275.926 1016.42 277.732 1012.88 Q279.56 1009.31 279.56 1002.2 Q279.56 995.075 277.732 991.534 Q275.926 987.969 272.292 987.969 M272.292 984.265 Q278.102 984.265 281.157 988.872 Q284.236 993.455 284.236 1002.2 Q284.236 1010.93 281.157 1015.54 Q278.102 1020.12 272.292 1020.12 Q266.482 1020.12 263.403 1015.54 Q260.347 1010.93 260.347 1002.2 Q260.347 993.455 263.403 988.872 Q266.482 984.265 272.292 984.265 Z" fill="#000000" fill-rule="nonzero" fill-opacity="1"></path><path clip-path="url(#clip500)" d="M296.913 967.27 L287.321 982.26 L296.913 982.26 L296.913 967.27 M295.916 963.96 L300.693 963.96 L300.693 982.26 L304.699 982.26 L304.699 985.419 L300.693 985.419 L300.693 992.04 L296.913 992.04 L296.913 985.419 L284.236 985.419 L284.236 981.752 L295.916 963.96 Z" fill="#000000" fill-rule="nonzero" fill-opacity="1"></path><path clip-path="url(#clip500)" d="M131.181 774.741 Q134.538 775.458 136.413 777.727 Q138.311 779.995 138.311 783.329 Q138.311 788.444 134.792 791.245 Q131.274 794.046 124.793 794.046 Q122.617 794.046 120.302 793.606 Q118.01 793.19 115.556 792.333 L115.556 787.819 Q117.501 788.954 119.816 789.532 Q122.13 790.111 124.654 790.111 Q129.052 790.111 131.343 788.375 Q133.658 786.639 133.658 783.329 Q133.658 780.273 131.505 778.56 Q129.376 776.824 125.556 776.824 L121.529 776.824 L121.529 772.982 L125.742 772.982 Q129.191 772.982 131.019 771.616 Q132.848 770.227 132.848 767.634 Q132.848 764.972 130.95 763.56 Q129.075 762.125 125.556 762.125 Q123.635 762.125 121.436 762.542 Q119.237 762.958 116.598 763.838 L116.598 759.671 Q119.26 758.931 121.575 758.56 Q123.913 758.19 125.973 758.19 Q131.297 758.19 134.399 760.62 Q137.501 763.028 137.501 767.148 Q137.501 770.019 135.857 772.009 Q134.214 773.977 131.181 774.741 Z" fill="#000000" fill-rule="nonzero" fill-opacity="1"></path><path clip-path="url(#clip500)" d="M147.177 787.495 L152.061 787.495 L152.061 793.375 L147.177 793.375 L147.177 787.495 Z" fill="#000000" fill-rule="nonzero" fill-opacity="1"></path><path clip-path="url(#clip500)" d="M172.246 761.894 Q168.635 761.894 166.806 765.458 Q165.001 769 165.001 776.13 Q165.001 783.236 166.806 786.801 Q168.635 790.343 172.246 790.343 Q175.88 790.343 177.686 786.801 Q179.514 783.236 179.514 776.13 Q179.514 769 177.686 765.458 Q175.88 761.894 172.246 761.894 M172.246 758.19 Q178.056 758.19 181.112 762.796 Q184.19 767.38 184.19 776.13 Q184.19 784.856 181.112 789.463 Q178.056 794.046 172.246 794.046 Q166.436 794.046 163.357 789.463 Q160.302 784.856 160.302 776.13 Q160.302 767.38 163.357 762.796 Q166.436 758.19 172.246 758.19 Z" fill="#000000" fill-rule="nonzero" fill-opacity="1"></path><path clip-path="url(#clip500)" d="M220.579 767.912 L210 778.537 L220.579 789.116 L217.824 791.917 L207.199 781.292 L196.575 791.917 L193.843 789.116 L204.399 778.537 L193.843 767.912 L196.575 765.111 L207.199 775.736 L217.824 765.111 L220.579 767.912 Z" fill="#000000" fill-rule="nonzero" fill-opacity="1"></path><path clip-path="url(#clip500)" d="M232.94 789.44 L240.579 789.44 L240.579 763.074 L232.269 764.741 L232.269 760.482 L240.533 758.815 L245.209 758.815 L245.209 789.44 L252.847 789.44 L252.847 793.375 L232.94 793.375 L232.94 789.44 Z" fill="#000000" fill-rule="nonzero" fill-opacity="1"></path><path clip-path="url(#clip500)" d="M272.292 761.894 Q268.681 761.894 266.852 765.458 Q265.046 769 265.046 776.13 Q265.046 783.236 266.852 786.801 Q268.681 790.343 272.292 790.343 Q275.926 790.343 277.732 786.801 Q279.56 783.236 279.56 776.13 Q279.56 769 277.732 765.458 Q275.926 761.894 272.292 761.894 M272.292 758.19 Q278.102 758.19 281.157 762.796 Q284.236 767.38 284.236 776.13 Q284.236 784.856 281.157 789.463 Q278.102 794.046 272.292 794.046 Q266.482 794.046 263.403 789.463 Q260.347 784.856 260.347 776.13 Q260.347 767.38 263.403 762.796 Q266.482 758.19 272.292 758.19 Z" fill="#000000" fill-rule="nonzero" fill-opacity="1"></path><path clip-path="url(#clip500)" d="M296.913 741.195 L287.321 756.184 L296.913 756.184 L296.913 741.195 M295.916 737.885 L300.693 737.885 L300.693 756.184 L304.699 756.184 L304.699 759.344 L300.693 759.344 L300.693 765.965 L296.913 765.965 L296.913 759.344 L284.236 759.344 L284.236 755.677 L295.916 737.885 Z" fill="#000000" fill-rule="nonzero" fill-opacity="1"></path><path clip-path="url(#clip500)" d="M129.862 536.814 L118.056 555.263 L129.862 555.263 L129.862 536.814 M128.635 532.74 L134.515 532.74 L134.515 555.263 L139.445 555.263 L139.445 559.152 L134.515 559.152 L134.515 567.3 L129.862 567.3 L129.862 559.152 L114.26 559.152 L114.26 554.638 L128.635 532.74 Z" fill="#000000" fill-rule="nonzero" fill-opacity="1"></path><path clip-path="url(#clip500)" d="M147.177 561.42 L152.061 561.42 L152.061 567.3 L147.177 567.3 L147.177 561.42 Z" fill="#000000" fill-rule="nonzero" fill-opacity="1"></path><path clip-path="url(#clip500)" d="M172.246 535.818 Q168.635 535.818 166.806 539.383 Q165.001 542.925 165.001 550.054 Q165.001 557.161 166.806 560.726 Q168.635 564.267 172.246 564.267 Q175.88 564.267 177.686 560.726 Q179.514 557.161 179.514 550.054 Q179.514 542.925 177.686 539.383 Q175.88 535.818 172.246 535.818 M172.246 532.115 Q178.056 532.115 181.112 536.721 Q184.19 541.304 184.19 550.054 Q184.19 558.781 181.112 563.388 Q178.056 567.971 172.246 567.971 Q166.436 567.971 163.357 563.388 Q160.302 558.781 160.302 550.054 Q160.302 541.304 163.357 536.721 Q166.436 532.115 172.246 532.115 Z" fill="#000000" fill-rule="nonzero" fill-opacity="1"></path><path clip-path="url(#clip500)" d="M220.579 541.837 L210 552.462 L220.579 563.04 L217.824 565.841 L207.199 555.216 L196.575 565.841 L193.843 563.04 L204.399 552.462 L193.843 541.837 L196.575 539.036 L207.199 549.661 L217.824 539.036 L220.579 541.837 Z" fill="#000000" fill-rule="nonzero" fill-opacity="1"></path><path clip-path="url(#clip500)" d="M232.94 563.364 L240.579 563.364 L240.579 536.999 L232.269 538.666 L232.269 534.406 L240.533 532.74 L245.209 532.74 L245.209 563.364 L252.847 563.364 L252.847 567.3 L232.94 567.3 L232.94 563.364 Z" fill="#000000" fill-rule="nonzero" fill-opacity="1"></path><path clip-path="url(#clip500)" d="M272.292 535.818 Q268.681 535.818 266.852 539.383 Q265.046 542.925 265.046 550.054 Q265.046 557.161 266.852 560.726 Q268.681 564.267 272.292 564.267 Q275.926 564.267 277.732 560.726 Q279.56 557.161 279.56 550.054 Q279.56 542.925 277.732 539.383 Q275.926 535.818 272.292 535.818 M272.292 532.115 Q278.102 532.115 281.157 536.721 Q284.236 541.304 284.236 550.054 Q284.236 558.781 281.157 563.388 Q278.102 567.971 272.292 567.971 Q266.482 567.971 263.403 563.388 Q260.347 558.781 260.347 550.054 Q260.347 541.304 263.403 536.721 Q266.482 532.115 272.292 532.115 Z" fill="#000000" fill-rule="nonzero" fill-opacity="1"></path><path clip-path="url(#clip500)" d="M296.913 515.119 L287.321 530.109 L296.913 530.109 L296.913 515.119 M295.916 511.809 L300.693 511.809 L300.693 530.109 L304.699 530.109 L304.699 533.269 L300.693 533.269 L300.693 539.889 L296.913 539.889 L296.913 533.269 L284.236 533.269 L284.236 529.601 L295.916 511.809 Z" fill="#000000" fill-rule="nonzero" fill-opacity="1"></path><path clip-path="url(#clip500)" d="M117.061 306.664 L135.417 306.664 L135.417 310.6 L121.343 310.6 L121.343 319.072 Q122.362 318.725 123.38 318.562 Q124.399 318.377 125.418 318.377 Q131.205 318.377 134.584 321.549 Q137.964 324.72 137.964 330.136 Q137.964 335.715 134.492 338.817 Q131.019 341.896 124.7 341.896 Q122.524 341.896 120.255 341.525 Q118.01 341.155 115.603 340.414 L115.603 335.715 Q117.686 336.849 119.908 337.405 Q122.13 337.961 124.607 337.961 Q128.612 337.961 130.95 335.854 Q133.288 333.748 133.288 330.136 Q133.288 326.525 130.95 324.419 Q128.612 322.312 124.607 322.312 Q122.732 322.312 120.857 322.729 Q119.006 323.146 117.061 324.025 L117.061 306.664 Z" fill="#000000" fill-rule="nonzero" fill-opacity="1"></path><path clip-path="url(#clip500)" d="M147.177 335.345 L152.061 335.345 L152.061 341.224 L147.177 341.224 L147.177 335.345 Z" fill="#000000" fill-rule="nonzero" fill-opacity="1"></path><path clip-path="url(#clip500)" d="M172.246 309.743 Q168.635 309.743 166.806 313.308 Q165.001 316.85 165.001 323.979 Q165.001 331.086 166.806 334.65 Q168.635 338.192 172.246 338.192 Q175.88 338.192 177.686 334.65 Q179.514 331.086 179.514 323.979 Q179.514 316.85 177.686 313.308 Q175.88 309.743 172.246 309.743 M172.246 306.039 Q178.056 306.039 181.112 310.646 Q184.19 315.229 184.19 323.979 Q184.19 332.706 181.112 337.312 Q178.056 341.896 172.246 341.896 Q166.436 341.896 163.357 337.312 Q160.302 332.706 160.302 323.979 Q160.302 315.229 163.357 310.646 Q166.436 306.039 172.246 306.039 Z" fill="#000000" fill-rule="nonzero" fill-opacity="1"></path><path clip-path="url(#clip500)" d="M220.579 315.762 L210 326.386 L220.579 336.965 L217.824 339.766 L207.199 329.141 L196.575 339.766 L193.843 336.965 L204.399 326.386 L193.843 315.762 L196.575 312.961 L207.199 323.586 L217.824 312.961 L220.579 315.762 Z" fill="#000000" fill-rule="nonzero" fill-opacity="1"></path><path clip-path="url(#clip500)" d="M232.94 337.289 L240.579 337.289 L240.579 310.924 L232.269 312.59 L232.269 308.331 L240.533 306.664 L245.209 306.664 L245.209 337.289 L252.847 337.289 L252.847 341.224 L232.94 341.224 L232.94 337.289 Z" fill="#000000" fill-rule="nonzero" fill-opacity="1"></path><path clip-path="url(#clip500)" d="M272.292 309.743 Q268.681 309.743 266.852 313.308 Q265.046 316.85 265.046 323.979 Q265.046 331.086 266.852 334.65 Q268.681 338.192 272.292 338.192 Q275.926 338.192 277.732 334.65 Q279.56 331.086 279.56 323.979 Q279.56 316.85 277.732 313.308 Q275.926 309.743 272.292 309.743 M272.292 306.039 Q278.102 306.039 281.157 310.646 Q284.236 315.229 284.236 323.979 Q284.236 332.706 281.157 337.312 Q278.102 341.896 272.292 341.896 Q266.482 341.896 263.403 337.312 Q260.347 332.706 260.347 323.979 Q260.347 315.229 263.403 310.646 Q266.482 306.039 272.292 306.039 Z" fill="#000000" fill-rule="nonzero" fill-opacity="1"></path><path clip-path="url(#clip500)" d="M296.913 289.044 L287.321 304.034 L296.913 304.034 L296.913 289.044 M295.916 285.734 L300.693 285.734 L300.693 304.034 L304.699 304.034 L304.699 307.194 L300.693 307.194 L300.693 313.814 L296.913 313.814 L296.913 307.194 L284.236 307.194 L284.236 303.526 L295.916 285.734 Z" fill="#000000" fill-rule="nonzero" fill-opacity="1"></path><path clip-path="url(#clip500)" d="M44.7161 882.717 L47.5806 882.717 L47.5806 909.644 Q53.6281 909.262 56.8109 906.016 Q59.9619 902.737 59.9619 896.913 Q59.9619 893.539 59.1344 890.388 Q58.3069 887.205 56.6518 884.086 L62.1899 884.086 Q63.5267 887.237 64.227 890.547 Q64.9272 893.857 64.9272 897.263 Q64.9272 905.793 59.9619 910.79 Q54.9967 915.755 46.5303 915.755 Q37.7774 915.755 32.6531 911.045 Q27.4968 906.302 27.4968 898.281 Q27.4968 891.088 32.1438 886.918 Q36.7589 882.717 44.7161 882.717 M42.9973 888.574 Q38.1912 888.637 35.3266 891.279 Q32.4621 893.889 32.4621 898.218 Q32.4621 903.119 35.2312 906.079 Q38.0002 909.007 43.0292 909.453 L42.9973 888.574 Z" fill="#000000" fill-rule="nonzero" fill-opacity="1"></path><path clip-path="url(#clip500)" d="M42.4881 843.473 L64.0042 843.473 L64.0042 849.329 L42.679 849.329 Q37.6183 849.329 35.1038 851.302 Q32.5894 853.276 32.5894 857.222 Q32.5894 861.965 35.6131 864.702 Q38.6368 867.439 43.8567 867.439 L64.0042 867.439 L64.0042 873.328 L28.3562 873.328 L28.3562 867.439 L33.8944 867.439 Q30.6797 865.339 29.0883 862.506 Q27.4968 859.641 27.4968 855.917 Q27.4968 849.775 31.3163 846.624 Q35.1038 843.473 42.4881 843.473 Z" fill="#000000" fill-rule="nonzero" fill-opacity="1"></path><path clip-path="url(#clip500)" d="M44.7161 801.3 L47.5806 801.3 L47.5806 828.227 Q53.6281 827.845 56.8109 824.598 Q59.9619 821.32 59.9619 815.495 Q59.9619 812.121 59.1344 808.97 Q58.3069 805.788 56.6518 802.668 L62.1899 802.668 Q63.5267 805.819 64.227 809.13 Q64.9272 812.44 64.9272 815.845 Q64.9272 824.375 59.9619 829.372 Q54.9967 834.338 46.5303 834.338 Q37.7774 834.338 32.6531 829.627 Q27.4968 824.885 27.4968 816.864 Q27.4968 809.671 32.1438 805.501 Q36.7589 801.3 44.7161 801.3 M42.9973 807.156 Q38.1912 807.22 35.3266 809.862 Q32.4621 812.472 32.4621 816.8 Q32.4621 821.702 35.2312 824.662 Q38.0002 827.59 43.0292 828.036 L42.9973 807.156 Z" fill="#000000" fill-rule="nonzero" fill-opacity="1"></path><path clip-path="url(#clip500)" d="M33.8307 771.031 Q33.2578 772.017 33.0032 773.195 Q32.7167 774.341 32.7167 775.741 Q32.7167 780.707 35.9632 783.38 Q39.1779 786.022 45.2253 786.022 L64.0042 786.022 L64.0042 791.91 L28.3562 791.91 L28.3562 786.022 L33.8944 786.022 Q30.6479 784.176 29.0883 781.216 Q27.4968 778.256 27.4968 774.023 Q27.4968 773.418 27.5923 772.686 Q27.656 771.954 27.8151 771.063 L33.8307 771.031 Z" fill="#000000" fill-rule="nonzero" fill-opacity="1"></path><path clip-path="url(#clip500)" d="M45.7664 742.576 Q39.4007 742.576 35.8996 745.218 Q32.3984 747.828 32.3984 752.57 Q32.3984 757.281 35.8996 759.923 Q39.4007 762.533 45.7664 762.533 Q52.1003 762.533 55.6014 759.923 Q59.1026 757.281 59.1026 752.57 Q59.1026 747.828 55.6014 745.218 Q52.1003 742.576 45.7664 742.576 M59.58 736.72 Q68.683 736.72 73.1071 740.762 Q77.5631 744.804 77.5631 753.143 Q77.5631 756.231 77.0857 758.968 Q76.6401 761.705 75.6852 764.283 L69.9879 764.283 Q71.3884 761.705 72.0568 759.191 Q72.7252 756.676 72.7252 754.066 Q72.7252 748.305 69.7015 745.441 Q66.7096 742.576 60.6303 742.576 L57.7339 742.576 Q60.885 744.39 62.4446 747.223 Q64.0042 750.056 64.0042 754.003 Q64.0042 760.559 59.0071 764.57 Q54.01 768.58 45.7664 768.58 Q37.491 768.58 32.4939 764.57 Q27.4968 760.559 27.4968 754.003 Q27.4968 750.056 29.0564 747.223 Q30.616 744.39 33.7671 742.576 L28.3562 742.576 L28.3562 736.72 L59.58 736.72 Z" fill="#000000" fill-rule="nonzero" fill-opacity="1"></path><path clip-path="url(#clip500)" d="M67.3143 709.825 Q73.68 712.307 75.6216 714.662 Q77.5631 717.018 77.5631 720.965 L77.5631 725.643 L72.6615 725.643 L72.6615 722.206 Q72.6615 719.787 71.5157 718.45 Q70.3699 717.113 66.1048 715.49 L63.4312 714.44 L28.3562 728.858 L28.3562 722.651 L56.238 711.511 L28.3562 700.371 L28.3562 694.165 L67.3143 709.825 Z" fill="#000000" fill-rule="nonzero" fill-opacity="1"></path><path clip-path="url(#clip500)" d="M776.158 14.0809 L776.158 22.0612 Q771.499 19.8332 767.367 18.7395 Q763.235 17.6457 759.387 17.6457 Q752.703 17.6457 749.057 20.2383 Q745.452 22.8309 745.452 27.611 Q745.452 31.6214 747.842 33.6873 Q750.272 35.7128 756.997 36.9686 L761.939 37.9813 Q771.094 39.7232 775.428 44.1387 Q779.803 48.5136 779.803 55.8863 Q779.803 64.6767 773.889 69.2137 Q768.015 73.7508 756.632 73.7508 Q752.338 73.7508 747.477 72.7785 Q742.657 71.8063 737.471 69.9024 L737.471 61.4765 Q742.454 64.2716 747.234 65.6895 Q752.014 67.1073 756.632 67.1073 Q763.64 67.1073 767.448 64.3527 Q771.256 61.598 771.256 56.4939 Q771.256 52.0379 768.501 49.5264 Q765.787 47.0148 759.549 45.759 L754.566 44.7868 Q745.411 42.9639 741.32 39.075 Q737.228 35.1862 737.228 28.2591 Q737.228 20.2383 742.859 15.6203 Q748.53 11.0023 758.455 11.0023 Q762.709 11.0023 767.124 11.7719 Q771.54 12.5416 776.158 14.0809 Z" fill="#000000" fill-rule="nonzero" fill-opacity="1"></path><path clip-path="url(#clip500)" d="M792.24 27.2059 L799.693 27.2059 L799.693 72.576 L792.24 72.576 L792.24 27.2059 M792.24 9.54393 L799.693 9.54393 L799.693 18.9825 L792.24 18.9825 L792.24 9.54393 Z" fill="#000000" fill-rule="nonzero" fill-opacity="1"></path><path clip-path="url(#clip500)" d="M853.003 45.1919 L853.003 72.576 L845.55 72.576 L845.55 45.4349 Q845.55 38.994 843.038 35.7938 Q840.526 32.5936 835.503 32.5936 Q829.467 32.5936 825.984 36.4419 Q822.5 40.2903 822.5 46.9338 L822.5 72.576 L815.006 72.576 L815.006 27.2059 L822.5 27.2059 L822.5 34.2544 Q825.174 30.163 828.779 28.1376 Q832.425 26.1121 837.164 26.1121 Q844.982 26.1121 848.993 30.9732 Q853.003 35.7938 853.003 45.1919 Z" fill="#000000" fill-rule="nonzero" fill-opacity="1"></path><path clip-path="url(#clip500)" d="M897.725 49.3643 Q897.725 41.2625 894.363 36.8065 Q891.041 32.3505 885.005 32.3505 Q879.01 32.3505 875.648 36.8065 Q872.326 41.2625 872.326 49.3643 Q872.326 57.4256 875.648 61.8816 Q879.01 66.3376 885.005 66.3376 Q891.041 66.3376 894.363 61.8816 Q897.725 57.4256 897.725 49.3643 M905.179 66.9452 Q905.179 78.5308 900.034 84.1616 Q894.89 89.8329 884.276 89.8329 Q880.347 89.8329 876.863 89.2252 Q873.379 88.6581 870.098 87.4428 L870.098 80.1917 Q873.379 81.9741 876.579 82.8248 Q879.78 83.6755 883.101 83.6755 Q890.434 83.6755 894.079 79.8271 Q897.725 76.0193 897.725 68.282 L897.725 64.5957 Q895.416 68.6061 891.811 70.5911 Q888.206 72.576 883.182 72.576 Q874.838 72.576 869.733 66.2161 Q864.629 59.8562 864.629 49.3643 Q864.629 38.832 869.733 32.472 Q874.838 26.1121 883.182 26.1121 Q888.206 26.1121 891.811 28.0971 Q895.416 30.082 897.725 34.0924 L897.725 27.2059 L905.179 27.2059 L905.179 66.9452 Z" fill="#000000" fill-rule="nonzero" fill-opacity="1"></path><path clip-path="url(#clip500)" d="M919.762 54.671 L919.762 27.2059 L927.216 27.2059 L927.216 54.3874 Q927.216 60.8284 929.727 64.0691 Q932.239 67.2693 937.262 67.2693 Q943.298 67.2693 946.782 63.421 Q950.306 59.5726 950.306 52.9291 L950.306 27.2059 L957.76 27.2059 L957.76 72.576 L950.306 72.576 L950.306 65.6084 Q947.592 69.7404 943.987 71.7658 Q940.422 73.7508 935.682 73.7508 Q927.864 73.7508 923.813 68.8897 Q919.762 64.0286 919.762 54.671 M938.518 26.1121 L938.518 26.1121 Z" fill="#000000" fill-rule="nonzero" fill-opacity="1"></path><path clip-path="url(#clip500)" d="M973.113 9.54393 L980.566 9.54393 L980.566 72.576 L973.113 72.576 L973.113 9.54393 Z" fill="#000000" fill-rule="nonzero" fill-opacity="1"></path><path clip-path="url(#clip500)" d="M1016.78 49.7694 Q1007.75 49.7694 1004.26 51.8354 Q1000.78 53.9013 1000.78 58.8839 Q1000.78 62.8538 1003.37 65.2034 Q1006.01 67.5124 1010.5 67.5124 Q1016.7 67.5124 1020.43 63.1374 Q1024.19 58.7219 1024.19 51.4303 L1024.19 49.7694 L1016.78 49.7694 M1031.65 46.6907 L1031.65 72.576 L1024.19 72.576 L1024.19 65.6895 Q1021.64 69.8214 1017.83 71.8063 Q1014.03 73.7508 1008.52 73.7508 Q1001.55 73.7508 997.418 69.8619 Q993.327 65.9325 993.327 59.3701 Q993.327 51.7138 998.431 47.825 Q1003.58 43.9361 1013.74 43.9361 L1024.19 43.9361 L1024.19 43.2069 Q1024.19 38.0623 1020.79 35.2672 Q1017.43 32.4315 1011.31 32.4315 Q1007.42 32.4315 1003.74 33.3632 Q1000.05 34.295 996.648 36.1584 L996.648 29.2718 Q1000.74 27.692 1004.59 26.9223 Q1008.44 26.1121 1012.08 26.1121 Q1021.93 26.1121 1026.79 31.2163 Q1031.65 36.3204 1031.65 46.6907 Z" fill="#000000" fill-rule="nonzero" fill-opacity="1"></path><path clip-path="url(#clip500)" d="M1073.29 34.1734 Q1072.04 33.4443 1070.54 33.1202 Q1069.08 32.7556 1067.3 32.7556 Q1060.98 32.7556 1057.57 36.8875 Q1054.21 40.9789 1054.21 48.6757 L1054.21 72.576 L1046.72 72.576 L1046.72 27.2059 L1054.21 27.2059 L1054.21 34.2544 Q1056.56 30.1225 1060.33 28.1376 Q1064.1 26.1121 1069.48 26.1121 Q1070.25 26.1121 1071.18 26.2337 Q1072.12 26.3147 1073.25 26.5172 L1073.29 34.1734 Z" fill="#000000" fill-rule="nonzero" fill-opacity="1"></path><path clip-path="url(#clip500)" d="M1123.4 72.576 L1100.31 12.096 L1108.86 12.096 L1128.02 63.0159 L1147.22 12.096 L1155.73 12.096 L1132.68 72.576 L1123.4 72.576 Z" fill="#000000" fill-rule="nonzero" fill-opacity="1"></path><path clip-path="url(#clip500)" d="M1178.41 49.7694 Q1169.38 49.7694 1165.9 51.8354 Q1162.41 53.9013 1162.41 58.8839 Q1162.41 62.8538 1165 65.2034 Q1167.64 67.5124 1172.13 67.5124 Q1178.33 67.5124 1182.06 63.1374 Q1185.83 58.7219 1185.83 51.4303 L1185.83 49.7694 L1178.41 49.7694 M1193.28 46.6907 L1193.28 72.576 L1185.83 72.576 L1185.83 65.6895 Q1183.27 69.8214 1179.47 71.8063 Q1175.66 73.7508 1170.15 73.7508 Q1163.18 73.7508 1159.05 69.8619 Q1154.96 65.9325 1154.96 59.3701 Q1154.96 51.7138 1160.06 47.825 Q1165.21 43.9361 1175.37 43.9361 L1185.83 43.9361 L1185.83 43.2069 Q1185.83 38.0623 1182.42 35.2672 Q1179.06 32.4315 1172.94 32.4315 Q1169.05 32.4315 1165.37 33.3632 Q1161.68 34.295 1158.28 36.1584 L1158.28 29.2718 Q1162.37 27.692 1166.22 26.9223 Q1170.07 26.1121 1173.71 26.1121 Q1183.56 26.1121 1188.42 31.2163 Q1193.28 36.3204 1193.28 46.6907 Z" fill="#000000" fill-rule="nonzero" fill-opacity="1"></path><path clip-path="url(#clip500)" d="M1208.63 9.54393 L1216.09 9.54393 L1216.09 72.576 L1208.63 72.576 L1208.63 9.54393 Z" fill="#000000" fill-rule="nonzero" fill-opacity="1"></path><path clip-path="url(#clip500)" d="M1230.91 54.671 L1230.91 27.2059 L1238.37 27.2059 L1238.37 54.3874 Q1238.37 60.8284 1240.88 64.0691 Q1243.39 67.2693 1248.41 67.2693 Q1254.45 67.2693 1257.93 63.421 Q1261.46 59.5726 1261.46 52.9291 L1261.46 27.2059 L1268.91 27.2059 L1268.91 72.576 L1261.46 72.576 L1261.46 65.6084 Q1258.74 69.7404 1255.14 71.7658 Q1251.57 73.7508 1246.83 73.7508 Q1239.01 73.7508 1234.96 68.8897 Q1230.91 64.0286 1230.91 54.671 M1249.67 26.1121 L1249.67 26.1121 Z" fill="#000000" fill-rule="nonzero" fill-opacity="1"></path><path clip-path="url(#clip500)" d="M1323.07 48.0275 L1323.07 51.6733 L1288.8 51.6733 Q1289.29 59.3701 1293.42 63.421 Q1297.59 67.4314 1305 67.4314 Q1309.3 67.4314 1313.31 66.3781 Q1317.36 65.3249 1321.33 63.2184 L1321.33 70.267 Q1317.32 71.9684 1313.1 72.8596 Q1308.89 73.7508 1304.56 73.7508 Q1293.7 73.7508 1287.34 67.4314 Q1281.02 61.1119 1281.02 50.3365 Q1281.02 39.1965 1287.02 32.6746 Q1293.05 26.1121 1303.26 26.1121 Q1312.42 26.1121 1317.72 32.0264 Q1323.07 37.9003 1323.07 48.0275 M1315.62 45.84 Q1315.54 39.7232 1312.17 36.0774 Q1308.85 32.4315 1303.34 32.4315 Q1297.1 32.4315 1293.34 35.9558 Q1289.61 39.4801 1289.04 45.8805 L1315.62 45.84 Z" fill="#000000" fill-rule="nonzero" fill-opacity="1"></path><path clip-path="url(#clip500)" d="M1364.23 28.5427 L1364.23 35.5912 Q1361.07 33.9709 1357.66 33.1607 Q1354.26 32.3505 1350.62 32.3505 Q1345.07 32.3505 1342.27 34.0519 Q1339.52 35.7533 1339.52 39.156 Q1339.52 41.7486 1341.5 43.2475 Q1343.49 44.7058 1349.48 46.0426 L1352.03 46.6097 Q1359.97 48.3111 1363.3 51.4303 Q1366.66 54.509 1366.66 60.0587 Q1366.66 66.3781 1361.63 70.0644 Q1356.65 73.7508 1347.9 73.7508 Q1344.26 73.7508 1340.29 73.0216 Q1336.36 72.3329 1331.98 70.9151 L1331.98 63.2184 Q1336.11 65.3654 1340.12 66.4591 Q1344.13 67.5124 1348.06 67.5124 Q1353.33 67.5124 1356.17 65.73 Q1359 63.9071 1359 60.6258 Q1359 57.5877 1356.94 55.9673 Q1354.91 54.3469 1347.98 52.8481 L1345.39 52.2405 Q1338.46 50.7821 1335.38 47.7845 Q1332.31 44.7463 1332.31 39.4801 Q1332.31 33.0797 1336.84 29.5959 Q1341.38 26.1121 1349.73 26.1121 Q1353.86 26.1121 1357.5 26.7198 Q1361.15 27.3274 1364.23 28.5427 Z" fill="#000000" fill-rule="nonzero" fill-opacity="1"></path><path clip-path="url(#clip500)" d="M1380.43 62.2867 L1388.98 62.2867 L1388.98 69.2543 L1382.33 82.2172 L1377.11 82.2172 L1380.43 69.2543 L1380.43 62.2867 Z" fill="#000000" fill-rule="nonzero" fill-opacity="1"></path><path clip-path="url(#clip500)" d="M1467.85 14.0809 L1467.85 22.0612 Q1463.19 19.8332 1459.06 18.7395 Q1454.93 17.6457 1451.08 17.6457 Q1444.39 17.6457 1440.75 20.2383 Q1437.14 22.8309 1437.14 27.611 Q1437.14 31.6214 1439.53 33.6873 Q1441.96 35.7128 1448.69 36.9686 L1453.63 37.9813 Q1462.79 39.7232 1467.12 44.1387 Q1471.5 48.5136 1471.5 55.8863 Q1471.5 64.6767 1465.58 69.2137 Q1459.71 73.7508 1448.32 73.7508 Q1444.03 73.7508 1439.17 72.7785 Q1434.35 71.8063 1429.16 69.9024 L1429.16 61.4765 Q1434.15 64.2716 1438.93 65.6895 Q1443.71 67.1073 1448.32 67.1073 Q1455.33 67.1073 1459.14 64.3527 Q1462.95 61.598 1462.95 56.4939 Q1462.95 52.0379 1460.19 49.5264 Q1457.48 47.0148 1451.24 45.759 L1446.26 44.7868 Q1437.1 42.9639 1433.01 39.075 Q1428.92 35.1862 1428.92 28.2591 Q1428.92 20.2383 1434.55 15.6203 Q1440.22 11.0023 1450.15 11.0023 Q1454.4 11.0023 1458.82 11.7719 Q1463.23 12.5416 1467.85 14.0809 Z" fill="#000000" fill-rule="nonzero" fill-opacity="1"></path><path clip-path="url(#clip500)" d="M1519.26 35.9153 Q1522.05 30.8922 1525.94 28.5022 Q1529.83 26.1121 1535.09 26.1121 Q1542.18 26.1121 1546.03 31.0947 Q1549.88 36.0368 1549.88 45.1919 L1549.88 72.576 L1542.39 72.576 L1542.39 45.4349 Q1542.39 38.913 1540.08 35.7533 Q1537.77 32.5936 1533.03 32.5936 Q1527.24 32.5936 1523.87 36.4419 Q1520.51 40.2903 1520.51 46.9338 L1520.51 72.576 L1513.02 72.576 L1513.02 45.4349 Q1513.02 38.8725 1510.71 35.7533 Q1508.4 32.5936 1503.58 32.5936 Q1497.87 32.5936 1494.5 36.4824 Q1491.14 40.3308 1491.14 46.9338 L1491.14 72.576 L1483.65 72.576 L1483.65 27.2059 L1491.14 27.2059 L1491.14 34.2544 Q1493.69 30.082 1497.26 28.0971 Q1500.82 26.1121 1505.73 26.1121 Q1510.67 26.1121 1514.11 28.6237 Q1517.59 31.1352 1519.26 35.9153 Z" fill="#000000" fill-rule="nonzero" fill-opacity="1"></path><path clip-path="url(#clip500)" d="M1582.33 32.4315 Q1576.33 32.4315 1572.85 37.1306 Q1569.37 41.7891 1569.37 49.9314 Q1569.37 58.0738 1572.81 62.7728 Q1576.29 67.4314 1582.33 67.4314 Q1588.28 67.4314 1591.77 62.7323 Q1595.25 58.0333 1595.25 49.9314 Q1595.25 41.8701 1591.77 37.1711 Q1588.28 32.4315 1582.33 32.4315 M1582.33 26.1121 Q1592.05 26.1121 1597.6 32.4315 Q1603.15 38.7509 1603.15 49.9314 Q1603.15 61.0714 1597.6 67.4314 Q1592.05 73.7508 1582.33 73.7508 Q1572.57 73.7508 1567.02 67.4314 Q1561.51 61.0714 1561.51 49.9314 Q1561.51 38.7509 1567.02 32.4315 Q1572.57 26.1121 1582.33 26.1121 Z" fill="#000000" fill-rule="nonzero" fill-opacity="1"></path><path clip-path="url(#clip500)" d="M1633.09 32.4315 Q1627.09 32.4315 1623.61 37.1306 Q1620.12 41.7891 1620.12 49.9314 Q1620.12 58.0738 1623.57 62.7728 Q1627.05 67.4314 1633.09 67.4314 Q1639.04 67.4314 1642.52 62.7323 Q1646.01 58.0333 1646.01 49.9314 Q1646.01 41.8701 1642.52 37.1711 Q1639.04 32.4315 1633.09 32.4315 M1633.09 26.1121 Q1642.81 26.1121 1648.36 32.4315 Q1653.91 38.7509 1653.91 49.9314 Q1653.91 61.0714 1648.36 67.4314 Q1642.81 73.7508 1633.09 73.7508 Q1623.32 73.7508 1617.77 67.4314 Q1612.26 61.0714 1612.26 49.9314 Q1612.26 38.7509 1617.77 32.4315 Q1623.32 26.1121 1633.09 26.1121 Z" fill="#000000" fill-rule="nonzero" fill-opacity="1"></path><path clip-path="url(#clip500)" d="M1673.64 14.324 L1673.64 27.2059 L1688.99 27.2059 L1688.99 32.9987 L1673.64 32.9987 L1673.64 57.6282 Q1673.64 63.1779 1675.13 64.7578 Q1676.67 66.3376 1681.33 66.3376 L1688.99 66.3376 L1688.99 72.576 L1681.33 72.576 Q1672.7 72.576 1669.42 69.3758 Q1666.14 66.1351 1666.14 57.6282 L1666.14 32.9987 L1660.67 32.9987 L1660.67 27.2059 L1666.14 27.2059 L1666.14 14.324 L1673.64 14.324 Z" fill="#000000" fill-rule="nonzero" fill-opacity="1"></path><path clip-path="url(#clip500)" d="M1736.51 45.1919 L1736.51 72.576 L1729.05 72.576 L1729.05 45.4349 Q1729.05 38.994 1726.54 35.7938 Q1724.03 32.5936 1719.01 32.5936 Q1712.97 32.5936 1709.49 36.4419 Q1706 40.2903 1706 46.9338 L1706 72.576 L1698.51 72.576 L1698.51 9.54393 L1706 9.54393 L1706 34.2544 Q1708.68 30.163 1712.28 28.1376 Q1715.93 26.1121 1720.67 26.1121 Q1728.48 26.1121 1732.5 30.9732 Q1736.51 35.7938 1736.51 45.1919 Z" fill="#000000" fill-rule="nonzero" fill-opacity="1"></path><path clip-path="url(#clip500)" d="M1810.39 28.9478 L1810.39 35.9153 Q1807.23 34.1734 1804.03 33.3227 Q1800.87 32.4315 1797.63 32.4315 Q1790.38 32.4315 1786.37 37.0496 Q1782.36 41.6271 1782.36 49.9314 Q1782.36 58.2358 1786.37 62.8538 Q1790.38 67.4314 1797.63 67.4314 Q1800.87 67.4314 1804.03 66.5807 Q1807.23 65.6895 1810.39 63.9476 L1810.39 70.8341 Q1807.27 72.2924 1803.91 73.0216 Q1800.59 73.7508 1796.82 73.7508 Q1786.57 73.7508 1780.54 67.3098 Q1774.5 60.8689 1774.5 49.9314 Q1774.5 38.832 1780.58 32.472 Q1786.7 26.1121 1797.31 26.1121 Q1800.75 26.1121 1804.03 26.8413 Q1807.32 27.5299 1810.39 28.9478 Z" fill="#000000" fill-rule="nonzero" fill-opacity="1"></path><path clip-path="url(#clip500)" d="M1843.98 49.7694 Q1834.94 49.7694 1831.46 51.8354 Q1827.97 53.9013 1827.97 58.8839 Q1827.97 62.8538 1830.57 65.2034 Q1833.2 67.5124 1837.7 67.5124 Q1843.89 67.5124 1847.62 63.1374 Q1851.39 58.7219 1851.39 51.4303 L1851.39 49.7694 L1843.98 49.7694 M1858.84 46.6907 L1858.84 72.576 L1851.39 72.576 L1851.39 65.6895 Q1848.84 69.8214 1845.03 71.8063 Q1841.22 73.7508 1835.71 73.7508 Q1828.74 73.7508 1824.61 69.8619 Q1820.52 65.9325 1820.52 59.3701 Q1820.52 51.7138 1825.63 47.825 Q1830.77 43.9361 1840.94 43.9361 L1851.39 43.9361 L1851.39 43.2069 Q1851.39 38.0623 1847.99 35.2672 Q1844.62 32.4315 1838.51 32.4315 Q1834.62 32.4315 1830.93 33.3632 Q1827.25 34.295 1823.84 36.1584 L1823.84 29.2718 Q1827.93 27.692 1831.78 26.9223 Q1835.63 26.1121 1839.28 26.1121 Q1849.12 26.1121 1853.98 31.2163 Q1858.84 36.3204 1858.84 46.6907 Z" fill="#000000" fill-rule="nonzero" fill-opacity="1"></path><path clip-path="url(#clip500)" d="M1903.12 28.5427 L1903.12 35.5912 Q1899.96 33.9709 1896.56 33.1607 Q1893.15 32.3505 1889.51 32.3505 Q1883.96 32.3505 1881.16 34.0519 Q1878.41 35.7533 1878.41 39.156 Q1878.41 41.7486 1880.39 43.2475 Q1882.38 44.7058 1888.37 46.0426 L1890.93 46.6097 Q1898.87 48.3111 1902.19 51.4303 Q1905.55 54.509 1905.55 60.0587 Q1905.55 66.3781 1900.53 70.0644 Q1895.54 73.7508 1886.79 73.7508 Q1883.15 73.7508 1879.18 73.0216 Q1875.25 72.3329 1870.87 70.9151 L1870.87 63.2184 Q1875.01 65.3654 1879.02 66.4591 Q1883.03 67.5124 1886.96 67.5124 Q1892.22 67.5124 1895.06 65.73 Q1897.89 63.9071 1897.89 60.6258 Q1897.89 57.5877 1895.83 55.9673 Q1893.8 54.3469 1886.87 52.8481 L1884.28 52.2405 Q1877.36 50.7821 1874.28 47.7845 Q1871.2 44.7463 1871.2 39.4801 Q1871.2 33.0797 1875.74 29.5959 Q1880.27 26.1121 1888.62 26.1121 Q1892.75 26.1121 1896.39 26.7198 Q1900.04 27.3274 1903.12 28.5427 Z" fill="#000000" fill-rule="nonzero" fill-opacity="1"></path><path clip-path="url(#clip500)" d="M1956.23 48.0275 L1956.23 51.6733 L1921.96 51.6733 Q1922.44 59.3701 1926.57 63.421 Q1930.75 67.4314 1938.16 67.4314 Q1942.45 67.4314 1946.46 66.3781 Q1950.51 65.3249 1954.48 63.2184 L1954.48 70.267 Q1950.47 71.9684 1946.26 72.8596 Q1942.05 73.7508 1937.71 73.7508 Q1926.86 73.7508 1920.5 67.4314 Q1914.18 61.1119 1914.18 50.3365 Q1914.18 39.1965 1920.17 32.6746 Q1926.21 26.1121 1936.42 26.1121 Q1945.57 26.1121 1950.88 32.0264 Q1956.23 37.9003 1956.23 48.0275 M1948.77 45.84 Q1948.69 39.7232 1945.33 36.0774 Q1942.01 32.4315 1936.5 32.4315 Q1930.26 32.4315 1926.49 35.9558 Q1922.77 39.4801 1922.2 45.8805 L1948.77 45.84 Z" fill="#000000" fill-rule="nonzero" fill-opacity="1"></path><polyline clip-path="url(#clip502)" style="stroke:#009af9; stroke-linecap:round; stroke-linejoin:round; stroke-width:4; stroke-opacity:1; fill:none" points="397.644,162.047 463.098,730.408 528.552,1100.43 594.006,1270.29 659.46,1311.75 724.914,1356.66 790.368,1392.38 855.822,1412.7 921.276,1425.1 986.73,1433.39 1052.18,1438.88 1117.64,1442.1 1183.09,1444.06 1248.55,1445.49 1314,1446.41 1379.45,1446.96 1444.91,1447.29 1510.36,1447.49 1575.82,1447.62 1641.27,1447.71 1706.72,1447.77 1772.18,1447.8 1837.63,1447.83 1903.09,1447.85 1968.54,1447.86 2033.99,1447.87 2099.45,1447.87 2164.9,1447.87 2230.36,1447.87 2295.81,1447.87 "></polyline>
<path clip-path="url(#clip500)" d="M2032.05 272.585 L2285.69 272.585 L2285.69 168.905 L2032.05 168.905  Z" fill="#ffffff" fill-rule="evenodd" fill-opacity="1"></path>
<polyline clip-path="url(#clip500)" style="stroke:#000000; stroke-linecap:round; stroke-linejoin:round; stroke-width:4; stroke-opacity:1; fill:none" points="2032.05,272.585 2285.69,272.585 2285.69,168.905 2032.05,168.905 2032.05,272.585 "></polyline>
<polyline clip-path="url(#clip500)" style="stroke:#009af9; stroke-linecap:round; stroke-linejoin:round; stroke-width:4; stroke-opacity:1; fill:none" points="2054.41,220.745 2188.54,220.745 "></polyline>
<path clip-path="url(#clip500)" d="M2224.74 240.432 Q2222.94 245.062 2221.22 246.474 Q2219.51 247.886 2216.64 247.886 L2213.24 247.886 L2213.24 244.321 L2215.74 244.321 Q2217.5 244.321 2218.47 243.488 Q2219.44 242.654 2220.62 239.552 L2221.39 237.608 L2210.9 212.099 L2215.41 212.099 L2223.52 232.377 L2231.62 212.099 L2236.13 212.099 L2224.74 240.432 Z" fill="#000000" fill-rule="nonzero" fill-opacity="1"></path><path clip-path="url(#clip500)" d="M2243.42 234.089 L2251.06 234.089 L2251.06 207.724 L2242.75 209.391 L2242.75 205.131 L2251.02 203.465 L2255.69 203.465 L2255.69 234.089 L2263.33 234.089 L2263.33 238.025 L2243.42 238.025 L2243.42 234.089 Z" fill="#000000" fill-rule="nonzero" fill-opacity="1"></path></svg>